STARTFONT 2.1
FONT -FontForge-Bebas Neue-Book-R-Normal--48-460-75-75-P-176-ISO10646-1
SIZE 46 75 75
FONTBOUNDINGBOX 49 54 -10 -10
COMMENT "Generated by fontforge, http://fontforge.sourceforge.net"
COMMENT "Copyright 2019 The Bebas Neue Project Authors (https://github.com/dharmatype/Bebas-Neue)"
STARTPROPERTIES 40
FOUNDRY "FontForge"
FAMILY_NAME "Bebas Neue"
WEIGHT_NAME "Book"
SLANT "R"
SETWIDTH_NAME "Normal"
ADD_STYLE_NAME ""
PIXEL_SIZE 48
POINT_SIZE 460
RESOLUTION_X 75
RESOLUTION_Y 75
SPACING "P"
AVERAGE_WIDTH 176
CHARSET_REGISTRY "ISO10646"
CHARSET_ENCODING "1"
FONTNAME_REGISTRY ""
CHARSET_COLLECTIONS "ISO8859-2 ISO8859-9 ISO8859-4 Symbol ISO10646-1"
FONT_NAME "BebasNeue-Regular"
FACE_NAME "Bebas Neue Regular"
COPYRIGHT "Copyright 2019 The Bebas Neue Project Authors (https://github.com/dharmatype/Bebas-Neue)"
FONT_VERSION "2.000"
FONT_ASCENT 38
FONT_DESCENT 10
UNDERLINE_POSITION -4
UNDERLINE_THICKNESS 4
X_HEIGHT 33
CAP_HEIGHT 33
RAW_ASCENT 800
RAW_DESCENT 200
NORM_SPACE 8
RELATIVE_WEIGHT 40
RELATIVE_SETWIDTH 50
SUPERSCRIPT_X 0
SUPERSCRIPT_Y 16
SUPERSCRIPT_SIZE 28
SUBSCRIPT_X 0
SUBSCRIPT_Y 3
SUBSCRIPT_SIZE 28
FIGURE_WIDTH 19
AVG_LOWERCASE_WIDTH 184
AVG_UPPERCASE_WIDTH 184
ENDPROPERTIES
CHARS 497
STARTCHAR nonmarkingreturn
ENCODING 13
SWIDTH 160 0
DWIDTH 8 0
BBX 1 1 0 0
BITMAP
00
ENDCHAR
STARTCHAR space
ENCODING 32
SWIDTH 160 0
DWIDTH 8 0
BBX 1 1 0 0
BITMAP
00
ENDCHAR
STARTCHAR exclam
ENCODING 33
SWIDTH 210 0
DWIDTH 10 0
BBX 6 34 2 0
BITMAP
FC
FC
FC
FC
FC
FC
FC
FC
FC
FC
FC
FC
FC
FC
FC
FC
7C
7C
78
78
78
78
78
78
78
00
00
00
00
FC
FC
FC
FC
FC
ENDCHAR
STARTCHAR quotedbl
ENCODING 34
SWIDTH 336 0
DWIDTH 16 0
BBX 12 11 2 23
BITMAP
F9F0
F9F0
F9F0
F9F0
F9F0
F8F0
70F0
70E0
70E0
70E0
70E0
ENDCHAR
STARTCHAR numbersign
ENCODING 35
SWIDTH 412 0
DWIDTH 20 0
BBX 18 34 1 0
BITMAP
078F00
0F8F00
0F8F00
0F0F00
0F0F00
0F0F00
0F0F00
0F1F00
7FFFC0
7FFFC0
7FFFC0
7FFFC0
1F1E00
1E1E00
1E1E00
1E1E00
1E1E00
1E3E00
1E3E00
1E3C00
1E3C00
FFFF80
FFFF80
FFFF00
FFFF00
3C3C00
3C3C00
3C7C00
3C7800
3C7800
7C7800
7C7800
787800
787800
ENDCHAR
STARTCHAR dollar
ENCODING 36
SWIDTH 400 0
DWIDTH 19 0
BBX 15 38 2 -3
BITMAP
07C0
07C0
07C0
1FF0
3FF8
7FFC
7FFE
FC7E
F83E
F83E
F83E
F800
FC00
FC00
7E00
7F00
3F80
1FE0
0FF0
07F8
03FC
01FC
00FE
007E
003E
F83E
F83E
F83E
F83E
FC7E
FFFE
7FFC
3FFC
1FF0
07C0
07C0
07C0
07C0
ENDCHAR
STARTCHAR percent
ENCODING 37
SWIDTH 589 0
DWIDTH 28 0
BBX 25 34 2 0
BITMAP
3E007000
7F80F000
FF80E000
F3C0E000
E3C1E000
E3C1C000
E3C3C000
E3C38000
E3C38000
E3C78000
E3C70000
E3C70000
E3CF0000
E3CE0000
E3DE0000
F3DC7C00
FF9CFE00
7FBDFF00
3E39C700
007BC780
0073C780
0073C780
00F3C780
00E3C780
00E3C780
01E3C780
01C3C780
03C3C780
0383C780
0383C780
0781C700
0701FF00
0700FE00
0F007C00
ENDCHAR
STARTCHAR ampersand
ENCODING 38
SWIDTH 417 0
DWIDTH 20 0
BBX 17 34 2 0
BITMAP
0FFC00
1FFC00
3FFC00
7FFC00
FFFC00
FC0000
F80000
F80000
F80000
F80000
F83F00
F83F00
FC3F00
7C3F00
7FFF80
3FFF80
1FFF80
7FFF80
7FFF80
FC3F00
F83F00
F83F00
F83F00
F83F00
F83F00
F83F00
F83F00
F83F00
FC7F00
FFFF00
FFFF00
7FFF00
7F9F00
1F1F00
ENDCHAR
STARTCHAR quotesingle
ENCODING 39
SWIDTH 188 0
DWIDTH 9 0
BBX 5 11 2 23
BITMAP
F8
F8
F8
F8
F8
F8
70
70
70
70
70
ENDCHAR
STARTCHAR parenleft
ENCODING 40
SWIDTH 276 0
DWIDTH 13 0
BBX 9 39 3 -2
BITMAP
0780
3F80
7F80
FF80
FF80
FC00
F800
F800
F800
F800
F800
F800
F800
F800
F800
F800
F800
F800
F800
F800
F800
F800
F800
F800
F800
F800
F800
F800
F800
F800
F800
F800
F800
F800
FF80
FF80
7F80
7F80
1F80
ENDCHAR
STARTCHAR parenright
ENCODING 41
SWIDTH 276 0
DWIDTH 13 0
BBX 9 39 2 -2
BITMAP
F000
FE00
FE00
FF00
FF00
1F80
1F80
1F80
1F80
1F80
1F80
1F80
1F80
1F80
1F80
1F80
1F80
1F80
1F80
1F80
1F80
1F80
1F80
1F80
1F80
1F80
1F80
1F80
1F80
1F80
1F80
1F80
1F80
1F80
FF00
FF00
FF00
FE00
F800
ENDCHAR
STARTCHAR asterisk
ENCODING 42
SWIDTH 422 0
DWIDTH 20 0
BBX 19 18 1 16
BITMAP
01E000
01E000
01E000
01E000
40E040
70E1C0
FCC7C0
FFFFC0
FFFFE0
07F800
01F000
03F800
07BC00
0F3E00
1E1F00
3E1F00
0C0E00
040800
ENDCHAR
STARTCHAR plus
ENCODING 43
SWIDTH 400 0
DWIDTH 19 0
BBX 17 17 1 8
BITMAP
01C000
01C000
01C000
01C000
01C000
01C000
01C000
FFFF80
FFFF80
FFFF80
FFFF80
01C000
01C000
01C000
01C000
01C000
01C000
ENDCHAR
STARTCHAR comma
ENCODING 44
SWIDTH 188 0
DWIDTH 9 0
BBX 5 10 2 -5
BITMAP
F8
F8
F8
F8
F8
38
70
70
60
E0
ENDCHAR
STARTCHAR hyphen
ENCODING 45
SWIDTH 270 0
DWIDTH 13 0
BBX 11 5 1 14
BITMAP
FFE0
FFE0
FFE0
FFE0
FFE0
ENDCHAR
STARTCHAR period
ENCODING 46
SWIDTH 188 0
DWIDTH 9 0
BBX 5 5 2 0
BITMAP
F8
F8
F8
F8
F8
ENDCHAR
STARTCHAR slash
ENCODING 47
SWIDTH 389 0
DWIDTH 19 0
BBX 18 34 0 0
BITMAP
0007C0
0007C0
000780
000F80
000F80
000F00
001F00
001E00
003E00
003E00
003C00
007C00
007800
00F800
00F800
00F000
01F000
01E000
03E000
03E000
03C000
07C000
078000
078000
0F8000
0F0000
1F0000
1F0000
1E0000
3E0000
3C0000
7C0000
7C0000
F80000
ENDCHAR
STARTCHAR zero
ENCODING 48
SWIDTH 400 0
DWIDTH 19 0
BBX 16 34 2 0
BITMAP
0FE0
3FF8
7FFC
7FFE
FFFE
FC3E
F83E
F83F
F83F
F83F
F83F
F83F
F83F
F83F
F83F
F83F
F83F
F83F
F83F
F83F
F83F
F83F
F83F
F83F
F83F
F83F
F83F
F83E
FC3E
FFFE
7FFE
7FFC
3FF8
0FE0
ENDCHAR
STARTCHAR one
ENCODING 49
SWIDTH 400 0
DWIDTH 19 0
BBX 11 34 4 0
BITMAP
01E0
01E0
03E0
07E0
0FE0
FFE0
FFE0
FFE0
FFE0
07E0
07E0
07E0
07E0
07E0
07E0
07E0
07E0
07E0
07E0
07E0
07E0
07E0
07E0
07E0
07E0
07E0
07E0
07E0
07E0
07E0
07E0
07E0
07E0
07E0
ENDCHAR
STARTCHAR two
ENCODING 50
SWIDTH 400 0
DWIDTH 19 0
BBX 16 34 2 0
BITMAP
07E0
1FF8
3FFC
7FFE
FFFE
FC7E
F83E
F83F
F83F
F83F
F83E
F83E
003E
007E
00FC
00FC
01F8
03F0
07E0
0FE0
1FC0
1F80
3F00
7E00
7C00
7C00
F800
F800
F800
FFFE
FFFE
FFFE
FFFE
FFFE
ENDCHAR
STARTCHAR three
ENCODING 51
SWIDTH 400 0
DWIDTH 19 0
BBX 15 34 2 0
BITMAP
0FE0
3FF8
7FFC
7FFC
FFFE
F87E
F83E
F83E
F83E
F83E
003E
003E
003E
007C
07FC
07F8
07F0
07FC
07FC
007E
003E
003E
003E
F83E
F83E
F83E
F83E
F83E
F87E
FFFE
7FFC
7FFC
3FF8
0FE0
ENDCHAR
STARTCHAR four
ENCODING 52
SWIDTH 400 0
DWIDTH 19 0
BBX 18 34 1 0
BITMAP
007E00
007E00
00FE00
00FE00
01FE00
01FE00
01FE00
03FE00
03FE00
07FE00
07BE00
07BE00
0FBE00
0F3E00
1F3E00
1F3E00
3E3E00
3E3E00
3C3E00
7C3E00
7C3E00
F83E00
F83E00
FFFFC0
FFFFC0
FFFFC0
FFFFC0
FFFFC0
003E00
003E00
003E00
003E00
003E00
003E00
ENDCHAR
STARTCHAR five
ENCODING 53
SWIDTH 400 0
DWIDTH 19 0
BBX 16 34 2 0
BITMAP
7FFE
7FFE
7FFE
7FFE
7FFE
F800
F800
F800
F800
F800
F8E0
FBF8
FFFC
FFFE
FFFE
FC7E
F83E
F83F
F83F
003F
003F
003F
003F
F83F
F83F
F83F
F83F
F83E
FC7E
FFFE
7FFC
3FFC
1FF8
0FE0
ENDCHAR
STARTCHAR six
ENCODING 54
SWIDTH 400 0
DWIDTH 19 0
BBX 16 34 2 0
BITMAP
0FE0
3FF8
7FFC
7FFE
FFFE
FC3E
F83F
F81F
F81F
F800
F800
F800
F9F0
FBFC
FFFE
FFFE
FFFE
FC3F
F83F
F83F
F83F
F83F
F83F
F83F
F83F
F83F
F83F
F83F
FC3E
FFFE
7FFE
7FFC
1FF8
0FE0
ENDCHAR
STARTCHAR seven
ENCODING 55
SWIDTH 400 0
DWIDTH 19 0
BBX 15 34 2 0
BITMAP
FFFE
FFFE
FFFE
FFFE
FFFE
003E
003E
007E
007C
007C
007C
00FC
00F8
00F8
01F8
01F0
01F0
01F0
03F0
03E0
03E0
07E0
07C0
07C0
07C0
0FC0
0F80
0F80
1F80
1F00
1F00
1F00
3F00
3E00
ENDCHAR
STARTCHAR eight
ENCODING 56
SWIDTH 400 0
DWIDTH 19 0
BBX 17 34 1 0
BITMAP
07F000
1FFC00
3FFE00
3FFF00
7FFF00
7E1F00
7C1F80
7C1F80
7C1F80
7C1F80
7C1F80
7C1F80
7C1F00
7E3F00
3FFE00
1FFC00
1FFC00
3FFE00
7FFF00
7E1F00
7C1F80
FC0F80
FC0F80
FC0F80
FC0F80
FC0F80
FC0F80
FC1F80
7E1F80
7FFF00
7FFF00
3FFE00
1FFC00
07F000
ENDCHAR
STARTCHAR nine
ENCODING 57
SWIDTH 400 0
DWIDTH 19 0
BBX 16 34 1 0
BITMAP
07F0
1FFC
3FFE
3FFE
7FFF
7E3F
7C1F
FC1F
FC1F
FC1F
FC1F
FC1F
FC1F
FC1F
FC1F
FC1F
7E3F
7FFF
7FFF
3FFF
1FDF
071F
001F
001F
001F
7C1F
7C1F
7C1F
7C3F
7FFF
3FFE
3FFE
1FFC
07F0
ENDCHAR
STARTCHAR colon
ENCODING 58
SWIDTH 188 0
DWIDTH 9 0
BBX 5 23 2 0
BITMAP
F8
F8
F8
F8
F8
00
00
00
00
00
00
00
00
00
00
00
00
00
F8
F8
F8
F8
F8
ENDCHAR
STARTCHAR semicolon
ENCODING 59
SWIDTH 188 0
DWIDTH 9 0
BBX 5 28 2 -5
BITMAP
F8
F8
F8
F8
F8
00
00
00
00
00
00
00
00
00
00
00
00
00
F8
F8
F8
F8
F8
38
70
70
E0
E0
ENDCHAR
STARTCHAR less
ENCODING 60
SWIDTH 400 0
DWIDTH 19 0
BBX 15 16 2 9
BITMAP
0002
001E
007E
01FE
0FF8
3FE0
FF80
FC00
F800
FF00
7FC0
1FF0
03FE
00FE
003E
0006
ENDCHAR
STARTCHAR equal
ENCODING 61
SWIDTH 400 0
DWIDTH 19 0
BBX 15 12 2 11
BITMAP
FFFE
FFFE
FFFE
FFFE
0000
0000
0000
0000
FFFE
FFFE
FFFE
FFFE
ENDCHAR
STARTCHAR greater
ENCODING 62
SWIDTH 400 0
DWIDTH 19 0
BBX 14 16 3 9
BITMAP
8000
E000
F800
FF00
7FC0
1FF0
03FC
00FC
007C
01FC
0FF8
3FE0
FF00
FC00
F000
8000
ENDCHAR
STARTCHAR question
ENCODING 63
SWIDTH 363 0
DWIDTH 17 0
BBX 15 34 1 0
BITMAP
0FE0
1FF8
3FFC
7FFC
7FFE
FC7E
F83E
F83E
F83E
F83E
F83E
F83E
007E
007C
00FC
00F8
01F8
03F0
03E0
07E0
07C0
07C0
0780
0780
0780
0000
0000
0000
0000
0F80
0F80
0F80
0F80
0F80
ENDCHAR
STARTCHAR at
ENCODING 64
SWIDTH 696 0
DWIDTH 33 0
BBX 31 38 1 -3
BITMAP
0007FE00
001FFF80
007FFFE0
01FFFFF0
03FC07F8
07E000F8
0FC0007C
0F80003C
1F00003E
1E079F1E
3E1FDF1E
3C1FFF1E
7C3FFF1E
7C3FFE1E
7C7E3E1E
787C1E1E
787C1E1E
F87C3E1E
F87C3E1E
F87C3E1E
F8783E3E
F8783E3C
F8783E3C
F87C7C78
F87FFFF8
F87FFFF0
787FBFE0
7C3F3FC0
7C0E1F00
3E000000
3E000000
1F000040
1FC001C0
0FF00FC0
07FFFFC0
03FFFF80
00FFFE00
001FF800
ENDCHAR
STARTCHAR A
ENCODING 65
SWIDTH 401 0
DWIDTH 19 0
BBX 18 34 1 0
BITMAP
07F000
07F000
07F800
0FF800
0FF800
0FF800
0F7800
0F7800
0F7C00
0F7C00
1F7C00
1F7C00
1F7C00
1E7C00
1E3E00
1E3E00
3E3E00
3E3E00
3E3E00
3E3E00
3C3E00
3C1F00
7C1F00
7FFF00
7FFF00
7FFF00
7FFF00
7FFF80
F80F80
F80F80
F80F80
F80F80
F80F80
F80FC0
ENDCHAR
STARTCHAR B
ENCODING 66
SWIDTH 404 0
DWIDTH 19 0
BBX 16 34 2 0
BITMAP
FFE0
FFF8
FFFC
FFFE
FFFE
F83F
F83F
F83F
F83F
F83F
F83F
F83F
F83E
F87E
FFFC
FFFC
FFF8
FFFC
FFFE
F83F
F81F
F81F
F81F
F81F
F81F
F81F
F81F
F81F
F83F
FFFF
FFFE
FFFE
FFFC
FFF0
ENDCHAR
STARTCHAR C
ENCODING 67
SWIDTH 383 0
DWIDTH 18 0
BBX 15 34 2 0
BITMAP
0FE0
3FF0
7FFC
7FFC
FFFE
FC7E
F83E
F83E
F83E
F83E
F83E
F83E
F800
F800
F800
F800
F800
F800
F800
F800
F800
F83E
F83E
F83E
F83E
F83E
F83E
F83E
FC7E
FFFE
7FFC
7FFC
3FF0
0FE0
ENDCHAR
STARTCHAR D
ENCODING 68
SWIDTH 406 0
DWIDTH 19 0
BBX 16 34 2 0
BITMAP
FFE0
FFF8
FFFC
FFFE
FFFE
F83F
F83F
F81F
F81F
F81F
F81F
F81F
F81F
F81F
F81F
F81F
F81F
F81F
F81F
F81F
F81F
F81F
F81F
F81F
F81F
F81F
F81F
F83F
F83F
FFFE
FFFE
FFFC
FFF8
FFE0
ENDCHAR
STARTCHAR E
ENCODING 69
SWIDTH 363 0
DWIDTH 17 0
BBX 14 34 2 0
BITMAP
FFFC
FFFC
FFFC
FFFC
FFFC
F800
F800
F800
F800
F800
F800
F800
F800
F800
FFF8
FFF8
FFF8
FFF8
FFF8
F800
F800
F800
F800
F800
F800
F800
F800
F800
F800
FFFC
FFFC
FFFC
FFFC
FFFC
ENDCHAR
STARTCHAR F
ENCODING 70
SWIDTH 344 0
DWIDTH 17 0
BBX 14 34 2 0
BITMAP
FFFC
FFFC
FFFC
FFFC
FFFC
F800
F800
F800
F800
F800
F800
F800
F800
F800
FFF0
FFF0
FFF0
FFF0
FFF0
F800
F800
F800
F800
F800
F800
F800
F800
F800
F800
F800
F800
F800
F800
F800
ENDCHAR
STARTCHAR G
ENCODING 71
SWIDTH 391 0
DWIDTH 19 0
BBX 15 34 2 0
BITMAP
0FE0
3FF8
7FFC
7FFC
FFFE
FC3E
F83E
F83E
F83E
F83E
F83E
F800
F800
F800
F800
F8FE
F8FE
F8FE
F8FE
F8FE
F83E
F83E
F83E
F83E
F83E
F83E
F83E
F83E
FC3E
FFFE
7FFC
7FFC
3FF8
0FE0
ENDCHAR
STARTCHAR H
ENCODING 72
SWIDTH 420 0
DWIDTH 20 0
BBX 16 34 2 0
BITMAP
F81F
F81F
F81F
F81F
F81F
F81F
F81F
F81F
F81F
F81F
F81F
F81F
F81F
F81F
FFFF
FFFF
FFFF
FFFF
FFFF
F81F
F81F
F81F
F81F
F81F
F81F
F81F
F81F
F81F
F81F
F81F
F81F
F81F
F81F
F81F
ENDCHAR
STARTCHAR I
ENCODING 73
SWIDTH 192 0
DWIDTH 9 0
BBX 5 34 2 0
BITMAP
F8
F8
F8
F8
F8
F8
F8
F8
F8
F8
F8
F8
F8
F8
F8
F8
F8
F8
F8
F8
F8
F8
F8
F8
F8
F8
F8
F8
F8
F8
F8
F8
F8
F8
ENDCHAR
STARTCHAR J
ENCODING 74
SWIDTH 265 0
DWIDTH 13 0
BBX 10 34 1 0
BITMAP
07C0
07C0
07C0
07C0
07C0
07C0
07C0
07C0
07C0
07C0
07C0
07C0
07C0
07C0
07C0
07C0
07C0
07C0
07C0
07C0
07C0
07C0
07C0
07C0
07C0
07C0
07C0
0FC0
0FC0
FF80
FF80
FF00
FE00
FC00
ENDCHAR
STARTCHAR K
ENCODING 75
SWIDTH 414 0
DWIDTH 20 0
BBX 17 34 2 0
BITMAP
F80F80
F81F80
F81F00
F83F00
F83E00
F87E00
F87C00
F87C00
F8F800
F8F800
F9F000
F9F000
FBE000
FBE000
FFE000
FFF000
FFF000
FFF000
FFF800
FFF800
FEF800
FCFC00
FCFC00
F87C00
F87C00
F87E00
F83E00
F83E00
F83F00
F83F00
F81F00
F81F80
F81F80
F80F80
ENDCHAR
STARTCHAR L
ENCODING 76
SWIDTH 344 0
DWIDTH 17 0
BBX 14 34 2 0
BITMAP
F800
F800
F800
F800
F800
F800
F800
F800
F800
F800
F800
F800
F800
F800
F800
F800
F800
F800
F800
F800
F800
F800
F800
F800
F800
F800
F800
F800
F800
FFFC
FFFC
FFFC
FFFC
FFFC
ENDCHAR
STARTCHAR M
ENCODING 77
SWIDTH 538 0
DWIDTH 26 0
BBX 22 34 2 0
BITMAP
FF03FC
FF03FC
FF03FC
FF03FC
FF03FC
FF03FC
FF07FC
FF87FC
FF87FC
FF87FC
FF877C
FF877C
FF877C
FF8F7C
FB8F7C
FBCF7C
FBCF7C
FBCE7C
FBCE7C
FBCE7C
FBDE7C
F9DE7C
F9FE7C
F9FE7C
F9FC7C
F9FC7C
F9FC7C
F8FC7C
F8FC7C
F8FC7C
F8F87C
F8F87C
F8F87C
F8F87C
ENDCHAR
STARTCHAR N
ENCODING 78
SWIDTH 427 0
DWIDTH 21 0
BBX 17 34 2 0
BITMAP
FE0F80
FE0F80
FE0F80
FE0F80
FF0F80
FF0F80
FF0F80
FF0F80
FF8F80
FF8F80
FF8F80
FF8F80
FBCF80
FBCF80
FBCF80
FBCF80
F9EF80
F9EF80
F9EF80
F9EF80
F8FF80
F8FF80
F8FF80
F8FF80
F87F80
F87F80
F87F80
F87F80
F83F80
F83F80
F83F80
F83F80
F81F80
F81F80
ENDCHAR
STARTCHAR O
ENCODING 79
SWIDTH 400 0
DWIDTH 19 0
BBX 16 34 2 0
BITMAP
0FE0
3FF8
7FFC
7FFE
FFFE
FC3E
F83E
F83F
F83F
F83F
F83F
F83F
F83F
F83F
F83F
F83F
F83F
F83F
F83F
F83F
F83F
F83F
F83F
F83F
F83F
F83F
F83F
F83E
FC3E
FFFE
7FFE
7FFC
3FF8
0FE0
ENDCHAR
STARTCHAR P
ENCODING 80
SWIDTH 386 0
DWIDTH 19 0
BBX 16 34 2 0
BITMAP
FFE0
FFF8
FFFC
FFFE
FFFE
F83E
F83E
F83F
F83F
F83F
F83F
F83F
F83F
F83F
F83E
FFFE
FFFE
FFFC
FFF8
FFE0
F800
F800
F800
F800
F800
F800
F800
F800
F800
F800
F800
F800
F800
F800
ENDCHAR
STARTCHAR Q
ENCODING 81
SWIDTH 400 0
DWIDTH 19 0
BBX 17 37 2 -3
BITMAP
0FE000
3FF800
7FFC00
7FFE00
FFFE00
FC3E00
F83E00
F83F00
F83F00
F83F00
F83F00
F83F00
F83F00
F83F00
F83F00
F83F00
F83F00
F83F00
F83F00
F83F00
F83F00
F83F00
F83F00
F83F00
F83F00
F83F00
F83F00
F83F00
FC3E00
FFFE00
7FFE00
7FFC00
3FFF80
0FFF80
001F80
000F80
000380
ENDCHAR
STARTCHAR R
ENCODING 82
SWIDTH 403 0
DWIDTH 19 0
BBX 16 34 2 0
BITMAP
FFE0
FFF8
FFFC
FFFE
FFFE
F83E
F83F
F83F
F83F
F83F
F83F
F83F
F83E
F83E
F87E
FFFC
FFF8
FFF8
FFFC
FFFE
F87E
F83E
F83F
F83F
F83F
F83F
F83F
F83F
F83F
F83F
F83F
F83F
F83F
F81F
ENDCHAR
STARTCHAR S
ENCODING 83
SWIDTH 372 0
DWIDTH 18 0
BBX 16 34 1 0
BITMAP
07E0
1FF8
3FFC
7FFE
7FFE
FC3E
FC1F
F81F
F81F
FC1F
FC00
7E00
7E00
3F00
3F80
1FC0
0FF0
07F8
03F8
01FC
00FE
007E
003E
003F
F83F
F83F
F83F
F83F
FC3E
7FFE
7FFE
3FFC
1FF8
0FE0
ENDCHAR
STARTCHAR T
ENCODING 84
SWIDTH 364 0
DWIDTH 17 0
BBX 16 34 1 0
BITMAP
FFFF
FFFF
FFFF
FFFF
FFFF
07C0
07C0
07C0
07C0
07C0
07C0
07C0
07C0
07C0
07C0
07C0
07C0
07C0
07C0
07C0
07C0
07C0
07C0
07C0
07C0
07C0
07C0
07C0
07C0
07C0
07C0
07C0
07C0
07C0
ENDCHAR
STARTCHAR U
ENCODING 85
SWIDTH 402 0
DWIDTH 19 0
BBX 16 34 2 0
BITMAP
F83F
F83F
F83F
F83F
F83F
F83F
F83F
F83F
F83F
F83F
F83F
F83F
F83F
F83F
F83F
F83F
F83F
F83F
F83F
F83F
F83F
F83F
F83F
F83F
F83F
F83F
F83E
F83E
FC3E
FFFE
7FFC
7FFC
1FF8
0FE0
ENDCHAR
STARTCHAR V
ENCODING 86
SWIDTH 382 0
DWIDTH 18 0
BBX 17 34 1 0
BITMAP
F80F80
F80F80
F80F00
F81F00
F81F00
FC1F00
7C1F00
7C1F00
7C1F00
7C1E00
7C1E00
7C3E00
7E3E00
3E3E00
3E3E00
3E3C00
3E3C00
3E3C00
3E7C00
3E7C00
1F7C00
1F7C00
1F7800
1F7800
1F7800
1F7800
0FF800
0FF800
0FF800
0FF000
0FF000
0FF000
0FF000
07F000
ENDCHAR
STARTCHAR W
ENCODING 87
SWIDTH 557 0
DWIDTH 27 0
BBX 25 34 1 0
BITMAP
F83F0F80
F83F0F80
F87F0F80
F87F0F80
F87F0F80
F87F0F00
F87F0F00
F87F0F00
7C7F0F00
7C7F0F00
7C7F9F00
7C7F9F00
7C779F00
7CF79F00
7CF79F00
7CF79E00
7CF79E00
7CF79E00
3CF79E00
3EF79E00
3EF39E00
3EE3DE00
3EE3FE00
3FE3FE00
3FE3FE00
3FE3FC00
3FE3FC00
3FE3FC00
1FE3FC00
1FE1FC00
1FE1FC00
1FC1FC00
1FC1FC00
1FC1FC00
ENDCHAR
STARTCHAR X
ENCODING 88
SWIDTH 406 0
DWIDTH 19 0
BBX 18 34 1 0
BITMAP
FC07C0
FC0F80
7C0F80
7C0F00
7E1F00
3E1F00
3E1E00
3F3E00
1F3E00
1F3C00
1FFC00
0FFC00
0FF800
07F800
07F800
07F000
03F000
07F000
07F000
07F800
0FF800
0FFC00
0F7C00
1F7C00
1F7E00
3E3E00
3E3E00
3E3F00
7C1F00
7C1F00
7C1F80
F80F80
F80F80
F80FC0
ENDCHAR
STARTCHAR Y
ENCODING 89
SWIDTH 394 0
DWIDTH 19 0
BBX 18 34 0 0
BITMAP
FC07C0
7C07C0
7E07C0
3E0F80
3E0F80
3F0F80
1F1F00
1F1F00
1F1F00
0F9E00
0FBE00
0FBE00
0FFC00
07FC00
07FC00
07F800
03F800
03F800
03F800
01F000
01F000
01F000
01F000
01F000
01F000
01F000
01F000
01F000
01F000
01F000
01F000
01F000
01F000
01F000
ENDCHAR
STARTCHAR Z
ENCODING 90
SWIDTH 362 0
DWIDTH 17 0
BBX 15 34 1 0
BITMAP
FFFE
FFFE
FFFE
FFFE
FFFE
007E
007E
007C
00FC
00F8
01F8
01F8
01F0
03F0
03E0
07E0
07E0
07C0
0FC0
0F80
1F80
1F80
1F00
3F00
3E00
7E00
7E00
7C00
FC00
FFFE
FFFE
FFFE
FFFE
FFFE
ENDCHAR
STARTCHAR bracketleft
ENCODING 91
SWIDTH 276 0
DWIDTH 13 0
BBX 9 39 3 -2
BITMAP
FF80
FF80
FF80
FF80
FF80
F800
F800
F800
F800
F800
F800
F800
F800
F800
F800
F800
F800
F800
F800
F800
F800
F800
F800
F800
F800
F800
F800
F800
F800
F800
F800
F800
F800
F800
FF80
FF80
FF80
FF80
FF80
ENDCHAR
STARTCHAR backslash
ENCODING 92
SWIDTH 389 0
DWIDTH 19 0
BBX 18 34 0 0
BITMAP
F80000
7C0000
7C0000
3C0000
3E0000
1E0000
1F0000
1F0000
0F0000
0F8000
078000
078000
07C000
03C000
03E000
03E000
01E000
01F000
00F000
00F800
00F800
007800
007C00
003C00
003E00
003E00
001E00
001F00
000F00
000F00
000F80
000780
0007C0
0007C0
ENDCHAR
STARTCHAR bracketright
ENCODING 93
SWIDTH 276 0
DWIDTH 13 0
BBX 8 39 2 -2
BITMAP
FF
FF
FF
FF
FF
1F
1F
1F
1F
1F
1F
1F
1F
1F
1F
1F
1F
1F
1F
1F
1F
1F
1F
1F
1F
1F
1F
1F
1F
1F
1F
1F
1F
1F
FF
FF
FF
FF
FF
ENDCHAR
STARTCHAR asciicircum
ENCODING 94
SWIDTH 400 0
DWIDTH 19 0
BBX 17 13 1 21
BITMAP
01E000
03E000
07F000
07F000
0FF800
0F7800
1F7C00
1E3C00
3E3E00
3C1E00
7C0F00
780F00
F80780
ENDCHAR
STARTCHAR underscore
ENCODING 95
SWIDTH 300 0
DWIDTH 14 0
BBX 14 4 0 -4
BITMAP
FFFC
FFFC
FFFC
FFFC
ENDCHAR
STARTCHAR grave
ENCODING 96
SWIDTH 500 0
DWIDTH 24 0
BBX 9 6 6 36
BITMAP
FC00
7C00
3E00
1E00
0F00
0F80
ENDCHAR
STARTCHAR a
ENCODING 97
SWIDTH 401 0
DWIDTH 19 0
BBX 18 34 1 0
BITMAP
07F000
07F000
07F800
0FF800
0FF800
0FF800
0F7800
0F7800
0F7C00
0F7C00
1F7C00
1F7C00
1F7C00
1E7C00
1E3E00
1E3E00
3E3E00
3E3E00
3E3E00
3E3E00
3C3E00
3C1F00
7C1F00
7FFF00
7FFF00
7FFF00
7FFF00
7FFF80
F80F80
F80F80
F80F80
F80F80
F80F80
F80FC0
ENDCHAR
STARTCHAR b
ENCODING 98
SWIDTH 404 0
DWIDTH 19 0
BBX 16 34 2 0
BITMAP
FFE0
FFF8
FFFC
FFFE
FFFE
F83F
F83F
F83F
F83F
F83F
F83F
F83F
F83E
F87E
FFFC
FFFC
FFF8
FFFC
FFFE
F83F
F81F
F81F
F81F
F81F
F81F
F81F
F81F
F81F
F83F
FFFF
FFFE
FFFE
FFFC
FFF0
ENDCHAR
STARTCHAR c
ENCODING 99
SWIDTH 383 0
DWIDTH 18 0
BBX 15 34 2 0
BITMAP
0FE0
3FF0
7FFC
7FFC
FFFE
FC7E
F83E
F83E
F83E
F83E
F83E
F83E
F800
F800
F800
F800
F800
F800
F800
F800
F800
F83E
F83E
F83E
F83E
F83E
F83E
F83E
FC7E
FFFE
7FFC
7FFC
3FF0
0FE0
ENDCHAR
STARTCHAR d
ENCODING 100
SWIDTH 406 0
DWIDTH 19 0
BBX 16 34 2 0
BITMAP
FFE0
FFF8
FFFC
FFFE
FFFE
F83F
F83F
F81F
F81F
F81F
F81F
F81F
F81F
F81F
F81F
F81F
F81F
F81F
F81F
F81F
F81F
F81F
F81F
F81F
F81F
F81F
F81F
F83F
F83F
FFFE
FFFE
FFFC
FFF8
FFE0
ENDCHAR
STARTCHAR e
ENCODING 101
SWIDTH 363 0
DWIDTH 17 0
BBX 14 34 2 0
BITMAP
FFFC
FFFC
FFFC
FFFC
FFFC
F800
F800
F800
F800
F800
F800
F800
F800
F800
FFF8
FFF8
FFF8
FFF8
FFF8
F800
F800
F800
F800
F800
F800
F800
F800
F800
F800
FFFC
FFFC
FFFC
FFFC
FFFC
ENDCHAR
STARTCHAR f
ENCODING 102
SWIDTH 344 0
DWIDTH 17 0
BBX 14 34 2 0
BITMAP
FFFC
FFFC
FFFC
FFFC
FFFC
F800
F800
F800
F800
F800
F800
F800
F800
F800
FFF0
FFF0
FFF0
FFF0
FFF0
F800
F800
F800
F800
F800
F800
F800
F800
F800
F800
F800
F800
F800
F800
F800
ENDCHAR
STARTCHAR g
ENCODING 103
SWIDTH 391 0
DWIDTH 19 0
BBX 15 34 2 0
BITMAP
0FE0
3FF8
7FFC
7FFC
FFFE
FC3E
F83E
F83E
F83E
F83E
F83E
F800
F800
F800
F800
F8FE
F8FE
F8FE
F8FE
F8FE
F83E
F83E
F83E
F83E
F83E
F83E
F83E
F83E
FC3E
FFFE
7FFC
7FFC
3FF8
0FE0
ENDCHAR
STARTCHAR h
ENCODING 104
SWIDTH 420 0
DWIDTH 20 0
BBX 16 34 2 0
BITMAP
F81F
F81F
F81F
F81F
F81F
F81F
F81F
F81F
F81F
F81F
F81F
F81F
F81F
F81F
FFFF
FFFF
FFFF
FFFF
FFFF
F81F
F81F
F81F
F81F
F81F
F81F
F81F
F81F
F81F
F81F
F81F
F81F
F81F
F81F
F81F
ENDCHAR
STARTCHAR i
ENCODING 105
SWIDTH 192 0
DWIDTH 9 0
BBX 5 34 2 0
BITMAP
F8
F8
F8
F8
F8
F8
F8
F8
F8
F8
F8
F8
F8
F8
F8
F8
F8
F8
F8
F8
F8
F8
F8
F8
F8
F8
F8
F8
F8
F8
F8
F8
F8
F8
ENDCHAR
STARTCHAR j
ENCODING 106
SWIDTH 265 0
DWIDTH 13 0
BBX 10 34 1 0
BITMAP
07C0
07C0
07C0
07C0
07C0
07C0
07C0
07C0
07C0
07C0
07C0
07C0
07C0
07C0
07C0
07C0
07C0
07C0
07C0
07C0
07C0
07C0
07C0
07C0
07C0
07C0
07C0
0FC0
0FC0
FF80
FF80
FF00
FE00
FC00
ENDCHAR
STARTCHAR k
ENCODING 107
SWIDTH 414 0
DWIDTH 20 0
BBX 17 34 2 0
BITMAP
F80F80
F81F80
F81F00
F83F00
F83E00
F87E00
F87C00
F87C00
F8F800
F8F800
F9F000
F9F000
FBE000
FBE000
FFE000
FFF000
FFF000
FFF000
FFF800
FFF800
FEF800
FCFC00
FCFC00
F87C00
F87C00
F87E00
F83E00
F83E00
F83F00
F83F00
F81F00
F81F80
F81F80
F80F80
ENDCHAR
STARTCHAR l
ENCODING 108
SWIDTH 344 0
DWIDTH 17 0
BBX 14 34 2 0
BITMAP
F800
F800
F800
F800
F800
F800
F800
F800
F800
F800
F800
F800
F800
F800
F800
F800
F800
F800
F800
F800
F800
F800
F800
F800
F800
F800
F800
F800
F800
FFFC
FFFC
FFFC
FFFC
FFFC
ENDCHAR
STARTCHAR m
ENCODING 109
SWIDTH 538 0
DWIDTH 26 0
BBX 22 34 2 0
BITMAP
FF03FC
FF03FC
FF03FC
FF03FC
FF03FC
FF03FC
FF07FC
FF87FC
FF87FC
FF87FC
FF877C
FF877C
FF877C
FF8F7C
FB8F7C
FBCF7C
FBCF7C
FBCE7C
FBCE7C
FBCE7C
FBDE7C
F9DE7C
F9FE7C
F9FE7C
F9FC7C
F9FC7C
F9FC7C
F8FC7C
F8FC7C
F8FC7C
F8F87C
F8F87C
F8F87C
F8F87C
ENDCHAR
STARTCHAR n
ENCODING 110
SWIDTH 427 0
DWIDTH 21 0
BBX 17 34 2 0
BITMAP
FE0F80
FE0F80
FE0F80
FE0F80
FF0F80
FF0F80
FF0F80
FF0F80
FF8F80
FF8F80
FF8F80
FF8F80
FBCF80
FBCF80
FBCF80
FBCF80
F9EF80
F9EF80
F9EF80
F9EF80
F8FF80
F8FF80
F8FF80
F8FF80
F87F80
F87F80
F87F80
F87F80
F83F80
F83F80
F83F80
F83F80
F81F80
F81F80
ENDCHAR
STARTCHAR o
ENCODING 111
SWIDTH 400 0
DWIDTH 19 0
BBX 16 34 2 0
BITMAP
0FE0
3FF8
7FFC
7FFE
FFFE
FC3E
F83E
F83F
F83F
F83F
F83F
F83F
F83F
F83F
F83F
F83F
F83F
F83F
F83F
F83F
F83F
F83F
F83F
F83F
F83F
F83F
F83F
F83E
FC3E
FFFE
7FFE
7FFC
3FF8
0FE0
ENDCHAR
STARTCHAR p
ENCODING 112
SWIDTH 386 0
DWIDTH 19 0
BBX 16 34 2 0
BITMAP
FFE0
FFF8
FFFC
FFFE
FFFE
F83E
F83E
F83F
F83F
F83F
F83F
F83F
F83F
F83F
F83E
FFFE
FFFE
FFFC
FFF8
FFE0
F800
F800
F800
F800
F800
F800
F800
F800
F800
F800
F800
F800
F800
F800
ENDCHAR
STARTCHAR q
ENCODING 113
SWIDTH 400 0
DWIDTH 19 0
BBX 17 37 2 -3
BITMAP
0FE000
3FF800
7FFC00
7FFE00
FFFE00
FC3E00
F83E00
F83F00
F83F00
F83F00
F83F00
F83F00
F83F00
F83F00
F83F00
F83F00
F83F00
F83F00
F83F00
F83F00
F83F00
F83F00
F83F00
F83F00
F83F00
F83F00
F83F00
F83F00
FC3E00
FFFE00
7FFE00
7FFC00
3FFF80
0FFF80
001F80
000F80
000380
ENDCHAR
STARTCHAR r
ENCODING 114
SWIDTH 403 0
DWIDTH 19 0
BBX 16 34 2 0
BITMAP
FFE0
FFF8
FFFC
FFFE
FFFE
F83E
F83F
F83F
F83F
F83F
F83F
F83F
F83E
F83E
F87E
FFFC
FFF8
FFF8
FFFC
FFFE
F87E
F83E
F83F
F83F
F83F
F83F
F83F
F83F
F83F
F83F
F83F
F83F
F83F
F81F
ENDCHAR
STARTCHAR s
ENCODING 115
SWIDTH 372 0
DWIDTH 18 0
BBX 16 34 1 0
BITMAP
07E0
1FF8
3FFC
7FFE
7FFE
FC3E
FC1F
F81F
F81F
FC1F
FC00
7E00
7E00
3F00
3F80
1FC0
0FF0
07F8
03F8
01FC
00FE
007E
003E
003F
F83F
F83F
F83F
F83F
FC3E
7FFE
7FFE
3FFC
1FF8
0FE0
ENDCHAR
STARTCHAR t
ENCODING 116
SWIDTH 364 0
DWIDTH 17 0
BBX 16 34 1 0
BITMAP
FFFF
FFFF
FFFF
FFFF
FFFF
07C0
07C0
07C0
07C0
07C0
07C0
07C0
07C0
07C0
07C0
07C0
07C0
07C0
07C0
07C0
07C0
07C0
07C0
07C0
07C0
07C0
07C0
07C0
07C0
07C0
07C0
07C0
07C0
07C0
ENDCHAR
STARTCHAR u
ENCODING 117
SWIDTH 402 0
DWIDTH 19 0
BBX 16 34 2 0
BITMAP
F83F
F83F
F83F
F83F
F83F
F83F
F83F
F83F
F83F
F83F
F83F
F83F
F83F
F83F
F83F
F83F
F83F
F83F
F83F
F83F
F83F
F83F
F83F
F83F
F83F
F83F
F83E
F83E
FC3E
FFFE
7FFC
7FFC
1FF8
0FE0
ENDCHAR
STARTCHAR v
ENCODING 118
SWIDTH 382 0
DWIDTH 18 0
BBX 17 34 1 0
BITMAP
F80F80
F80F80
F80F00
F81F00
F81F00
FC1F00
7C1F00
7C1F00
7C1F00
7C1E00
7C1E00
7C3E00
7E3E00
3E3E00
3E3E00
3E3C00
3E3C00
3E3C00
3E7C00
3E7C00
1F7C00
1F7C00
1F7800
1F7800
1F7800
1F7800
0FF800
0FF800
0FF800
0FF000
0FF000
0FF000
0FF000
07F000
ENDCHAR
STARTCHAR w
ENCODING 119
SWIDTH 557 0
DWIDTH 27 0
BBX 25 34 1 0
BITMAP
F83F0F80
F83F0F80
F87F0F80
F87F0F80
F87F0F80
F87F0F00
F87F0F00
F87F0F00
7C7F0F00
7C7F0F00
7C7F9F00
7C7F9F00
7C779F00
7CF79F00
7CF79F00
7CF79E00
7CF79E00
7CF79E00
3CF79E00
3EF79E00
3EF39E00
3EE3DE00
3EE3FE00
3FE3FE00
3FE3FE00
3FE3FC00
3FE3FC00
3FE3FC00
1FE3FC00
1FE1FC00
1FE1FC00
1FC1FC00
1FC1FC00
1FC1FC00
ENDCHAR
STARTCHAR x
ENCODING 120
SWIDTH 406 0
DWIDTH 19 0
BBX 18 34 1 0
BITMAP
FC07C0
FC0F80
7C0F80
7C0F00
7E1F00
3E1F00
3E1E00
3F3E00
1F3E00
1F3C00
1FFC00
0FFC00
0FF800
07F800
07F800
07F000
03F000
07F000
07F000
07F800
0FF800
0FFC00
0F7C00
1F7C00
1F7E00
3E3E00
3E3E00
3E3F00
7C1F00
7C1F00
7C1F80
F80F80
F80F80
F80FC0
ENDCHAR
STARTCHAR y
ENCODING 121
SWIDTH 394 0
DWIDTH 19 0
BBX 18 34 0 0
BITMAP
FC07C0
7C07C0
7E07C0
3E0F80
3E0F80
3F0F80
1F1F00
1F1F00
1F1F00
0F9E00
0FBE00
0FBE00
0FFC00
07FC00
07FC00
07F800
03F800
03F800
03F800
01F000
01F000
01F000
01F000
01F000
01F000
01F000
01F000
01F000
01F000
01F000
01F000
01F000
01F000
01F000
ENDCHAR
STARTCHAR z
ENCODING 122
SWIDTH 362 0
DWIDTH 17 0
BBX 15 34 1 0
BITMAP
FFFE
FFFE
FFFE
FFFE
FFFE
007E
007E
007C
00FC
00F8
01F8
01F8
01F0
03F0
03E0
07E0
07E0
07C0
0FC0
0F80
1F80
1F80
1F00
3F00
3E00
7E00
7E00
7C00
FC00
FFFE
FFFE
FFFE
FFFE
FFFE
ENDCHAR
STARTCHAR braceleft
ENCODING 123
SWIDTH 276 0
DWIDTH 13 0
BBX 11 39 1 -2
BITMAP
03E0
07E0
0FE0
1FE0
1FE0
1F80
1F00
1F00
1F00
1F00
1F00
1F00
1F00
1F00
1F00
1F00
3F00
FE00
FE00
F800
FC00
FE00
3F00
1F00
1F00
1F00
1F00
1F00
1F00
1F00
1F00
1F00
1F00
1F00
1FE0
1FE0
0FE0
0FE0
03E0
ENDCHAR
STARTCHAR bar
ENCODING 124
SWIDTH 500 0
DWIDTH 24 0
BBX 4 48 10 -10
BITMAP
F0
F0
F0
F0
F0
F0
F0
F0
F0
F0
F0
F0
F0
F0
F0
F0
F0
F0
F0
F0
F0
F0
F0
F0
F0
F0
F0
F0
F0
F0
F0
F0
F0
F0
F0
F0
F0
F0
F0
F0
F0
F0
F0
F0
F0
F0
F0
F0
ENDCHAR
STARTCHAR braceright
ENCODING 125
SWIDTH 276 0
DWIDTH 13 0
BBX 11 39 1 -2
BITMAP
F800
FE00
FE00
FF00
FF00
1F00
1F00
1F00
0F00
0F00
0F00
0F00
0F00
0F00
0F00
0F00
0F80
0FE0
07E0
03E0
07E0
0FE0
0F80
0F00
0F00
0F00
0F00
0F00
0F00
0F00
0F00
1F00
1F00
1F00
FF00
FF00
FF00
FE00
F800
ENDCHAR
STARTCHAR asciitilde
ENCODING 126
SWIDTH 400 0
DWIDTH 19 0
BBX 18 7 1 13
BITMAP
1E0300
3F8380
7FC7C0
FFFF80
F1FF00
E0FE00
603C00
ENDCHAR
STARTCHAR uni00A0
ENCODING 160
SWIDTH 160 0
DWIDTH 8 0
BBX 1 1 0 0
BITMAP
00
ENDCHAR
STARTCHAR exclamdown
ENCODING 161
SWIDTH 210 0
DWIDTH 10 0
BBX 6 34 2 0
BITMAP
FC
FC
FC
FC
FC
00
00
00
00
78
78
78
78
78
78
78
78
7C
FC
FC
FC
FC
FC
FC
FC
FC
FC
FC
FC
FC
FC
FC
FC
FC
ENDCHAR
STARTCHAR cent
ENCODING 162
SWIDTH 400 0
DWIDTH 19 0
BBX 16 35 2 -1
BITMAP
03C0
03C0
03C0
07E0
1FF8
3FFC
7FFC
7FFE
FC3E
FC3E
F81F
F81F
F81F
F800
F800
F800
F800
F800
F800
F800
F800
F81F
F81F
F81F
F81F
FC3E
FC3E
7FFE
7FFC
3FFC
1FF0
03C0
03C0
03C0
03C0
ENDCHAR
STARTCHAR sterling
ENCODING 163
SWIDTH 400 0
DWIDTH 19 0
BBX 16 34 2 0
BITMAP
07E0
1FF8
3FFC
7FFE
7FFE
FC3E
FC1F
F81F
F81F
FC1F
FC00
7C00
7C00
7E00
3E00
3E00
1F00
FFFC
FFFC
FFFC
FFFC
0F80
0F80
0F80
0F80
0F00
1F00
3E00
7C00
FFFE
FFFE
FFFE
FFFE
FFFE
ENDCHAR
STARTCHAR currency
ENCODING 164
SWIDTH 400 0
DWIDTH 19 0
BBX 17 17 1 9
BITMAP
200200
700700
FBEF80
7FFF00
3FFE00
1FFC00
1E3E00
3C1E00
3C1E00
3C1E00
1E3E00
1FFC00
3FFE00
7FFF00
FBEF80
700700
200200
ENDCHAR
STARTCHAR yen
ENCODING 165
SWIDTH 400 0
DWIDTH 19 0
BBX 18 34 1 0
BITMAP
F80FC0
FC0F80
FC0F80
7C0F80
7C1F00
7E1F00
3E1F00
3E3E00
3F3E00
1F3E00
1F3C00
1F7C00
0FFC00
0FF800
0FF800
0FF800
07F000
07F000
07F000
3FFF00
3FFF00
3FFF00
03E000
03E000
03E000
3FFF00
3FFF00
3FFF00
03E000
03E000
03E000
03E000
03E000
03E000
ENDCHAR
STARTCHAR brokenbar
ENCODING 166
SWIDTH 500 0
DWIDTH 24 0
BBX 4 48 10 -10
BITMAP
F0
F0
F0
F0
F0
F0
F0
F0
F0
F0
F0
F0
F0
F0
F0
F0
F0
F0
F0
00
00
00
00
00
00
00
00
00
00
F0
F0
F0
F0
F0
F0
F0
F0
F0
F0
F0
F0
F0
F0
F0
F0
F0
F0
F0
ENDCHAR
STARTCHAR section
ENCODING 167
SWIDTH 400 0
DWIDTH 19 0
BBX 17 40 1 -6
BITMAP
07F000
1FFC00
3FFE00
3FFF00
7FFF00
7E1F00
7C1F80
7C0F80
7C0F80
7C0000
7F0000
7FC000
3FF000
1FFC00
1FFE00
3FFF00
7E7F80
7C1F80
F80F80
F80F80
F80F80
FC0F80
FC1F80
7F3F00
7FFE00
3FFC00
1FFC00
07FE00
00FF00
003F00
001F00
7C1F80
7C1F80
7C1F80
7E3F00
7FFF00
3FFF00
3FFE00
1FFC00
03E000
ENDCHAR
STARTCHAR dieresis
ENCODING 168
SWIDTH 500 0
DWIDTH 24 0
BBX 12 5 6 36
BITMAP
F9F0
F9F0
F9F0
F9F0
F9F0
ENDCHAR
STARTCHAR copyright
ENCODING 169
SWIDTH 738 0
DWIDTH 35 0
BBX 33 34 1 0
BITMAP
000FF80000
003FFF0000
00FFFFC000
03F80FE000
07C001F000
0F80007800
1F03E03C00
1E0FF81E00
3C0FF81E00
381E3C0F00
781E3C0700
701E3C0780
701E3C0780
F01E3C0380
F01E000380
F01E000380
E01E000380
E01E000380
F01E000380
F01E3C0380
F01E3C0380
701E3C0780
701E3C0780
781E3C0700
380FF80F00
3C0FF81E00
1E03E01E00
1F00003C00
0F80007800
07C001F000
03F80FE000
00FFFFC000
003FFF0000
000FF80000
ENDCHAR
STARTCHAR ordfeminine
ENCODING 170
SWIDTH 280 0
DWIDTH 13 0
BBX 11 24 1 11
BITMAP
1F00
3FC0
7FC0
79C0
71E0
01E0
01E0
0FE0
3FE0
7FE0
79E0
71E0
F1E0
F1E0
71E0
7FE0
7EE0
3CE0
0000
0000
0000
FFE0
FFE0
FFE0
ENDCHAR
STARTCHAR guillemotleft
ENCODING 171
SWIDTH 336 0
DWIDTH 16 0
BBX 14 11 1 11
BITMAP
1E3C
3C7C
3C78
78F8
F9F0
F9F0
F8F0
7CF8
3C78
3C7C
1E3C
ENDCHAR
STARTCHAR logicalnot
ENCODING 172
SWIDTH 400 0
DWIDTH 19 0
BBX 17 10 1 9
BITMAP
FFFF80
FFFF80
FFFF80
FFFF80
000780
000780
000780
000780
000780
000780
ENDCHAR
STARTCHAR uni00AD
ENCODING 173
SWIDTH 270 0
DWIDTH 13 0
BBX 11 5 1 14
BITMAP
FFE0
FFE0
FFE0
FFE0
FFE0
ENDCHAR
STARTCHAR registered
ENCODING 174
SWIDTH 738 0
DWIDTH 35 0
BBX 33 34 1 0
BITMAP
000FF80000
003FFF0000
00FFFFC000
03F80FE000
07C001F000
0F80007800
1F00003C00
1E1FF01E00
3C1FF81E00
381FFC0F00
781E3C0700
701E1C0780
701E1C0780
F01E1C0380
F01E1C0380
F01E3C0380
E01FF80380
E01FF00380
F01FF80380
F01E3C0380
F01E1C0380
701E1C0780
701E1C0780
781E1C0700
381E1C0F00
3C1E1C1E00
1E1E1E1E00
1F00003C00
0F80007800
07C001F000
03F80FE000
00FFFFC000
003FFF0000
000FF80000
ENDCHAR
STARTCHAR macron
ENCODING 175
SWIDTH 500 0
DWIDTH 24 0
BBX 12 4 6 36
BITMAP
FFF0
FFF0
FFF0
FFF0
ENDCHAR
STARTCHAR degree
ENCODING 176
SWIDTH 400 0
DWIDTH 19 0
BBX 13 12 3 22
BITMAP
0F80
1FE0
3FF0
7FF0
78F8
F078
7078
78F8
7FF0
3FF0
1FE0
0F80
ENDCHAR
STARTCHAR plusminus
ENCODING 177
SWIDTH 400 0
DWIDTH 19 0
BBX 15 18 2 8
BITMAP
0380
0380
0380
0380
0380
FFFE
FFFE
FFFE
FFFE
0380
0380
0380
0380
0380
FFFE
FFFE
FFFE
FFFE
ENDCHAR
STARTCHAR uni00B2
ENCODING 178
SWIDTH 282 0
DWIDTH 14 0
BBX 10 21 2 17
BITMAP
3E00
7F80
FF80
E3C0
E3C0
E3C0
E3C0
0380
0380
0700
0F00
1E00
3C00
7800
7000
F000
E000
E000
FFC0
FFC0
FFC0
ENDCHAR
STARTCHAR uni00B3
ENCODING 179
SWIDTH 282 0
DWIDTH 14 0
BBX 10 21 2 17
BITMAP
3E00
7F80
FF80
E380
E3C0
E3C0
03C0
0380
1F80
1E00
1F80
0380
0380
03C0
E3C0
E3C0
E3C0
E380
FF80
7F00
3E00
ENDCHAR
STARTCHAR acute
ENCODING 180
SWIDTH 500 0
DWIDTH 24 0
BBX 9 6 9 36
BITMAP
1F80
1F00
3E00
3C00
7800
F800
ENDCHAR
STARTCHAR uni00B5
ENCODING 181
SWIDTH 405 0
DWIDTH 19 0
BBX 16 32 2 -8
BITMAP
F81F
F81F
F81F
F81F
F81F
F81F
F81F
F81F
F81F
F81F
F81F
F81F
F81F
F81F
F81F
F81F
F83F
F83F
FC7F
FFFF
FFFF
FFFF
FFDF
FF9F
F800
F800
F800
F800
F800
F800
F800
F800
ENDCHAR
STARTCHAR paragraph
ENCODING 182
SWIDTH 449 0
DWIDTH 22 0
BBX 18 38 1 -4
BITMAP
03FFC0
0FFFC0
3FFFC0
3FFFC0
7FE3C0
7FE3C0
FFE3C0
FFE3C0
FFE3C0
FFE3C0
FFE3C0
FFE3C0
FFE3C0
7FE3C0
7FE3C0
7FE3C0
3FE3C0
1FE3C0
0FE3C0
01E3C0
01E3C0
01E3C0
01E3C0
01E3C0
01E3C0
01E3C0
01E3C0
01E3C0
01E3C0
01E3C0
01E3C0
01E3C0
01E3C0
01E3C0
01E3C0
01E3C0
01E3C0
01E3C0
ENDCHAR
STARTCHAR periodcentered
ENCODING 183
SWIDTH 188 0
DWIDTH 9 0
BBX 5 5 2 14
BITMAP
F8
F8
F8
F8
F8
ENDCHAR
STARTCHAR cedilla
ENCODING 184
SWIDTH 500 0
DWIDTH 24 0
BBX 10 8 7 -7
BITMAP
0C00
0C00
0F00
0380
03C0
F3C0
FF80
3F00
ENDCHAR
STARTCHAR uni00B9
ENCODING 185
SWIDTH 282 0
DWIDTH 14 0
BBX 7 21 3 17
BITMAP
0E
0E
3E
FE
FE
1E
1E
1E
1E
1E
1E
1E
1E
1E
1E
1E
1E
1E
1E
1E
1E
ENDCHAR
STARTCHAR ordmasculine
ENCODING 186
SWIDTH 282 0
DWIDTH 14 0
BBX 10 24 2 11
BITMAP
3E00
7F80
FF80
E3C0
E3C0
E3C0
E3C0
E3C0
E3C0
E3C0
E3C0
E3C0
E3C0
E3C0
E3C0
FF80
7F80
3E00
0000
0000
0000
FFC0
FFC0
FFC0
ENDCHAR
STARTCHAR guillemotright
ENCODING 187
SWIDTH 335 0
DWIDTH 16 0
BBX 14 11 1 11
BITMAP
F1E0
78F0
78F0
3C78
3E7C
3E3C
3E7C
7C78
78F0
78F0
F1E0
ENDCHAR
STARTCHAR onequarter
ENCODING 188
SWIDTH 653 0
DWIDTH 31 0
BBX 27 34 3 0
BITMAP
0E007800
0E007000
3E007000
FE00F000
FE00E000
1E01E000
1E01C000
1E01C000
1E03C000
1E038000
1E078000
1E070000
1E0703C0
1E0F03C0
1E0E07C0
1E0E07C0
1E1E0FC0
1E1C0FC0
1E3C1FC0
1E381FC0
1E381FC0
00783BC0
00703BC0
00F073C0
00E073C0
00E073C0
01E0E3C0
01C0FFE0
01C0FFE0
03C0FFE0
038003C0
078003C0
070003C0
0F0003C0
ENDCHAR
STARTCHAR onehalf
ENCODING 189
SWIDTH 653 0
DWIDTH 31 0
BBX 27 34 3 0
BITMAP
0E007800
0E007000
3E007000
FE00F000
FE00E000
1E01E000
1E01C000
1E01C000
1E03C000
1E038000
1E078000
1E070000
1E071F00
1E0F3F80
1E0E7FC0
1E0E71C0
1E1E71E0
1E1C71E0
1E3C71E0
1E3801C0
1E3801C0
007803C0
00700780
00F00F00
00E01E00
00E01E00
01E03C00
01C07800
01C07000
03C07000
03807000
07807FC0
07007FC0
0F007FC0
ENDCHAR
STARTCHAR threequarters
ENCODING 190
SWIDTH 653 0
DWIDTH 31 0
BBX 28 34 2 0
BITMAP
3E003C00
7F003800
FF803800
E3807800
E3C07000
E3C0F000
03C0E000
03C0E000
0381E000
1F81C000
1E03C000
1F838000
038381E0
038781E0
03C703E0
E3C703E0
E3CF07E0
E3CE07E0
E39E0FE0
FF9C0FE0
7F1C0FE0
3E3C1DE0
00381DE0
007839E0
007039E0
007039E0
00F071E0
00E07FF0
00E07FF0
01E07FF0
01C001E0
03C001E0
038001E0
078001E0
ENDCHAR
STARTCHAR questiondown
ENCODING 191
SWIDTH 363 0
DWIDTH 17 0
BBX 16 34 1 0
BITMAP
03E0
03E0
03E0
03E0
03E0
0000
0000
0000
0000
03E0
03E0
03E0
03E0
07C0
07C0
0FC0
0F80
1F00
3F00
3E00
7E00
7C00
FC1F
FC1F
F81F
F81F
F83E
F83E
FC3E
7FFE
7FFC
3FFC
1FF8
0FE0
ENDCHAR
STARTCHAR Agrave
ENCODING 192
SWIDTH 401 0
DWIDTH 19 0
BBX 18 42 1 0
BITMAP
3F0000
0F8000
07C000
07C000
03E000
01F000
000000
000000
07F000
07F000
07F800
0FF800
0FF800
0FF800
0F7800
0F7800
0F7C00
0F7C00
1F7C00
1F7C00
1F7C00
1E7C00
1E3E00
1E3E00
3E3E00
3E3E00
3E3E00
3E3E00
3C3E00
3C1F00
7C1F00
7FFF00
7FFF00
7FFF00
7FFF00
7FFF80
F80F80
F80F80
F80F80
F80F80
F80F80
F80FC0
ENDCHAR
STARTCHAR Aacute
ENCODING 193
SWIDTH 401 0
DWIDTH 19 0
BBX 18 42 1 0
BITMAP
007E00
00FC00
00F800
01F000
01E000
03C000
000000
000000
07F000
07F000
07F800
0FF800
0FF800
0FF800
0F7800
0F7800
0F7C00
0F7C00
1F7C00
1F7C00
1F7C00
1E7C00
1E3E00
1E3E00
3E3E00
3E3E00
3E3E00
3E3E00
3C3E00
3C1F00
7C1F00
7FFF00
7FFF00
7FFF00
7FFF00
7FFF80
F80F80
F80F80
F80F80
F80F80
F80F80
F80FC0
ENDCHAR
STARTCHAR Acircumflex
ENCODING 194
SWIDTH 401 0
DWIDTH 19 0
BBX 18 42 1 0
BITMAP
03E000
07F000
07F800
0FF800
1F3C00
3E1E00
000000
000000
07F000
07F000
07F800
0FF800
0FF800
0FF800
0F7800
0F7800
0F7C00
0F7C00
1F7C00
1F7C00
1F7C00
1E7C00
1E3E00
1E3E00
3E3E00
3E3E00
3E3E00
3E3E00
3C3E00
3C1F00
7C1F00
7FFF00
7FFF00
7FFF00
7FFF00
7FFF80
F80F80
F80F80
F80F80
F80F80
F80F80
F80FC0
ENDCHAR
STARTCHAR Atilde
ENCODING 195
SWIDTH 401 0
DWIDTH 19 0
BBX 18 41 1 0
BITMAP
078E00
1FFE00
1FFC00
3FFC00
18F800
000000
000000
07F000
07F000
07F800
0FF800
0FF800
0FF800
0F7800
0F7800
0F7C00
0F7C00
1F7C00
1F7C00
1F7C00
1E7C00
1E3E00
1E3E00
3E3E00
3E3E00
3E3E00
3E3E00
3C3E00
3C1F00
7C1F00
7FFF00
7FFF00
7FFF00
7FFF00
7FFF80
F80F80
F80F80
F80F80
F80F80
F80F80
F80FC0
ENDCHAR
STARTCHAR Adieresis
ENCODING 196
SWIDTH 401 0
DWIDTH 19 0
BBX 18 41 1 0
BITMAP
1E3E00
1E3E00
1E3E00
1E3E00
1E3E00
000000
000000
07F000
07F000
07F800
0FF800
0FF800
0FF800
0F7800
0F7800
0F7C00
0F7C00
1F7C00
1F7C00
1F7C00
1E7C00
1E3E00
1E3E00
3E3E00
3E3E00
3E3E00
3E3E00
3C3E00
3C1F00
7C1F00
7FFF00
7FFF00
7FFF00
7FFF00
7FFF80
F80F80
F80F80
F80F80
F80F80
F80F80
F80FC0
ENDCHAR
STARTCHAR Aring
ENCODING 197
SWIDTH 401 0
DWIDTH 19 0
BBX 18 44 1 0
BITMAP
01C000
03F000
07F000
0F3800
0E3800
0E3800
07F800
07F000
01E000
000000
07F000
07F000
07F800
0FF800
0FF800
0FF800
0F7800
0F7800
0F7C00
0F7C00
1F7C00
1F7C00
1F7C00
1E7C00
1E3E00
1E3E00
3E3E00
3E3E00
3E3E00
3E3E00
3C3E00
3C1F00
7C1F00
7FFF00
7FFF00
7FFF00
7FFF00
7FFF80
F80F80
F80F80
F80F80
F80F80
F80F80
F80FC0
ENDCHAR
STARTCHAR AE
ENCODING 198
SWIDTH 580 0
DWIDTH 28 0
BBX 27 34 0 0
BITMAP
007FFFE0
007FFFE0
007FFFE0
007FFFE0
00FFFFE0
00FFC000
00FFC000
01FFC000
01FFC000
01FFC000
01EFC000
03EFC000
03EFC000
03EFC000
03CFFF80
07CFFF80
07CFFF80
07CFFF80
078FFF80
0F8FC000
0F8FC000
0F8FC000
1F0FC000
1FFFC000
1FFFC000
1FFFC000
3FFFC000
3FFFC000
3E0FC000
3E0FFFE0
7C0FFFE0
7C0FFFE0
7C0FFFE0
FC0FFFE0
ENDCHAR
STARTCHAR Ccedilla
ENCODING 199
SWIDTH 383 0
DWIDTH 18 0
BBX 15 41 2 -7
BITMAP
0FE0
3FF0
7FF8
7FFC
FFFE
FC7E
F83E
F83E
F83E
F83E
F83E
F83E
F800
F800
F800
F800
F800
F800
F800
F800
F800
F800
F83E
F83E
F83E
F83E
F83E
F83E
F83E
FC7E
FFFC
7FFC
3FF8
1FF0
07C0
0380
03E0
00F0
3CF0
1FF0
0FE0
ENDCHAR
STARTCHAR Egrave
ENCODING 200
SWIDTH 363 0
DWIDTH 17 0
BBX 14 42 2 0
BITMAP
7E00
3F00
1F00
0F80
0780
03C0
0000
0000
FFFC
FFFC
FFFC
FFFC
FFFC
F800
F800
F800
F800
F800
F800
F800
F800
F800
FFF8
FFF8
FFF8
FFF8
FFF8
F800
F800
F800
F800
F800
F800
F800
F800
F800
F800
FFFC
FFFC
FFFC
FFFC
FFFC
ENDCHAR
STARTCHAR Eacute
ENCODING 201
SWIDTH 363 0
DWIDTH 17 0
BBX 14 42 2 0
BITMAP
01F8
01F0
03E0
03C0
07C0
0F80
0000
0000
FFFC
FFFC
FFFC
FFFC
FFFC
F800
F800
F800
F800
F800
F800
F800
F800
F800
FFF8
FFF8
FFF8
FFF8
FFF8
F800
F800
F800
F800
F800
F800
F800
F800
F800
F800
FFFC
FFFC
FFFC
FFFC
FFFC
ENDCHAR
STARTCHAR Ecircumflex
ENCODING 202
SWIDTH 363 0
DWIDTH 17 0
BBX 14 42 2 0
BITMAP
07C0
0FC0
1FE0
1FF0
3CF8
787C
0000
0000
FFFC
FFFC
FFFC
FFFC
FFFC
F800
F800
F800
F800
F800
F800
F800
F800
F800
FFF8
FFF8
FFF8
FFF8
FFF8
F800
F800
F800
F800
F800
F800
F800
F800
F800
F800
FFFC
FFFC
FFFC
FFFC
FFFC
ENDCHAR
STARTCHAR Edieresis
ENCODING 203
SWIDTH 363 0
DWIDTH 17 0
BBX 14 41 2 0
BITMAP
7C78
7C78
7C78
7C78
7C78
0000
0000
FFFC
FFFC
FFFC
FFFC
FFFC
F800
F800
F800
F800
F800
F800
F800
F800
F800
FFF8
FFF8
FFF8
FFF8
FFF8
F800
F800
F800
F800
F800
F800
F800
F800
F800
F800
FFFC
FFFC
FFFC
FFFC
FFFC
ENDCHAR
STARTCHAR Igrave
ENCODING 204
SWIDTH 192 0
DWIDTH 9 0
BBX 9 42 -2 0
BITMAP
FC00
3E00
3F00
1F00
0F80
0780
0000
0000
0F80
0F80
0F80
0F80
0F80
0F80
0F80
0F80
0F80
0F80
0F80
0F80
0F80
0F80
0F80
0F80
0F80
0F80
0F80
0F80
0F80
0F80
0F80
0F80
0F80
0F80
0F80
0F80
0F80
0F80
0F80
0F80
0F80
0F80
ENDCHAR
STARTCHAR Iacute
ENCODING 205
SWIDTH 192 0
DWIDTH 9 0
BBX 9 42 2 0
BITMAP
1F80
3F00
3E00
7C00
7800
F000
0000
0000
F800
F800
F800
F800
F800
F800
F800
F800
F800
F800
F800
F800
F800
F800
F800
F800
F800
F800
F800
F800
F800
F800
F800
F800
F800
F800
F800
F800
F800
F800
F800
F800
F800
F800
ENDCHAR
STARTCHAR Icircumflex
ENCODING 206
SWIDTH 192 0
DWIDTH 9 0
BBX 13 42 -2 0
BITMAP
0F80
1FC0
1FE0
3DE0
7CF0
F878
0000
0000
0F80
0F80
0F80
0F80
0F80
0F80
0F80
0F80
0F80
0F80
0F80
0F80
0F80
0F80
0F80
0F80
0F80
0F80
0F80
0F80
0F80
0F80
0F80
0F80
0F80
0F80
0F80
0F80
0F80
0F80
0F80
0F80
0F80
0F80
ENDCHAR
STARTCHAR Idieresis
ENCODING 207
SWIDTH 192 0
DWIDTH 9 0
BBX 12 41 -1 0
BITMAP
F1F0
F1F0
F1F0
F1F0
F1F0
0000
0000
1F00
1F00
1F00
1F00
1F00
1F00
1F00
1F00
1F00
1F00
1F00
1F00
1F00
1F00
1F00
1F00
1F00
1F00
1F00
1F00
1F00
1F00
1F00
1F00
1F00
1F00
1F00
1F00
1F00
1F00
1F00
1F00
1F00
1F00
ENDCHAR
STARTCHAR Eth
ENCODING 208
SWIDTH 423 0
DWIDTH 20 0
BBX 19 34 0 0
BITMAP
1FFC00
1FFF00
1FFF80
1FFFC0
1FFFC0
1F07C0
1F07E0
1F07E0
1F07E0
1F07E0
1F07E0
1F07E0
1F07E0
1F07E0
FFE7E0
FFE7E0
FFE7E0
FFE7E0
FFE7E0
1F07E0
1F07E0
1F07E0
1F07E0
1F07E0
1F07E0
1F07E0
1F07E0
1F07E0
1F07C0
1FFFC0
1FFFC0
1FFF80
1FFF00
1FFC00
ENDCHAR
STARTCHAR Ntilde
ENCODING 209
SWIDTH 427 0
DWIDTH 21 0
BBX 17 41 2 0
BITMAP
0F8C00
1FFE00
3FFC00
3FF800
18F000
000000
000000
FE0F80
FE0F80
FE0F80
FE0F80
FF0F80
FF0F80
FF0F80
FF0F80
FF8F80
FF8F80
FF8F80
FF8F80
FBCF80
FBCF80
FBCF80
FBCF80
F9EF80
F9EF80
F9EF80
F9EF80
F8FF80
F8FF80
F8FF80
F8FF80
F87F80
F87F80
F87F80
F87F80
F83F80
F83F80
F83F80
F83F80
F81F80
F81F80
ENDCHAR
STARTCHAR Ograve
ENCODING 210
SWIDTH 400 0
DWIDTH 19 0
BBX 16 42 2 0
BITMAP
7E00
1F00
1F80
0F80
07C0
03C0
0000
0000
0FE0
3FF8
7FFC
7FFE
FFFE
FC3E
F83E
F83F
F83F
F83F
F83F
F83F
F83F
F83F
F83F
F83F
F83F
F83F
F83F
F83F
F83F
F83F
F83F
F83F
F83F
F83F
F83F
F83E
FC3E
FFFE
7FFE
7FFC
3FF8
0FE0
ENDCHAR
STARTCHAR Oacute
ENCODING 211
SWIDTH 400 0
DWIDTH 19 0
BBX 16 42 2 0
BITMAP
00FC
01F8
01F0
03E0
03C0
0780
0000
0000
0FE0
3FF8
7FFC
7FFE
FFFE
FC3E
F83E
F83F
F83F
F83F
F83F
F83F
F83F
F83F
F83F
F83F
F83F
F83F
F83F
F83F
F83F
F83F
F83F
F83F
F83F
F83F
F83F
F83E
FC3E
FFFE
7FFE
7FFC
3FF8
0FE0
ENDCHAR
STARTCHAR Ocircumflex
ENCODING 212
SWIDTH 400 0
DWIDTH 19 0
BBX 16 42 2 0
BITMAP
07C0
0FE0
0FF0
1EF0
3E78
7C3C
0000
0000
0FE0
3FF8
7FFC
7FFE
FFFE
FC3E
F83E
F83F
F83F
F83F
F83F
F83F
F83F
F83F
F83F
F83F
F83F
F83F
F83F
F83F
F83F
F83F
F83F
F83F
F83F
F83F
F83F
F83E
FC3E
FFFE
7FFE
7FFC
3FF8
0FE0
ENDCHAR
STARTCHAR Otilde
ENCODING 213
SWIDTH 400 0
DWIDTH 19 0
BBX 16 41 2 0
BITMAP
0F1C
3FFC
3FF8
7FF8
31F0
0000
0000
0FE0
3FF8
7FFC
7FFE
FFFE
FC3E
F83E
F83F
F83F
F83F
F83F
F83F
F83F
F83F
F83F
F83F
F83F
F83F
F83F
F83F
F83F
F83F
F83F
F83F
F83F
F83F
F83F
F83E
FC3E
FFFE
7FFE
7FFC
3FF8
0FE0
ENDCHAR
STARTCHAR Odieresis
ENCODING 214
SWIDTH 400 0
DWIDTH 19 0
BBX 16 41 2 0
BITMAP
3C7C
3C7C
3C7C
3C7C
3C7C
0000
0000
0FE0
3FF8
7FFC
7FFE
FFFE
FC3E
F83E
F83F
F83F
F83F
F83F
F83F
F83F
F83F
F83F
F83F
F83F
F83F
F83F
F83F
F83F
F83F
F83F
F83F
F83F
F83F
F83F
F83E
FC3E
FFFE
7FFE
7FFC
3FF8
0FE0
ENDCHAR
STARTCHAR multiply
ENCODING 215
SWIDTH 400 0
DWIDTH 19 0
BBX 15 16 2 9
BITMAP
2008
700C
F81E
FC3E
7C7C
3EF8
1FF0
0FE0
07C0
0FE0
1FF0
3EF8
7C7C
F83E
701C
2008
ENDCHAR
STARTCHAR Oslash
ENCODING 216
SWIDTH 400 0
DWIDTH 19 0
BBX 17 36 1 -1
BITMAP
000200
07F380
1FFF80
3FFF00
3FFF00
7FFF00
7E1F00
7C1F00
7C1F80
7C3F80
7C3F80
7C3F80
7C7F80
7C7F80
7CFF80
7CFF80
7CFF80
7DFF80
7DDF80
7FDF80
7F9F80
7F9F80
7F1F80
7F1F80
7F1F80
7E1F80
7E1F80
7C1F80
7C1F00
7E1F00
7FFF00
7FFF00
7FFE00
7FFC00
F7F000
200000
ENDCHAR
STARTCHAR Ugrave
ENCODING 217
SWIDTH 402 0
DWIDTH 19 0
BBX 16 42 2 0
BITMAP
7E00
1F00
0F80
0F80
07C0
03E0
0000
0000
F83F
F83F
F83F
F83F
F83F
F83F
F83F
F83F
F83F
F83F
F83F
F83F
F83F
F83F
F83F
F83F
F83F
F83F
F83F
F83F
F83F
F83F
F83F
F83F
F83F
F83F
F83E
F83E
FC3E
FFFE
7FFC
7FFC
1FF8
0FE0
ENDCHAR
STARTCHAR Uacute
ENCODING 218
SWIDTH 402 0
DWIDTH 19 0
BBX 16 42 2 0
BITMAP
00FC
01F8
01F0
03E0
03C0
0780
0000
0000
F83F
F83F
F83F
F83F
F83F
F83F
F83F
F83F
F83F
F83F
F83F
F83F
F83F
F83F
F83F
F83F
F83F
F83F
F83F
F83F
F83F
F83F
F83F
F83F
F83F
F83F
F83E
F83E
FC3E
FFFE
7FFC
7FFC
1FF8
0FE0
ENDCHAR
STARTCHAR Ucircumflex
ENCODING 219
SWIDTH 402 0
DWIDTH 19 0
BBX 16 42 2 0
BITMAP
07C0
0FE0
0FF0
1FF0
3E78
7C3C
0000
0000
F83F
F83F
F83F
F83F
F83F
F83F
F83F
F83F
F83F
F83F
F83F
F83F
F83F
F83F
F83F
F83F
F83F
F83F
F83F
F83F
F83F
F83F
F83F
F83F
F83F
F83F
F83E
F83E
FC3E
FFFE
7FFC
7FFC
1FF8
0FE0
ENDCHAR
STARTCHAR Udieresis
ENCODING 220
SWIDTH 402 0
DWIDTH 19 0
BBX 16 41 2 0
BITMAP
3C7C
3C7C
3C7C
3C7C
3C7C
0000
0000
F83F
F83F
F83F
F83F
F83F
F83F
F83F
F83F
F83F
F83F
F83F
F83F
F83F
F83F
F83F
F83F
F83F
F83F
F83F
F83F
F83F
F83F
F83F
F83F
F83F
F83F
F83E
F83E
FC3E
FFFE
7FFC
7FFC
1FF8
0FE0
ENDCHAR
STARTCHAR Yacute
ENCODING 221
SWIDTH 394 0
DWIDTH 19 0
BBX 18 42 0 0
BITMAP
003F00
007C00
007C00
00F800
01F000
01E000
000000
000000
FC07C0
7C07C0
7E07C0
3E0F80
3E0F80
3F0F80
1F1F00
1F1F00
1F1F00
0F9E00
0FBE00
0FBE00
0FFC00
07FC00
07FC00
07F800
03F800
03F800
03F800
01F000
01F000
01F000
01F000
01F000
01F000
01F000
01F000
01F000
01F000
01F000
01F000
01F000
01F000
01F000
ENDCHAR
STARTCHAR Thorn
ENCODING 222
SWIDTH 386 0
DWIDTH 19 0
BBX 16 34 2 0
BITMAP
F800
F800
F800
F800
F800
FFC0
FFF8
FFFC
FFFE
FFFE
F87E
F83E
F83F
F83F
F83F
F83F
F83F
F83F
F83F
F83E
FFFE
FFFE
FFFC
FFF8
FFE0
F800
F800
F800
F800
F800
F800
F800
F800
F800
ENDCHAR
STARTCHAR germandbls
ENCODING 223
SWIDTH 407 0
DWIDTH 20 0
BBX 16 34 2 0
BITMAP
FFFF
FFFF
FFFF
FFFF
FFFF
F81F
F83E
F83E
F87E
F87C
F87C
F8F8
F8F8
F9F0
F9FC
F9FE
F9FE
F9FF
F83F
F81F
F81F
F81F
F81F
F81F
F81F
F81F
F81F
F81F
F83F
F9FF
F9FE
F9FE
F9FC
F9F0
ENDCHAR
STARTCHAR agrave
ENCODING 224
SWIDTH 401 0
DWIDTH 19 0
BBX 18 42 1 0
BITMAP
3F0000
0F8000
07C000
07C000
03E000
01F000
000000
000000
07F000
07F000
07F800
0FF800
0FF800
0FF800
0F7800
0F7800
0F7C00
0F7C00
1F7C00
1F7C00
1F7C00
1E7C00
1E3E00
1E3E00
3E3E00
3E3E00
3E3E00
3E3E00
3C3E00
3C1F00
7C1F00
7FFF00
7FFF00
7FFF00
7FFF00
7FFF80
F80F80
F80F80
F80F80
F80F80
F80F80
F80FC0
ENDCHAR
STARTCHAR aacute
ENCODING 225
SWIDTH 401 0
DWIDTH 19 0
BBX 18 42 1 0
BITMAP
007E00
00FC00
00F800
01F000
01E000
03C000
000000
000000
07F000
07F000
07F800
0FF800
0FF800
0FF800
0F7800
0F7800
0F7C00
0F7C00
1F7C00
1F7C00
1F7C00
1E7C00
1E3E00
1E3E00
3E3E00
3E3E00
3E3E00
3E3E00
3C3E00
3C1F00
7C1F00
7FFF00
7FFF00
7FFF00
7FFF00
7FFF80
F80F80
F80F80
F80F80
F80F80
F80F80
F80FC0
ENDCHAR
STARTCHAR acircumflex
ENCODING 226
SWIDTH 401 0
DWIDTH 19 0
BBX 18 42 1 0
BITMAP
03E000
07F000
07F800
0FF800
1F3C00
3E1E00
000000
000000
07F000
07F000
07F800
0FF800
0FF800
0FF800
0F7800
0F7800
0F7C00
0F7C00
1F7C00
1F7C00
1F7C00
1E7C00
1E3E00
1E3E00
3E3E00
3E3E00
3E3E00
3E3E00
3C3E00
3C1F00
7C1F00
7FFF00
7FFF00
7FFF00
7FFF00
7FFF80
F80F80
F80F80
F80F80
F80F80
F80F80
F80FC0
ENDCHAR
STARTCHAR atilde
ENCODING 227
SWIDTH 401 0
DWIDTH 19 0
BBX 18 41 1 0
BITMAP
078E00
1FFE00
1FFC00
3FFC00
18F800
000000
000000
07F000
07F000
07F800
0FF800
0FF800
0FF800
0F7800
0F7800
0F7C00
0F7C00
1F7C00
1F7C00
1F7C00
1E7C00
1E3E00
1E3E00
3E3E00
3E3E00
3E3E00
3E3E00
3C3E00
3C1F00
7C1F00
7FFF00
7FFF00
7FFF00
7FFF00
7FFF80
F80F80
F80F80
F80F80
F80F80
F80F80
F80FC0
ENDCHAR
STARTCHAR adieresis
ENCODING 228
SWIDTH 401 0
DWIDTH 19 0
BBX 18 41 1 0
BITMAP
1E3E00
1E3E00
1E3E00
1E3E00
1E3E00
000000
000000
07F000
07F000
07F800
0FF800
0FF800
0FF800
0F7800
0F7800
0F7C00
0F7C00
1F7C00
1F7C00
1F7C00
1E7C00
1E3E00
1E3E00
3E3E00
3E3E00
3E3E00
3E3E00
3C3E00
3C1F00
7C1F00
7FFF00
7FFF00
7FFF00
7FFF00
7FFF80
F80F80
F80F80
F80F80
F80F80
F80F80
F80FC0
ENDCHAR
STARTCHAR aring
ENCODING 229
SWIDTH 401 0
DWIDTH 19 0
BBX 18 44 1 0
BITMAP
01C000
03F000
07F000
0F3800
0E3800
0E3800
07F800
07F000
01E000
000000
07F000
07F000
07F800
0FF800
0FF800
0FF800
0F7800
0F7800
0F7C00
0F7C00
1F7C00
1F7C00
1F7C00
1E7C00
1E3E00
1E3E00
3E3E00
3E3E00
3E3E00
3E3E00
3C3E00
3C1F00
7C1F00
7FFF00
7FFF00
7FFF00
7FFF00
7FFF80
F80F80
F80F80
F80F80
F80F80
F80F80
F80FC0
ENDCHAR
STARTCHAR ae
ENCODING 230
SWIDTH 580 0
DWIDTH 28 0
BBX 27 34 0 0
BITMAP
007FFFE0
007FFFE0
007FFFE0
007FFFE0
00FFFFE0
00FFC000
00FFC000
01FFC000
01FFC000
01FFC000
01EFC000
03EFC000
03EFC000
03EFC000
03CFFF80
07CFFF80
07CFFF80
07CFFF80
078FFF80
0F8FC000
0F8FC000
0F8FC000
1F0FC000
1FFFC000
1FFFC000
1FFFC000
3FFFC000
3FFFC000
3E0FC000
3E0FFFE0
7C0FFFE0
7C0FFFE0
7C0FFFE0
FC0FFFE0
ENDCHAR
STARTCHAR ccedilla
ENCODING 231
SWIDTH 383 0
DWIDTH 18 0
BBX 15 41 2 -7
BITMAP
0FE0
3FF0
7FF8
7FFC
FFFE
FC7E
F83E
F83E
F83E
F83E
F83E
F83E
F800
F800
F800
F800
F800
F800
F800
F800
F800
F800
F83E
F83E
F83E
F83E
F83E
F83E
F83E
FC7E
FFFC
7FFC
3FF8
1FF0
07C0
0380
03E0
00F0
3CF0
1FF0
0FE0
ENDCHAR
STARTCHAR egrave
ENCODING 232
SWIDTH 363 0
DWIDTH 17 0
BBX 14 42 2 0
BITMAP
7E00
3F00
1F00
0F80
0780
03C0
0000
0000
FFFC
FFFC
FFFC
FFFC
FFFC
F800
F800
F800
F800
F800
F800
F800
F800
F800
FFF8
FFF8
FFF8
FFF8
FFF8
F800
F800
F800
F800
F800
F800
F800
F800
F800
F800
FFFC
FFFC
FFFC
FFFC
FFFC
ENDCHAR
STARTCHAR eacute
ENCODING 233
SWIDTH 363 0
DWIDTH 17 0
BBX 14 42 2 0
BITMAP
01F8
01F0
03E0
03C0
07C0
0F80
0000
0000
FFFC
FFFC
FFFC
FFFC
FFFC
F800
F800
F800
F800
F800
F800
F800
F800
F800
FFF8
FFF8
FFF8
FFF8
FFF8
F800
F800
F800
F800
F800
F800
F800
F800
F800
F800
FFFC
FFFC
FFFC
FFFC
FFFC
ENDCHAR
STARTCHAR ecircumflex
ENCODING 234
SWIDTH 363 0
DWIDTH 17 0
BBX 14 42 2 0
BITMAP
07C0
0FC0
1FE0
1FF0
3CF8
787C
0000
0000
FFFC
FFFC
FFFC
FFFC
FFFC
F800
F800
F800
F800
F800
F800
F800
F800
F800
FFF8
FFF8
FFF8
FFF8
FFF8
F800
F800
F800
F800
F800
F800
F800
F800
F800
F800
FFFC
FFFC
FFFC
FFFC
FFFC
ENDCHAR
STARTCHAR edieresis
ENCODING 235
SWIDTH 363 0
DWIDTH 17 0
BBX 14 41 2 0
BITMAP
7C78
7C78
7C78
7C78
7C78
0000
0000
FFFC
FFFC
FFFC
FFFC
FFFC
F800
F800
F800
F800
F800
F800
F800
F800
F800
FFF8
FFF8
FFF8
FFF8
FFF8
F800
F800
F800
F800
F800
F800
F800
F800
F800
F800
FFFC
FFFC
FFFC
FFFC
FFFC
ENDCHAR
STARTCHAR igrave
ENCODING 236
SWIDTH 192 0
DWIDTH 9 0
BBX 9 42 -2 0
BITMAP
FC00
3E00
3F00
1F00
0F80
0780
0000
0000
0F80
0F80
0F80
0F80
0F80
0F80
0F80
0F80
0F80
0F80
0F80
0F80
0F80
0F80
0F80
0F80
0F80
0F80
0F80
0F80
0F80
0F80
0F80
0F80
0F80
0F80
0F80
0F80
0F80
0F80
0F80
0F80
0F80
0F80
ENDCHAR
STARTCHAR iacute
ENCODING 237
SWIDTH 192 0
DWIDTH 9 0
BBX 9 42 2 0
BITMAP
1F80
3F00
3E00
7C00
7800
F000
0000
0000
F800
F800
F800
F800
F800
F800
F800
F800
F800
F800
F800
F800
F800
F800
F800
F800
F800
F800
F800
F800
F800
F800
F800
F800
F800
F800
F800
F800
F800
F800
F800
F800
F800
F800
ENDCHAR
STARTCHAR icircumflex
ENCODING 238
SWIDTH 192 0
DWIDTH 9 0
BBX 13 42 -2 0
BITMAP
0F80
1FC0
1FE0
3DE0
7CF0
F878
0000
0000
0F80
0F80
0F80
0F80
0F80
0F80
0F80
0F80
0F80
0F80
0F80
0F80
0F80
0F80
0F80
0F80
0F80
0F80
0F80
0F80
0F80
0F80
0F80
0F80
0F80
0F80
0F80
0F80
0F80
0F80
0F80
0F80
0F80
0F80
ENDCHAR
STARTCHAR idieresis
ENCODING 239
SWIDTH 192 0
DWIDTH 9 0
BBX 12 41 -1 0
BITMAP
F1F0
F1F0
F1F0
F1F0
F1F0
0000
0000
1F00
1F00
1F00
1F00
1F00
1F00
1F00
1F00
1F00
1F00
1F00
1F00
1F00
1F00
1F00
1F00
1F00
1F00
1F00
1F00
1F00
1F00
1F00
1F00
1F00
1F00
1F00
1F00
1F00
1F00
1F00
1F00
1F00
1F00
ENDCHAR
STARTCHAR eth
ENCODING 240
SWIDTH 423 0
DWIDTH 20 0
BBX 19 34 0 0
BITMAP
1FFC00
1FFF00
1FFF80
1FFFC0
1FFFC0
1F07C0
1F07E0
1F07E0
1F07E0
1F07E0
1F07E0
1F07E0
1F07E0
1F07E0
FFE7E0
FFE7E0
FFE7E0
FFE7E0
FFE7E0
1F07E0
1F07E0
1F07E0
1F07E0
1F07E0
1F07E0
1F07E0
1F07E0
1F07E0
1F07C0
1FFFC0
1FFFC0
1FFF80
1FFF00
1FFC00
ENDCHAR
STARTCHAR ntilde
ENCODING 241
SWIDTH 427 0
DWIDTH 21 0
BBX 17 41 2 0
BITMAP
0F8C00
1FFE00
3FFC00
3FF800
18F000
000000
000000
FE0F80
FE0F80
FE0F80
FE0F80
FF0F80
FF0F80
FF0F80
FF0F80
FF8F80
FF8F80
FF8F80
FF8F80
FBCF80
FBCF80
FBCF80
FBCF80
F9EF80
F9EF80
F9EF80
F9EF80
F8FF80
F8FF80
F8FF80
F8FF80
F87F80
F87F80
F87F80
F87F80
F83F80
F83F80
F83F80
F83F80
F81F80
F81F80
ENDCHAR
STARTCHAR ograve
ENCODING 242
SWIDTH 400 0
DWIDTH 19 0
BBX 16 42 2 0
BITMAP
7E00
1F00
1F80
0F80
07C0
03C0
0000
0000
0FE0
3FF8
7FFC
7FFE
FFFE
FC3E
F83E
F83F
F83F
F83F
F83F
F83F
F83F
F83F
F83F
F83F
F83F
F83F
F83F
F83F
F83F
F83F
F83F
F83F
F83F
F83F
F83F
F83E
FC3E
FFFE
7FFE
7FFC
3FF8
0FE0
ENDCHAR
STARTCHAR oacute
ENCODING 243
SWIDTH 400 0
DWIDTH 19 0
BBX 16 42 2 0
BITMAP
00FC
01F8
01F0
03E0
03C0
0780
0000
0000
0FE0
3FF8
7FFC
7FFE
FFFE
FC3E
F83E
F83F
F83F
F83F
F83F
F83F
F83F
F83F
F83F
F83F
F83F
F83F
F83F
F83F
F83F
F83F
F83F
F83F
F83F
F83F
F83F
F83E
FC3E
FFFE
7FFE
7FFC
3FF8
0FE0
ENDCHAR
STARTCHAR ocircumflex
ENCODING 244
SWIDTH 400 0
DWIDTH 19 0
BBX 16 42 2 0
BITMAP
07C0
0FE0
0FF0
1EF0
3E78
7C3C
0000
0000
0FE0
3FF8
7FFC
7FFE
FFFE
FC3E
F83E
F83F
F83F
F83F
F83F
F83F
F83F
F83F
F83F
F83F
F83F
F83F
F83F
F83F
F83F
F83F
F83F
F83F
F83F
F83F
F83F
F83E
FC3E
FFFE
7FFE
7FFC
3FF8
0FE0
ENDCHAR
STARTCHAR otilde
ENCODING 245
SWIDTH 400 0
DWIDTH 19 0
BBX 16 41 2 0
BITMAP
0F1C
3FFC
3FF8
7FF8
31F0
0000
0000
0FE0
3FF8
7FFC
7FFE
FFFE
FC3E
F83E
F83F
F83F
F83F
F83F
F83F
F83F
F83F
F83F
F83F
F83F
F83F
F83F
F83F
F83F
F83F
F83F
F83F
F83F
F83F
F83F
F83E
FC3E
FFFE
7FFE
7FFC
3FF8
0FE0
ENDCHAR
STARTCHAR odieresis
ENCODING 246
SWIDTH 400 0
DWIDTH 19 0
BBX 16 41 2 0
BITMAP
3C7C
3C7C
3C7C
3C7C
3C7C
0000
0000
0FE0
3FF8
7FFC
7FFE
FFFE
FC3E
F83E
F83F
F83F
F83F
F83F
F83F
F83F
F83F
F83F
F83F
F83F
F83F
F83F
F83F
F83F
F83F
F83F
F83F
F83F
F83F
F83F
F83E
FC3E
FFFE
7FFE
7FFC
3FF8
0FE0
ENDCHAR
STARTCHAR divide
ENCODING 247
SWIDTH 400 0
DWIDTH 19 0
BBX 17 20 1 7
BITMAP
03E000
03E000
03E000
03E000
03E000
000000
000000
000000
FFFF80
FFFF80
FFFF80
FFFF80
000000
000000
000000
03E000
03E000
03E000
03E000
03E000
ENDCHAR
STARTCHAR oslash
ENCODING 248
SWIDTH 400 0
DWIDTH 19 0
BBX 17 36 1 -1
BITMAP
000200
07F380
1FFF80
3FFF00
3FFF00
7FFF00
7E1F00
7C1F00
7C1F80
7C3F80
7C3F80
7C3F80
7C7F80
7C7F80
7CFF80
7CFF80
7CFF80
7DFF80
7DDF80
7FDF80
7F9F80
7F9F80
7F1F80
7F1F80
7F1F80
7E1F80
7E1F80
7C1F80
7C1F00
7E1F00
7FFF00
7FFF00
7FFE00
7FFC00
F7F000
200000
ENDCHAR
STARTCHAR ugrave
ENCODING 249
SWIDTH 402 0
DWIDTH 19 0
BBX 16 42 2 0
BITMAP
7E00
1F00
0F80
0F80
07C0
03E0
0000
0000
F83F
F83F
F83F
F83F
F83F
F83F
F83F
F83F
F83F
F83F
F83F
F83F
F83F
F83F
F83F
F83F
F83F
F83F
F83F
F83F
F83F
F83F
F83F
F83F
F83F
F83F
F83E
F83E
FC3E
FFFE
7FFC
7FFC
1FF8
0FE0
ENDCHAR
STARTCHAR uacute
ENCODING 250
SWIDTH 402 0
DWIDTH 19 0
BBX 16 42 2 0
BITMAP
00FC
01F8
01F0
03E0
03C0
0780
0000
0000
F83F
F83F
F83F
F83F
F83F
F83F
F83F
F83F
F83F
F83F
F83F
F83F
F83F
F83F
F83F
F83F
F83F
F83F
F83F
F83F
F83F
F83F
F83F
F83F
F83F
F83F
F83E
F83E
FC3E
FFFE
7FFC
7FFC
1FF8
0FE0
ENDCHAR
STARTCHAR ucircumflex
ENCODING 251
SWIDTH 402 0
DWIDTH 19 0
BBX 16 42 2 0
BITMAP
07C0
0FE0
0FF0
1FF0
3E78
7C3C
0000
0000
F83F
F83F
F83F
F83F
F83F
F83F
F83F
F83F
F83F
F83F
F83F
F83F
F83F
F83F
F83F
F83F
F83F
F83F
F83F
F83F
F83F
F83F
F83F
F83F
F83F
F83F
F83E
F83E
FC3E
FFFE
7FFC
7FFC
1FF8
0FE0
ENDCHAR
STARTCHAR udieresis
ENCODING 252
SWIDTH 402 0
DWIDTH 19 0
BBX 16 41 2 0
BITMAP
3C7C
3C7C
3C7C
3C7C
3C7C
0000
0000
F83F
F83F
F83F
F83F
F83F
F83F
F83F
F83F
F83F
F83F
F83F
F83F
F83F
F83F
F83F
F83F
F83F
F83F
F83F
F83F
F83F
F83F
F83F
F83F
F83F
F83F
F83E
F83E
FC3E
FFFE
7FFC
7FFC
1FF8
0FE0
ENDCHAR
STARTCHAR yacute
ENCODING 253
SWIDTH 394 0
DWIDTH 19 0
BBX 18 42 0 0
BITMAP
003F00
007C00
007C00
00F800
01F000
01E000
000000
000000
FC07C0
7C07C0
7E07C0
3E0F80
3E0F80
3F0F80
1F1F00
1F1F00
1F1F00
0F9E00
0FBE00
0FBE00
0FFC00
07FC00
07FC00
07F800
03F800
03F800
03F800
01F000
01F000
01F000
01F000
01F000
01F000
01F000
01F000
01F000
01F000
01F000
01F000
01F000
01F000
01F000
ENDCHAR
STARTCHAR thorn
ENCODING 254
SWIDTH 386 0
DWIDTH 19 0
BBX 16 34 2 0
BITMAP
F800
F800
F800
F800
F800
FFC0
FFF8
FFFC
FFFE
FFFE
F87E
F83E
F83F
F83F
F83F
F83F
F83F
F83F
F83F
F83E
FFFE
FFFE
FFFC
FFF8
FFE0
F800
F800
F800
F800
F800
F800
F800
F800
F800
ENDCHAR
STARTCHAR ydieresis
ENCODING 255
SWIDTH 394 0
DWIDTH 19 0
BBX 18 41 0 0
BITMAP
1F1F00
1F1F00
1F1F00
1F1F00
1F1F00
000000
000000
FC07C0
7C07C0
7E07C0
3E0F80
3E0F80
3F0F80
1F1F00
1F1F00
1F1F00
0F9E00
0FBE00
0FBE00
0FFC00
07FC00
07FC00
07F800
03F800
03F800
03F800
01F000
01F000
01F000
01F000
01F000
01F000
01F000
01F000
01F000
01F000
01F000
01F000
01F000
01F000
01F000
ENDCHAR
STARTCHAR Amacron
ENCODING 256
SWIDTH 401 0
DWIDTH 19 0
BBX 18 40 1 0
BITMAP
1FFC00
1FFC00
1FFC00
1FFC00
000000
000000
07F000
07F000
07F800
0FF800
0FF800
0FF800
0F7800
0F7800
0F7C00
0F7C00
1F7C00
1F7C00
1F7C00
1E7C00
1E3E00
1E3E00
3E3E00
3E3E00
3E3E00
3E3E00
3C3E00
3C1F00
7C1F00
7FFF00
7FFF00
7FFF00
7FFF00
7FFF80
F80F80
F80F80
F80F80
F80F80
F80F80
F80FC0
ENDCHAR
STARTCHAR amacron
ENCODING 257
SWIDTH 401 0
DWIDTH 19 0
BBX 18 40 1 0
BITMAP
1FFC00
1FFC00
1FFC00
1FFC00
000000
000000
07F000
07F000
07F800
0FF800
0FF800
0FF800
0F7800
0F7800
0F7C00
0F7C00
1F7C00
1F7C00
1F7C00
1E7C00
1E3E00
1E3E00
3E3E00
3E3E00
3E3E00
3E3E00
3C3E00
3C1F00
7C1F00
7FFF00
7FFF00
7FFF00
7FFF00
7FFF80
F80F80
F80F80
F80F80
F80F80
F80F80
F80FC0
ENDCHAR
STARTCHAR Abreve
ENCODING 258
SWIDTH 401 0
DWIDTH 19 0
BBX 18 42 1 0
BITMAP
1C1C00
1C1C00
1E3C00
0FFC00
0FF800
03E000
000000
000000
07F000
07F000
07F800
0FF800
0FF800
0FF800
0F7800
0F7800
0F7C00
0F7C00
1F7C00
1F7C00
1F7C00
1E7C00
1E3E00
1E3E00
3E3E00
3E3E00
3E3E00
3E3E00
3C3E00
3C1F00
7C1F00
7FFF00
7FFF00
7FFF00
7FFF00
7FFF80
F80F80
F80F80
F80F80
F80F80
F80F80
F80FC0
ENDCHAR
STARTCHAR abreve
ENCODING 259
SWIDTH 401 0
DWIDTH 19 0
BBX 18 42 1 0
BITMAP
1C1C00
1C1C00
1E3C00
0FFC00
0FF800
03E000
000000
000000
07F000
07F000
07F800
0FF800
0FF800
0FF800
0F7800
0F7800
0F7C00
0F7C00
1F7C00
1F7C00
1F7C00
1E7C00
1E3E00
1E3E00
3E3E00
3E3E00
3E3E00
3E3E00
3C3E00
3C1F00
7C1F00
7FFF00
7FFF00
7FFF00
7FFF00
7FFF80
F80F80
F80F80
F80F80
F80F80
F80F80
F80FC0
ENDCHAR
STARTCHAR Aogonek
ENCODING 260
SWIDTH 401 0
DWIDTH 19 0
BBX 18 41 1 -7
BITMAP
07F000
07F000
07F800
0FF800
0FF800
0FF800
0F7800
0F7800
0F7C00
0F7C00
1F7C00
1F7C00
1F7C00
1E7C00
1E3E00
1E3E00
3E3E00
3E3E00
3E3E00
3E3E00
3C3E00
3C1F00
7C1F00
7FFF00
7FFF00
7FFF00
7FFF00
7FFF80
F80F80
F80F80
F80F80
F80F80
F80F80
F80FC0
000600
001E00
001C00
003E00
003FC0
001FC0
000FC0
ENDCHAR
STARTCHAR aogonek
ENCODING 261
SWIDTH 401 0
DWIDTH 19 0
BBX 18 41 1 -7
BITMAP
07F000
07F000
07F800
0FF800
0FF800
0FF800
0F7800
0F7800
0F7C00
0F7C00
1F7C00
1F7C00
1F7C00
1E7C00
1E3E00
1E3E00
3E3E00
3E3E00
3E3E00
3E3E00
3C3E00
3C1F00
7C1F00
7FFF00
7FFF00
7FFF00
7FFF00
7FFF80
F80F80
F80F80
F80F80
F80F80
F80F80
F80FC0
000600
001E00
001C00
003E00
003FC0
001FC0
000FC0
ENDCHAR
STARTCHAR Cacute
ENCODING 262
SWIDTH 383 0
DWIDTH 18 0
BBX 15 42 2 0
BITMAP
01FC
01F0
03E0
03E0
07C0
0F80
0000
0000
0FE0
3FF0
7FFC
7FFC
FFFE
FC7E
F83E
F83E
F83E
F83E
F83E
F83E
F800
F800
F800
F800
F800
F800
F800
F800
F800
F83E
F83E
F83E
F83E
F83E
F83E
F83E
FC7E
FFFE
7FFC
7FFC
3FF0
0FE0
ENDCHAR
STARTCHAR cacute
ENCODING 263
SWIDTH 383 0
DWIDTH 18 0
BBX 15 42 2 0
BITMAP
01FC
01F0
03E0
03E0
07C0
0F80
0000
0000
0FE0
3FF0
7FFC
7FFC
FFFE
FC7E
F83E
F83E
F83E
F83E
F83E
F83E
F800
F800
F800
F800
F800
F800
F800
F800
F800
F83E
F83E
F83E
F83E
F83E
F83E
F83E
FC7E
FFFE
7FFC
7FFC
3FF0
0FE0
ENDCHAR
STARTCHAR Ccircumflex
ENCODING 264
SWIDTH 383 0
DWIDTH 18 0
BBX 15 42 2 0
BITMAP
07C0
0FC0
1FE0
1FF0
3CF8
787C
0000
0000
0FE0
3FF0
7FFC
7FFC
FFFE
FC7E
F83E
F83E
F83E
F83E
F83E
F83E
F800
F800
F800
F800
F800
F800
F800
F800
F800
F83E
F83E
F83E
F83E
F83E
F83E
F83E
FC7E
FFFE
7FFC
7FFC
3FF0
0FE0
ENDCHAR
STARTCHAR ccircumflex
ENCODING 265
SWIDTH 383 0
DWIDTH 18 0
BBX 15 42 2 0
BITMAP
07C0
0FC0
1FE0
1FF0
3CF8
787C
0000
0000
0FE0
3FF0
7FFC
7FFC
FFFE
FC7E
F83E
F83E
F83E
F83E
F83E
F83E
F800
F800
F800
F800
F800
F800
F800
F800
F800
F83E
F83E
F83E
F83E
F83E
F83E
F83E
FC7E
FFFE
7FFC
7FFC
3FF0
0FE0
ENDCHAR
STARTCHAR Cdotaccent
ENCODING 266
SWIDTH 383 0
DWIDTH 18 0
BBX 15 41 2 0
BITMAP
07C0
07C0
07C0
07C0
07C0
0000
0000
0FE0
3FF0
7FFC
7FFC
FFFE
FC7E
F83E
F83E
F83E
F83E
F83E
F83E
F800
F800
F800
F800
F800
F800
F800
F800
F800
F83E
F83E
F83E
F83E
F83E
F83E
F83E
FC7E
FFFE
7FFC
7FFC
3FF0
0FE0
ENDCHAR
STARTCHAR cdotaccent
ENCODING 267
SWIDTH 383 0
DWIDTH 18 0
BBX 15 41 2 0
BITMAP
07C0
07C0
07C0
07C0
07C0
0000
0000
0FE0
3FF0
7FFC
7FFC
FFFE
FC7E
F83E
F83E
F83E
F83E
F83E
F83E
F800
F800
F800
F800
F800
F800
F800
F800
F800
F83E
F83E
F83E
F83E
F83E
F83E
F83E
FC7E
FFFE
7FFC
7FFC
3FF0
0FE0
ENDCHAR
STARTCHAR Ccaron
ENCODING 268
SWIDTH 383 0
DWIDTH 18 0
BBX 15 42 2 0
BITMAP
783C
3C78
3EF0
1FF0
0FE0
0FC0
0000
0000
0FE0
3FF0
7FFC
7FFC
FFFE
FC7E
F83E
F83E
F83E
F83E
F83E
F83E
F800
F800
F800
F800
F800
F800
F800
F800
F800
F83E
F83E
F83E
F83E
F83E
F83E
F83E
FC7E
FFFE
7FFC
7FFC
3FF0
0FE0
ENDCHAR
STARTCHAR ccaron
ENCODING 269
SWIDTH 383 0
DWIDTH 18 0
BBX 15 42 2 0
BITMAP
783C
3C78
3EF0
1FF0
0FE0
0FC0
0000
0000
0FE0
3FF0
7FFC
7FFC
FFFE
FC7E
F83E
F83E
F83E
F83E
F83E
F83E
F800
F800
F800
F800
F800
F800
F800
F800
F800
F83E
F83E
F83E
F83E
F83E
F83E
F83E
FC7E
FFFE
7FFC
7FFC
3FF0
0FE0
ENDCHAR
STARTCHAR Dcaron
ENCODING 270
SWIDTH 406 0
DWIDTH 19 0
BBX 16 42 2 0
BITMAP
783C
3C78
3EF0
1FF0
0FE0
0FC0
0000
0000
FFE0
FFF8
FFFC
FFFE
FFFE
F83F
F83F
F81F
F81F
F81F
F81F
F81F
F81F
F81F
F81F
F81F
F81F
F81F
F81F
F81F
F81F
F81F
F81F
F81F
F81F
F81F
F81F
F83F
F83F
FFFE
FFFE
FFFC
FFF8
FFE0
ENDCHAR
STARTCHAR dcaron
ENCODING 271
SWIDTH 406 0
DWIDTH 19 0
BBX 16 42 2 0
BITMAP
783C
3C78
3EF0
1FF0
0FE0
0FC0
0000
0000
FFE0
FFF8
FFFC
FFFE
FFFE
F83F
F83F
F81F
F81F
F81F
F81F
F81F
F81F
F81F
F81F
F81F
F81F
F81F
F81F
F81F
F81F
F81F
F81F
F81F
F81F
F81F
F81F
F83F
F83F
FFFE
FFFE
FFFC
FFF8
FFE0
ENDCHAR
STARTCHAR Dcroat
ENCODING 272
SWIDTH 423 0
DWIDTH 20 0
BBX 19 34 0 0
BITMAP
1FFC00
1FFF00
1FFF80
1FFFC0
1FFFC0
1F07C0
1F07E0
1F07E0
1F07E0
1F07E0
1F07E0
1F07E0
1F07E0
1F07E0
FFE7E0
FFE7E0
FFE7E0
FFE7E0
FFE7E0
1F07E0
1F07E0
1F07E0
1F07E0
1F07E0
1F07E0
1F07E0
1F07E0
1F07E0
1F07C0
1FFFC0
1FFFC0
1FFF80
1FFF00
1FFC00
ENDCHAR
STARTCHAR dcroat
ENCODING 273
SWIDTH 423 0
DWIDTH 20 0
BBX 19 34 0 0
BITMAP
1FFC00
1FFF00
1FFF80
1FFFC0
1FFFC0
1F07C0
1F07E0
1F07E0
1F07E0
1F07E0
1F07E0
1F07E0
1F07E0
1F07E0
FFE7E0
FFE7E0
FFE7E0
FFE7E0
FFE7E0
1F07E0
1F07E0
1F07E0
1F07E0
1F07E0
1F07E0
1F07E0
1F07E0
1F07E0
1F07C0
1FFFC0
1FFFC0
1FFF80
1FFF00
1FFC00
ENDCHAR
STARTCHAR Emacron
ENCODING 274
SWIDTH 363 0
DWIDTH 17 0
BBX 14 40 2 0
BITMAP
3FF8
3FF8
3FF8
3FF8
0000
0000
FFFC
FFFC
FFFC
FFFC
FFFC
F800
F800
F800
F800
F800
F800
F800
F800
F800
FFF8
FFF8
FFF8
FFF8
FFF8
F800
F800
F800
F800
F800
F800
F800
F800
F800
F800
FFFC
FFFC
FFFC
FFFC
FFFC
ENDCHAR
STARTCHAR emacron
ENCODING 275
SWIDTH 363 0
DWIDTH 17 0
BBX 14 40 2 0
BITMAP
3FF8
3FF8
3FF8
3FF8
0000
0000
FFFC
FFFC
FFFC
FFFC
FFFC
F800
F800
F800
F800
F800
F800
F800
F800
F800
FFF8
FFF8
FFF8
FFF8
FFF8
F800
F800
F800
F800
F800
F800
F800
F800
F800
F800
FFFC
FFFC
FFFC
FFFC
FFFC
ENDCHAR
STARTCHAR Ebreve
ENCODING 276
SWIDTH 363 0
DWIDTH 17 0
BBX 14 42 2 0
BITMAP
3838
3878
3870
3FF0
1FE0
0FC0
0000
0000
FFFC
FFFC
FFFC
FFFC
FFFC
F800
F800
F800
F800
F800
F800
F800
F800
F800
FFF8
FFF8
FFF8
FFF8
FFF8
F800
F800
F800
F800
F800
F800
F800
F800
F800
F800
FFFC
FFFC
FFFC
FFFC
FFFC
ENDCHAR
STARTCHAR ebreve
ENCODING 277
SWIDTH 363 0
DWIDTH 17 0
BBX 14 42 2 0
BITMAP
3838
3878
3870
3FF0
1FE0
0FC0
0000
0000
FFFC
FFFC
FFFC
FFFC
FFFC
F800
F800
F800
F800
F800
F800
F800
F800
F800
FFF8
FFF8
FFF8
FFF8
FFF8
F800
F800
F800
F800
F800
F800
F800
F800
F800
F800
FFFC
FFFC
FFFC
FFFC
FFFC
ENDCHAR
STARTCHAR Edotaccent
ENCODING 278
SWIDTH 363 0
DWIDTH 17 0
BBX 14 41 2 0
BITMAP
07C0
07C0
07C0
07C0
07C0
0000
0000
FFFC
FFFC
FFFC
FFFC
FFFC
F800
F800
F800
F800
F800
F800
F800
F800
F800
FFF8
FFF8
FFF8
FFF8
FFF8
F800
F800
F800
F800
F800
F800
F800
F800
F800
F800
FFFC
FFFC
FFFC
FFFC
FFFC
ENDCHAR
STARTCHAR edotaccent
ENCODING 279
SWIDTH 363 0
DWIDTH 17 0
BBX 14 41 2 0
BITMAP
07C0
07C0
07C0
07C0
07C0
0000
0000
FFFC
FFFC
FFFC
FFFC
FFFC
F800
F800
F800
F800
F800
F800
F800
F800
F800
FFF8
FFF8
FFF8
FFF8
FFF8
F800
F800
F800
F800
F800
F800
F800
F800
F800
F800
FFFC
FFFC
FFFC
FFFC
FFFC
ENDCHAR
STARTCHAR Eogonek
ENCODING 280
SWIDTH 363 0
DWIDTH 17 0
BBX 14 41 2 -7
BITMAP
FFFC
FFFC
FFFC
FFFC
FFFC
F800
F800
F800
F800
F800
F800
F800
F800
F800
FFF8
FFF8
FFF8
FFF8
FFF8
F800
F800
F800
F800
F800
F800
F800
F800
F800
F800
FFFC
FFFC
FFFC
FFFC
FFFC
0070
00E0
01E0
01E0
01FC
01FC
00FC
ENDCHAR
STARTCHAR eogonek
ENCODING 281
SWIDTH 363 0
DWIDTH 17 0
BBX 14 41 2 -7
BITMAP
FFFC
FFFC
FFFC
FFFC
FFFC
F800
F800
F800
F800
F800
F800
F800
F800
F800
FFF8
FFF8
FFF8
FFF8
FFF8
F800
F800
F800
F800
F800
F800
F800
F800
F800
F800
FFFC
FFFC
FFFC
FFFC
FFFC
0070
00E0
01E0
01E0
01FC
01FC
00FC
ENDCHAR
STARTCHAR Ecaron
ENCODING 282
SWIDTH 363 0
DWIDTH 17 0
BBX 14 42 2 0
BITMAP
783C
7C78
3EF0
1FE0
0FE0
0FC0
0000
0000
FFFC
FFFC
FFFC
FFFC
FFFC
F800
F800
F800
F800
F800
F800
F800
F800
F800
FFF8
FFF8
FFF8
FFF8
FFF8
F800
F800
F800
F800
F800
F800
F800
F800
F800
F800
FFFC
FFFC
FFFC
FFFC
FFFC
ENDCHAR
STARTCHAR ecaron
ENCODING 283
SWIDTH 363 0
DWIDTH 17 0
BBX 14 42 2 0
BITMAP
783C
7C78
3EF0
1FE0
0FE0
0FC0
0000
0000
FFFC
FFFC
FFFC
FFFC
FFFC
F800
F800
F800
F800
F800
F800
F800
F800
F800
FFF8
FFF8
FFF8
FFF8
FFF8
F800
F800
F800
F800
F800
F800
F800
F800
F800
F800
FFFC
FFFC
FFFC
FFFC
FFFC
ENDCHAR
STARTCHAR Gcircumflex
ENCODING 284
SWIDTH 391 0
DWIDTH 19 0
BBX 15 42 2 0
BITMAP
07C0
0FE0
0FE0
1EF0
3CF8
787C
0000
0000
0FE0
3FF8
7FFC
7FFC
FFFE
FC3E
F83E
F83E
F83E
F83E
F83E
F800
F800
F800
F800
F8FE
F8FE
F8FE
F8FE
F8FE
F83E
F83E
F83E
F83E
F83E
F83E
F83E
F83E
FC3E
FFFE
7FFC
7FFC
3FF8
0FE0
ENDCHAR
STARTCHAR gcircumflex
ENCODING 285
SWIDTH 391 0
DWIDTH 19 0
BBX 15 42 2 0
BITMAP
07C0
0FE0
0FE0
1EF0
3CF8
787C
0000
0000
0FE0
3FF8
7FFC
7FFC
FFFE
FC3E
F83E
F83E
F83E
F83E
F83E
F800
F800
F800
F800
F8FE
F8FE
F8FE
F8FE
F8FE
F83E
F83E
F83E
F83E
F83E
F83E
F83E
F83E
FC3E
FFFE
7FFC
7FFC
3FF8
0FE0
ENDCHAR
STARTCHAR Gbreve
ENCODING 286
SWIDTH 391 0
DWIDTH 19 0
BBX 15 42 2 0
BITMAP
3838
3838
3C78
1FF0
1FF0
07C0
0000
0000
0FE0
3FF8
7FFC
7FFC
FFFE
FC3E
F83E
F83E
F83E
F83E
F83E
F800
F800
F800
F800
F8FE
F8FE
F8FE
F8FE
F8FE
F83E
F83E
F83E
F83E
F83E
F83E
F83E
F83E
FC3E
FFFE
7FFC
7FFC
3FF8
0FE0
ENDCHAR
STARTCHAR gbreve
ENCODING 287
SWIDTH 391 0
DWIDTH 19 0
BBX 15 42 2 0
BITMAP
3838
3838
3C78
1FF0
1FF0
07C0
0000
0000
0FE0
3FF8
7FFC
7FFC
FFFE
FC3E
F83E
F83E
F83E
F83E
F83E
F800
F800
F800
F800
F8FE
F8FE
F8FE
F8FE
F8FE
F83E
F83E
F83E
F83E
F83E
F83E
F83E
F83E
FC3E
FFFE
7FFC
7FFC
3FF8
0FE0
ENDCHAR
STARTCHAR Gdotaccent
ENCODING 288
SWIDTH 391 0
DWIDTH 19 0
BBX 15 41 2 0
BITMAP
07C0
07C0
07C0
07C0
07C0
0000
0000
0FE0
3FF8
7FFC
7FFC
FFFE
FC3E
F83E
F83E
F83E
F83E
F83E
F800
F800
F800
F800
F8FE
F8FE
F8FE
F8FE
F8FE
F83E
F83E
F83E
F83E
F83E
F83E
F83E
F83E
FC3E
FFFE
7FFC
7FFC
3FF8
0FE0
ENDCHAR
STARTCHAR gdotaccent
ENCODING 289
SWIDTH 391 0
DWIDTH 19 0
BBX 15 41 2 0
BITMAP
07C0
07C0
07C0
07C0
07C0
0000
0000
0FE0
3FF8
7FFC
7FFC
FFFE
FC3E
F83E
F83E
F83E
F83E
F83E
F800
F800
F800
F800
F8FE
F8FE
F8FE
F8FE
F8FE
F83E
F83E
F83E
F83E
F83E
F83E
F83E
F83E
FC3E
FFFE
7FFC
7FFC
3FF8
0FE0
ENDCHAR
STARTCHAR uni0122
ENCODING 290
SWIDTH 391 0
DWIDTH 19 0
BBX 15 42 2 -8
BITMAP
0FE0
3FF8
7FFC
7FFC
FFFE
FC3E
F83E
F83E
F83E
F83E
F83E
F800
F800
F800
F800
F8FE
F8FE
F8FE
F8FE
F8FE
F83E
F83E
F83E
F83E
F83E
F83E
F83E
F83E
FC3E
FFFE
7FFC
7FFC
3FF8
0FE0
0000
07C0
07C0
07C0
07C0
07C0
0180
0300
ENDCHAR
STARTCHAR uni0123
ENCODING 291
SWIDTH 391 0
DWIDTH 19 0
BBX 15 42 2 -8
BITMAP
0FE0
3FF8
7FFC
7FFC
FFFE
FC3E
F83E
F83E
F83E
F83E
F83E
F800
F800
F800
F800
F8FE
F8FE
F8FE
F8FE
F8FE
F83E
F83E
F83E
F83E
F83E
F83E
F83E
F83E
FC3E
FFFE
7FFC
7FFC
3FF8
0FE0
0000
07C0
07C0
07C0
07C0
07C0
0180
0300
ENDCHAR
STARTCHAR Hcircumflex
ENCODING 292
SWIDTH 420 0
DWIDTH 20 0
BBX 16 42 2 0
BITMAP
03E0
07E0
0FF0
1FF8
1E78
3C3E
0000
0000
F81F
F81F
F81F
F81F
F81F
F81F
F81F
F81F
F81F
F81F
F81F
F81F
F81F
F81F
FFFF
FFFF
FFFF
FFFF
FFFF
F81F
F81F
F81F
F81F
F81F
F81F
F81F
F81F
F81F
F81F
F81F
F81F
F81F
F81F
F81F
ENDCHAR
STARTCHAR hcircumflex
ENCODING 293
SWIDTH 420 0
DWIDTH 20 0
BBX 16 42 2 0
BITMAP
03E0
07E0
0FF0
1FF8
1E78
3C3E
0000
0000
F81F
F81F
F81F
F81F
F81F
F81F
F81F
F81F
F81F
F81F
F81F
F81F
F81F
F81F
FFFF
FFFF
FFFF
FFFF
FFFF
F81F
F81F
F81F
F81F
F81F
F81F
F81F
F81F
F81F
F81F
F81F
F81F
F81F
F81F
F81F
ENDCHAR
STARTCHAR Hbar
ENCODING 294
SWIDTH 438 0
DWIDTH 21 0
BBX 21 34 0 0
BITMAP
3F07E0
3F07E0
3F07E0
3F07E0
3F07E0
FFFFF8
FFFFF8
FFFFF8
FFFFF8
FFFFF8
3F07E0
3F07E0
3F07E0
3F07E0
3FFFE0
3FFFE0
3FFFE0
3FFFE0
3FFFE0
3F07E0
3F07E0
3F07E0
3F07E0
3F07E0
3F07E0
3F07E0
3F07E0
3F07E0
3F07E0
3F07E0
3F07E0
3F07E0
3F07E0
3F07E0
ENDCHAR
STARTCHAR hbar
ENCODING 295
SWIDTH 438 0
DWIDTH 21 0
BBX 21 34 0 0
BITMAP
3F07E0
3F07E0
3F07E0
3F07E0
3F07E0
FFFFF8
FFFFF8
FFFFF8
FFFFF8
FFFFF8
3F07E0
3F07E0
3F07E0
3F07E0
3FFFE0
3FFFE0
3FFFE0
3FFFE0
3FFFE0
3F07E0
3F07E0
3F07E0
3F07E0
3F07E0
3F07E0
3F07E0
3F07E0
3F07E0
3F07E0
3F07E0
3F07E0
3F07E0
3F07E0
3F07E0
ENDCHAR
STARTCHAR Itilde
ENCODING 296
SWIDTH 192 0
DWIDTH 9 0
BBX 13 41 -2 0
BITMAP
1E38
7FF8
7FF0
FFF0
63E0
0000
0000
0F80
0F80
0F80
0F80
0F80
0F80
0F80
0F80
0F80
0F80
0F80
0F80
0F80
0F80
0F80
0F80
0F80
0F80
0F80
0F80
0F80
0F80
0F80
0F80
0F80
0F80
0F80
0F80
0F80
0F80
0F80
0F80
0F80
0F80
ENDCHAR
STARTCHAR itilde
ENCODING 297
SWIDTH 192 0
DWIDTH 9 0
BBX 13 41 -2 0
BITMAP
1E38
7FF8
7FF0
FFF0
63E0
0000
0000
0F80
0F80
0F80
0F80
0F80
0F80
0F80
0F80
0F80
0F80
0F80
0F80
0F80
0F80
0F80
0F80
0F80
0F80
0F80
0F80
0F80
0F80
0F80
0F80
0F80
0F80
0F80
0F80
0F80
0F80
0F80
0F80
0F80
0F80
ENDCHAR
STARTCHAR Imacron
ENCODING 298
SWIDTH 192 0
DWIDTH 9 0
BBX 11 40 -1 0
BITMAP
FFE0
FFE0
FFE0
FFE0
0000
0000
1F00
1F00
1F00
1F00
1F00
1F00
1F00
1F00
1F00
1F00
1F00
1F00
1F00
1F00
1F00
1F00
1F00
1F00
1F00
1F00
1F00
1F00
1F00
1F00
1F00
1F00
1F00
1F00
1F00
1F00
1F00
1F00
1F00
1F00
ENDCHAR
STARTCHAR imacron
ENCODING 299
SWIDTH 192 0
DWIDTH 9 0
BBX 11 40 -1 0
BITMAP
FFE0
FFE0
FFE0
FFE0
0000
0000
1F00
1F00
1F00
1F00
1F00
1F00
1F00
1F00
1F00
1F00
1F00
1F00
1F00
1F00
1F00
1F00
1F00
1F00
1F00
1F00
1F00
1F00
1F00
1F00
1F00
1F00
1F00
1F00
1F00
1F00
1F00
1F00
1F00
1F00
ENDCHAR
STARTCHAR Ibreve
ENCODING 300
SWIDTH 192 0
DWIDTH 9 0
BBX 11 42 -1 0
BITMAP
E0E0
E0E0
F1E0
7FC0
7FC0
1F00
0000
0000
1F00
1F00
1F00
1F00
1F00
1F00
1F00
1F00
1F00
1F00
1F00
1F00
1F00
1F00
1F00
1F00
1F00
1F00
1F00
1F00
1F00
1F00
1F00
1F00
1F00
1F00
1F00
1F00
1F00
1F00
1F00
1F00
1F00
1F00
ENDCHAR
STARTCHAR ibreve
ENCODING 301
SWIDTH 192 0
DWIDTH 9 0
BBX 11 42 -1 0
BITMAP
E0E0
E0E0
F1E0
7FC0
7FC0
1F00
0000
0000
1F00
1F00
1F00
1F00
1F00
1F00
1F00
1F00
1F00
1F00
1F00
1F00
1F00
1F00
1F00
1F00
1F00
1F00
1F00
1F00
1F00
1F00
1F00
1F00
1F00
1F00
1F00
1F00
1F00
1F00
1F00
1F00
1F00
1F00
ENDCHAR
STARTCHAR Iogonek
ENCODING 302
SWIDTH 192 0
DWIDTH 9 0
BBX 7 41 1 -7
BITMAP
7C
7C
7C
7C
7C
7C
7C
7C
7C
7C
7C
7C
7C
7C
7C
7C
7C
7C
7C
7C
7C
7C
7C
7C
7C
7C
7C
7C
7C
7C
7C
7C
7C
7C
38
70
F0
F0
FE
FE
7E
ENDCHAR
STARTCHAR iogonek
ENCODING 303
SWIDTH 192 0
DWIDTH 9 0
BBX 7 41 1 -7
BITMAP
7C
7C
7C
7C
7C
7C
7C
7C
7C
7C
7C
7C
7C
7C
7C
7C
7C
7C
7C
7C
7C
7C
7C
7C
7C
7C
7C
7C
7C
7C
7C
7C
7C
7C
38
70
F0
F0
FE
FE
7E
ENDCHAR
STARTCHAR Idotaccent
ENCODING 304
SWIDTH 192 0
DWIDTH 9 0
BBX 5 41 2 0
BITMAP
F8
F8
F8
F8
F8
00
00
F8
F8
F8
F8
F8
F8
F8
F8
F8
F8
F8
F8
F8
F8
F8
F8
F8
F8
F8
F8
F8
F8
F8
F8
F8
F8
F8
F8
F8
F8
F8
F8
F8
F8
ENDCHAR
STARTCHAR dotlessi
ENCODING 305
SWIDTH 192 0
DWIDTH 9 0
BBX 5 34 2 0
BITMAP
F8
F8
F8
F8
F8
F8
F8
F8
F8
F8
F8
F8
F8
F8
F8
F8
F8
F8
F8
F8
F8
F8
F8
F8
F8
F8
F8
F8
F8
F8
F8
F8
F8
F8
ENDCHAR
STARTCHAR IJ
ENCODING 306
SWIDTH 457 0
DWIDTH 22 0
BBX 18 34 2 0
BITMAP
F807C0
F807C0
F807C0
F807C0
F807C0
F807C0
F807C0
F807C0
F807C0
F807C0
F807C0
F807C0
F807C0
F807C0
F807C0
F807C0
F807C0
F807C0
F807C0
F807C0
F807C0
F807C0
F807C0
F807C0
F807C0
F807C0
F807C0
F807C0
F80FC0
F8FFC0
F8FF80
F8FF80
F8FF00
F8FC00
ENDCHAR
STARTCHAR ij
ENCODING 307
SWIDTH 457 0
DWIDTH 22 0
BBX 18 34 2 0
BITMAP
F807C0
F807C0
F807C0
F807C0
F807C0
F807C0
F807C0
F807C0
F807C0
F807C0
F807C0
F807C0
F807C0
F807C0
F807C0
F807C0
F807C0
F807C0
F807C0
F807C0
F807C0
F807C0
F807C0
F807C0
F807C0
F807C0
F807C0
F807C0
F80FC0
F8FFC0
F8FF80
F8FF80
F8FF00
F8FC00
ENDCHAR
STARTCHAR Jcircumflex
ENCODING 308
SWIDTH 265 0
DWIDTH 13 0
BBX 13 42 1 0
BITMAP
0F80
1FC0
1FC0
3DE0
78F0
F878
0000
0000
07C0
07C0
07C0
07C0
07C0
07C0
07C0
07C0
07C0
07C0
07C0
07C0
07C0
07C0
07C0
07C0
07C0
07C0
07C0
07C0
07C0
07C0
07C0
07C0
07C0
07C0
07C0
0FC0
0FC0
FF80
FF80
FF00
FE00
FC00
ENDCHAR
STARTCHAR jcircumflex
ENCODING 309
SWIDTH 265 0
DWIDTH 13 0
BBX 13 42 1 0
BITMAP
0F80
1FC0
1FC0
3DE0
78F0
F878
0000
0000
07C0
07C0
07C0
07C0
07C0
07C0
07C0
07C0
07C0
07C0
07C0
07C0
07C0
07C0
07C0
07C0
07C0
07C0
07C0
07C0
07C0
07C0
07C0
07C0
07C0
07C0
07C0
0FC0
0FC0
FF80
FF80
FF00
FE00
FC00
ENDCHAR
STARTCHAR uni0136
ENCODING 310
SWIDTH 414 0
DWIDTH 20 0
BBX 17 42 2 -8
BITMAP
F80F80
F81F80
F81F00
F83F00
F83E00
F87E00
F87C00
F87C00
F8F800
F8F800
F9F000
F9F000
FBE000
FBE000
FFE000
FFF000
FFF000
FFF000
FFF800
FFF800
FEF800
FCFC00
FCFC00
F87C00
F87C00
F87E00
F83E00
F83E00
F83F00
F83F00
F81F00
F81F80
F81F80
F80F80
000000
03E000
03E000
03E000
03E000
03E000
00C000
018000
ENDCHAR
STARTCHAR uni0137
ENCODING 311
SWIDTH 414 0
DWIDTH 20 0
BBX 17 42 2 -8
BITMAP
F80F80
F81F80
F81F00
F83F00
F83E00
F87E00
F87C00
F87C00
F8F800
F8F800
F9F000
F9F000
FBE000
FBE000
FFE000
FFF000
FFF000
FFF000
FFF800
FFF800
FEF800
FCFC00
FCFC00
F87C00
F87C00
F87E00
F83E00
F83E00
F83F00
F83F00
F81F00
F81F80
F81F80
F80F80
000000
03E000
03E000
03E000
03E000
03E000
00C000
018000
ENDCHAR
STARTCHAR kgreenlandic
ENCODING 312
SWIDTH 414 0
DWIDTH 20 0
BBX 17 34 2 0
BITMAP
F80F80
F81F80
F81F00
F83F00
F83E00
F87E00
F87C00
F87C00
F8F800
F8F800
F9F000
F9F000
FBE000
FBE000
FFE000
FFF000
FFF000
FFF000
FFF800
FFF800
FEF800
FCFC00
FCFC00
F87C00
F87C00
F87E00
F83E00
F83E00
F83F00
F83F00
F81F00
F81F80
F81F80
F80F80
ENDCHAR
STARTCHAR Lacute
ENCODING 313
SWIDTH 344 0
DWIDTH 17 0
BBX 14 42 2 0
BITMAP
1F80
1F00
3E00
3C00
7C00
F800
0000
0000
F800
F800
F800
F800
F800
F800
F800
F800
F800
F800
F800
F800
F800
F800
F800
F800
F800
F800
F800
F800
F800
F800
F800
F800
F800
F800
F800
F800
F800
FFFC
FFFC
FFFC
FFFC
FFFC
ENDCHAR
STARTCHAR lacute
ENCODING 314
SWIDTH 344 0
DWIDTH 17 0
BBX 14 42 2 0
BITMAP
1F80
1F00
3E00
3C00
7C00
F800
0000
0000
F800
F800
F800
F800
F800
F800
F800
F800
F800
F800
F800
F800
F800
F800
F800
F800
F800
F800
F800
F800
F800
F800
F800
F800
F800
F800
F800
F800
F800
FFFC
FFFC
FFFC
FFFC
FFFC
ENDCHAR
STARTCHAR uni013B
ENCODING 315
SWIDTH 344 0
DWIDTH 17 0
BBX 14 42 2 -8
BITMAP
F800
F800
F800
F800
F800
F800
F800
F800
F800
F800
F800
F800
F800
F800
F800
F800
F800
F800
F800
F800
F800
F800
F800
F800
F800
F800
F800
F800
F800
FFFC
FFFC
FFFC
FFFC
FFFC
0000
0780
0780
0780
0780
0780
0300
0700
ENDCHAR
STARTCHAR uni013C
ENCODING 316
SWIDTH 344 0
DWIDTH 17 0
BBX 14 42 2 -8
BITMAP
F800
F800
F800
F800
F800
F800
F800
F800
F800
F800
F800
F800
F800
F800
F800
F800
F800
F800
F800
F800
F800
F800
F800
F800
F800
F800
F800
F800
F800
FFFC
FFFC
FFFC
FFFC
FFFC
0000
0780
0780
0780
0780
0780
0300
0700
ENDCHAR
STARTCHAR Lcaron
ENCODING 317
SWIDTH 344 0
DWIDTH 17 0
BBX 14 34 2 0
BITMAP
F8F8
F8F8
F8F8
F8F8
F8F8
F830
F870
F870
F860
F860
F800
F800
F800
F800
F800
F800
F800
F800
F800
F800
F800
F800
F800
F800
F800
F800
F800
F800
F800
FFFC
FFFC
FFFC
FFFC
FFFC
ENDCHAR
STARTCHAR lcaron
ENCODING 318
SWIDTH 344 0
DWIDTH 17 0
BBX 14 34 2 0
BITMAP
F8F8
F8F8
F8F8
F8F8
F8F8
F830
F870
F870
F860
F860
F800
F800
F800
F800
F800
F800
F800
F800
F800
F800
F800
F800
F800
F800
F800
F800
F800
F800
F800
FFFC
FFFC
FFFC
FFFC
FFFC
ENDCHAR
STARTCHAR Ldot
ENCODING 319
SWIDTH 343 0
DWIDTH 16 0
BBX 14 34 2 0
BITMAP
F800
F800
F800
F800
F800
F800
F800
F800
F800
F800
F800
F800
F800
F800
F800
F8F8
F8F8
F8F8
F8F8
F8F8
F800
F800
F800
F800
F800
F800
F800
F800
F800
FFFC
FFFC
FFFC
FFFC
FFFC
ENDCHAR
STARTCHAR ldot
ENCODING 320
SWIDTH 343 0
DWIDTH 16 0
BBX 14 34 2 0
BITMAP
F800
F800
F800
F800
F800
F800
F800
F800
F800
F800
F800
F800
F800
F800
F800
F8F8
F8F8
F8F8
F8F8
F8F8
F800
F800
F800
F800
F800
F800
F800
F800
F800
FFFC
FFFC
FFFC
FFFC
FFFC
ENDCHAR
STARTCHAR Lslash
ENCODING 321
SWIDTH 364 0
DWIDTH 17 0
BBX 17 34 0 0
BITMAP
1F0000
1F0000
1F0000
1F0000
1F0000
1F0000
1F0000
1F0000
1F0000
1F0400
1F0C00
1F1C00
1F3C00
1F7C00
1FFC00
1FF800
1FF000
1FE000
1FC000
1F8000
1F0000
3F0000
7F0000
FF0000
FF0000
FF0000
FF0000
DF0000
9F0000
1FFF80
1FFF80
1FFF80
1FFF80
1FFF80
ENDCHAR
STARTCHAR lslash
ENCODING 322
SWIDTH 364 0
DWIDTH 17 0
BBX 17 34 0 0
BITMAP
1F0000
1F0000
1F0000
1F0000
1F0000
1F0000
1F0000
1F0000
1F0000
1F0400
1F0C00
1F1C00
1F3C00
1F7C00
1FFC00
1FF800
1FF000
1FE000
1FC000
1F8000
1F0000
3F0000
7F0000
FF0000
FF0000
FF0000
FF0000
DF0000
9F0000
1FFF80
1FFF80
1FFF80
1FFF80
1FFF80
ENDCHAR
STARTCHAR Nacute
ENCODING 323
SWIDTH 427 0
DWIDTH 21 0
BBX 17 42 2 0
BITMAP
00FE00
00F800
01F000
01F000
03E000
07C000
000000
000000
FE0F80
FE0F80
FE0F80
FE0F80
FF0F80
FF0F80
FF0F80
FF0F80
FF8F80
FF8F80
FF8F80
FF8F80
FBCF80
FBCF80
FBCF80
FBCF80
F9EF80
F9EF80
F9EF80
F9EF80
F8FF80
F8FF80
F8FF80
F8FF80
F87F80
F87F80
F87F80
F87F80
F83F80
F83F80
F83F80
F83F80
F81F80
F81F80
ENDCHAR
STARTCHAR nacute
ENCODING 324
SWIDTH 427 0
DWIDTH 21 0
BBX 17 42 2 0
BITMAP
00FE00
00F800
01F000
01F000
03E000
07C000
000000
000000
FE0F80
FE0F80
FE0F80
FE0F80
FF0F80
FF0F80
FF0F80
FF0F80
FF8F80
FF8F80
FF8F80
FF8F80
FBCF80
FBCF80
FBCF80
FBCF80
F9EF80
F9EF80
F9EF80
F9EF80
F8FF80
F8FF80
F8FF80
F8FF80
F87F80
F87F80
F87F80
F87F80
F83F80
F83F80
F83F80
F83F80
F81F80
F81F80
ENDCHAR
STARTCHAR uni0145
ENCODING 325
SWIDTH 427 0
DWIDTH 21 0
BBX 17 42 2 -8
BITMAP
FE0F80
FE0F80
FE0F80
FE0F80
FF0F80
FF0F80
FF0F80
FF0F80
FF8F80
FF8F80
FF8F80
FF8F80
FBCF80
FBCF80
FBCF80
FBCF80
F9EF80
F9EF80
F9EF80
F9EF80
F8FF80
F8FF80
F8FF80
F8FF80
F87F80
F87F80
F87F80
F87F80
F83F80
F83F80
F83F80
F83F80
F81F80
F81F80
000000
03C000
03C000
03C000
03C000
03C000
00C000
018000
ENDCHAR
STARTCHAR uni0146
ENCODING 326
SWIDTH 427 0
DWIDTH 21 0
BBX 17 42 2 -8
BITMAP
FE0F80
FE0F80
FE0F80
FE0F80
FF0F80
FF0F80
FF0F80
FF0F80
FF8F80
FF8F80
FF8F80
FF8F80
FBCF80
FBCF80
FBCF80
FBCF80
F9EF80
F9EF80
F9EF80
F9EF80
F8FF80
F8FF80
F8FF80
F8FF80
F87F80
F87F80
F87F80
F87F80
F83F80
F83F80
F83F80
F83F80
F81F80
F81F80
000000
03C000
03C000
03C000
03C000
03C000
00C000
018000
ENDCHAR
STARTCHAR Ncaron
ENCODING 327
SWIDTH 427 0
DWIDTH 21 0
BBX 17 42 2 0
BITMAP
3C1E00
1E3C00
1F7800
0FF800
07F000
07E000
000000
000000
FE0F80
FE0F80
FE0F80
FE0F80
FF0F80
FF0F80
FF0F80
FF0F80
FF8F80
FF8F80
FF8F80
FF8F80
FBCF80
FBCF80
FBCF80
FBCF80
F9EF80
F9EF80
F9EF80
F9EF80
F8FF80
F8FF80
F8FF80
F8FF80
F87F80
F87F80
F87F80
F87F80
F83F80
F83F80
F83F80
F83F80
F81F80
F81F80
ENDCHAR
STARTCHAR ncaron
ENCODING 328
SWIDTH 427 0
DWIDTH 21 0
BBX 17 42 2 0
BITMAP
3C1E00
1E3C00
1F7800
0FF800
07F000
07E000
000000
000000
FE0F80
FE0F80
FE0F80
FE0F80
FF0F80
FF0F80
FF0F80
FF0F80
FF8F80
FF8F80
FF8F80
FF8F80
FBCF80
FBCF80
FBCF80
FBCF80
F9EF80
F9EF80
F9EF80
F9EF80
F8FF80
F8FF80
F8FF80
F8FF80
F87F80
F87F80
F87F80
F87F80
F83F80
F83F80
F83F80
F83F80
F81F80
F81F80
ENDCHAR
STARTCHAR napostrophe
ENCODING 329
SWIDTH 542 0
DWIDTH 26 0
BBX 24 34 0 0
BITMAP
01FC1F
F9FC1F
F9FE1F
F9FE1F
F9FE1F
F9FE1F
39FF1F
31FF1F
71FF1F
71FF1F
61F79F
01F79F
01F79F
01F79F
01F3DF
01F3DF
01F3DF
01F3DF
01F1FF
01F1FF
01F1FF
01F1FF
01F0FF
01F0FF
01F0FF
01F0FF
01F07F
01F07F
01F07F
01F07F
01F03F
01F03F
01F03F
01F03F
ENDCHAR
STARTCHAR Eng
ENCODING 330
SWIDTH 427 0
DWIDTH 21 0
BBX 17 42 2 -8
BITMAP
FE0F80
FE0F80
FE0F80
FF0F80
FF0F80
FF0F80
FF0F80
FF8F80
FF8F80
FF8F80
FF8F80
FFCF80
FBCF80
FBCF80
FBCF80
F9EF80
F9EF80
F9EF80
F9EF80
F8FF80
F8FF80
F8FF80
F8FF80
F87F80
F87F80
F87F80
F83F80
F83F80
F83F80
F83F80
F81F80
F81F80
F81F80
F81F80
001F80
001F00
001F00
01FF00
01FF00
01FE00
01FC00
01F800
ENDCHAR
STARTCHAR eng
ENCODING 331
SWIDTH 427 0
DWIDTH 21 0
BBX 17 42 2 -8
BITMAP
FE0F80
FE0F80
FE0F80
FF0F80
FF0F80
FF0F80
FF0F80
FF8F80
FF8F80
FF8F80
FF8F80
FFCF80
FBCF80
FBCF80
FBCF80
F9EF80
F9EF80
F9EF80
F9EF80
F8FF80
F8FF80
F8FF80
F8FF80
F87F80
F87F80
F87F80
F83F80
F83F80
F83F80
F83F80
F81F80
F81F80
F81F80
F81F80
001F80
001F00
001F00
01FF00
01FF00
01FE00
01FC00
01F800
ENDCHAR
STARTCHAR Omacron
ENCODING 332
SWIDTH 400 0
DWIDTH 19 0
BBX 16 40 2 0
BITMAP
3FF8
3FF8
3FF8
3FF8
0000
0000
0FE0
3FF8
7FFC
7FFE
FFFE
FC3E
F83E
F83F
F83F
F83F
F83F
F83F
F83F
F83F
F83F
F83F
F83F
F83F
F83F
F83F
F83F
F83F
F83F
F83F
F83F
F83F
F83F
F83E
FC3E
FFFE
7FFE
7FFC
3FF8
0FE0
ENDCHAR
STARTCHAR omacron
ENCODING 333
SWIDTH 400 0
DWIDTH 19 0
BBX 16 40 2 0
BITMAP
3FF8
3FF8
3FF8
3FF8
0000
0000
0FE0
3FF8
7FFC
7FFE
FFFE
FC3E
F83E
F83F
F83F
F83F
F83F
F83F
F83F
F83F
F83F
F83F
F83F
F83F
F83F
F83F
F83F
F83F
F83F
F83F
F83F
F83F
F83F
F83E
FC3E
FFFE
7FFE
7FFC
3FF8
0FE0
ENDCHAR
STARTCHAR Obreve
ENCODING 334
SWIDTH 400 0
DWIDTH 19 0
BBX 16 42 2 0
BITMAP
3838
3838
3C78
1FF0
1FF0
07C0
0000
0000
0FE0
3FF8
7FFC
7FFE
FFFE
FC3E
F83E
F83F
F83F
F83F
F83F
F83F
F83F
F83F
F83F
F83F
F83F
F83F
F83F
F83F
F83F
F83F
F83F
F83F
F83F
F83F
F83F
F83E
FC3E
FFFE
7FFE
7FFC
3FF8
0FE0
ENDCHAR
STARTCHAR obreve
ENCODING 335
SWIDTH 400 0
DWIDTH 19 0
BBX 16 42 2 0
BITMAP
3838
3838
3C78
1FF0
1FF0
07C0
0000
0000
0FE0
3FF8
7FFC
7FFE
FFFE
FC3E
F83E
F83F
F83F
F83F
F83F
F83F
F83F
F83F
F83F
F83F
F83F
F83F
F83F
F83F
F83F
F83F
F83F
F83F
F83F
F83F
F83F
F83E
FC3E
FFFE
7FFE
7FFC
3FF8
0FE0
ENDCHAR
STARTCHAR Ohungarumlaut
ENCODING 336
SWIDTH 400 0
DWIDTH 19 0
BBX 17 42 2 0
BITMAP
0FDF80
0F9F00
1F3E00
1E3C00
3C7800
78F000
000000
000000
0FE000
3FF800
7FFC00
7FFE00
FFFE00
FC3E00
F83E00
F83F00
F83F00
F83F00
F83F00
F83F00
F83F00
F83F00
F83F00
F83F00
F83F00
F83F00
F83F00
F83F00
F83F00
F83F00
F83F00
F83F00
F83F00
F83F00
F83F00
F83E00
FC3E00
FFFE00
7FFE00
7FFC00
3FF800
0FE000
ENDCHAR
STARTCHAR ohungarumlaut
ENCODING 337
SWIDTH 400 0
DWIDTH 19 0
BBX 17 42 2 0
BITMAP
0FDF80
0F9F00
1F3E00
1E3C00
3C7800
78F000
000000
000000
0FE000
3FF800
7FFC00
7FFE00
FFFE00
FC3E00
F83E00
F83F00
F83F00
F83F00
F83F00
F83F00
F83F00
F83F00
F83F00
F83F00
F83F00
F83F00
F83F00
F83F00
F83F00
F83F00
F83F00
F83F00
F83F00
F83F00
F83F00
F83E00
FC3E00
FFFE00
7FFE00
7FFC00
3FF800
0FE000
ENDCHAR
STARTCHAR OE
ENCODING 338
SWIDTH 577 0
DWIDTH 28 0
BBX 25 34 2 0
BITMAP
0FFFFF80
3FFFFF80
7FFFFF80
7FFFFF80
FFFFFF80
FC3F0000
F83F0000
F83F0000
F83F0000
F83F0000
F83F0000
F83F0000
F83F0000
F83F0000
F83FFE00
F83FFE00
F83FFE00
F83FFE00
F83FFE00
F83F0000
F83F0000
F83F0000
F83F0000
F83F0000
F83F0000
F83F0000
F83F0000
F83F0000
FC3F0000
FFFFFF80
7FFFFF80
7FFFFF80
3FFFFF80
0FFFFF80
ENDCHAR
STARTCHAR oe
ENCODING 339
SWIDTH 577 0
DWIDTH 28 0
BBX 25 34 2 0
BITMAP
0FFFFF80
3FFFFF80
7FFFFF80
7FFFFF80
FFFFFF80
FC3F0000
F83F0000
F83F0000
F83F0000
F83F0000
F83F0000
F83F0000
F83F0000
F83F0000
F83FFE00
F83FFE00
F83FFE00
F83FFE00
F83FFE00
F83F0000
F83F0000
F83F0000
F83F0000
F83F0000
F83F0000
F83F0000
F83F0000
F83F0000
FC3F0000
FFFFFF80
7FFFFF80
7FFFFF80
3FFFFF80
0FFFFF80
ENDCHAR
STARTCHAR Racute
ENCODING 340
SWIDTH 403 0
DWIDTH 19 0
BBX 16 42 2 0
BITMAP
01FC
01F0
03E0
03E0
07C0
0F80
0000
0000
FFE0
FFF8
FFFC
FFFE
FFFE
F83E
F83F
F83F
F83F
F83F
F83F
F83F
F83E
F83E
F87E
FFFC
FFF8
FFF8
FFFC
FFFE
F87E
F83E
F83F
F83F
F83F
F83F
F83F
F83F
F83F
F83F
F83F
F83F
F83F
F81F
ENDCHAR
STARTCHAR racute
ENCODING 341
SWIDTH 403 0
DWIDTH 19 0
BBX 16 42 2 0
BITMAP
01FC
01F0
03E0
03E0
07C0
0F80
0000
0000
FFE0
FFF8
FFFC
FFFE
FFFE
F83E
F83F
F83F
F83F
F83F
F83F
F83F
F83E
F83E
F87E
FFFC
FFF8
FFF8
FFFC
FFFE
F87E
F83E
F83F
F83F
F83F
F83F
F83F
F83F
F83F
F83F
F83F
F83F
F83F
F81F
ENDCHAR
STARTCHAR uni0156
ENCODING 342
SWIDTH 403 0
DWIDTH 19 0
BBX 16 42 2 -8
BITMAP
FFE0
FFF8
FFFC
FFFE
FFFE
F83E
F83F
F83F
F83F
F83F
F83F
F83F
F83E
F83E
F87E
FFFC
FFF8
FFF8
FFFC
FFFE
F87E
F83E
F83F
F83F
F83F
F83F
F83F
F83F
F83F
F83F
F83F
F83F
F83F
F81F
0000
03C0
03C0
03C0
03C0
03C0
0180
0380
ENDCHAR
STARTCHAR uni0157
ENCODING 343
SWIDTH 403 0
DWIDTH 19 0
BBX 16 42 2 -8
BITMAP
FFE0
FFF8
FFFC
FFFE
FFFE
F83E
F83F
F83F
F83F
F83F
F83F
F83F
F83E
F83E
F87E
FFFC
FFF8
FFF8
FFFC
FFFE
F87E
F83E
F83F
F83F
F83F
F83F
F83F
F83F
F83F
F83F
F83F
F83F
F83F
F81F
0000
03C0
03C0
03C0
03C0
03C0
0180
0380
ENDCHAR
STARTCHAR Rcaron
ENCODING 344
SWIDTH 403 0
DWIDTH 19 0
BBX 16 42 2 0
BITMAP
783C
3C78
3EF0
1FF0
0FE0
0FC0
0000
0000
FFE0
FFF8
FFFC
FFFE
FFFE
F83E
F83F
F83F
F83F
F83F
F83F
F83F
F83E
F83E
F87E
FFFC
FFF8
FFF8
FFFC
FFFE
F87E
F83E
F83F
F83F
F83F
F83F
F83F
F83F
F83F
F83F
F83F
F83F
F83F
F81F
ENDCHAR
STARTCHAR rcaron
ENCODING 345
SWIDTH 403 0
DWIDTH 19 0
BBX 16 42 2 0
BITMAP
783C
3C78
3EF0
1FF0
0FE0
0FC0
0000
0000
FFE0
FFF8
FFFC
FFFE
FFFE
F83E
F83F
F83F
F83F
F83F
F83F
F83F
F83E
F83E
F87E
FFFC
FFF8
FFF8
FFFC
FFFE
F87E
F83E
F83F
F83F
F83F
F83F
F83F
F83F
F83F
F83F
F83F
F83F
F83F
F81F
ENDCHAR
STARTCHAR Sacute
ENCODING 346
SWIDTH 372 0
DWIDTH 18 0
BBX 16 42 1 0
BITMAP
00FC
00F8
01F0
03E0
03C0
0780
0000
0000
07E0
1FF8
3FFC
7FFE
7FFE
FC3E
FC1F
F81F
F81F
FC1F
FC00
7E00
7E00
3F00
3F80
1FC0
0FF0
07F8
03F8
01FC
00FE
007E
003E
003F
F83F
F83F
F83F
F83F
FC3E
7FFE
7FFE
3FFC
1FF8
0FE0
ENDCHAR
STARTCHAR sacute
ENCODING 347
SWIDTH 372 0
DWIDTH 18 0
BBX 16 42 1 0
BITMAP
00FC
00F8
01F0
03E0
03C0
0780
0000
0000
07E0
1FF8
3FFC
7FFE
7FFE
FC3E
FC1F
F81F
F81F
FC1F
FC00
7E00
7E00
3F00
3F80
1FC0
0FF0
07F8
03F8
01FC
00FE
007E
003E
003F
F83F
F83F
F83F
F83F
FC3E
7FFE
7FFE
3FFC
1FF8
0FE0
ENDCHAR
STARTCHAR Scircumflex
ENCODING 348
SWIDTH 372 0
DWIDTH 18 0
BBX 16 42 1 0
BITMAP
07C0
07E0
0FF0
1FF8
1E78
7C3C
0000
0000
07E0
1FF8
3FFC
7FFE
7FFE
FC3E
FC1F
F81F
F81F
FC1F
FC00
7E00
7E00
3F00
3F80
1FC0
0FF0
07F8
03F8
01FC
00FE
007E
003E
003F
F83F
F83F
F83F
F83F
FC3E
7FFE
7FFE
3FFC
1FF8
0FE0
ENDCHAR
STARTCHAR scircumflex
ENCODING 349
SWIDTH 372 0
DWIDTH 18 0
BBX 16 42 1 0
BITMAP
07C0
07E0
0FF0
1FF8
1E78
7C3C
0000
0000
07E0
1FF8
3FFC
7FFE
7FFE
FC3E
FC1F
F81F
F81F
FC1F
FC00
7E00
7E00
3F00
3F80
1FC0
0FF0
07F8
03F8
01FC
00FE
007E
003E
003F
F83F
F83F
F83F
F83F
FC3E
7FFE
7FFE
3FFC
1FF8
0FE0
ENDCHAR
STARTCHAR Scedilla
ENCODING 350
SWIDTH 372 0
DWIDTH 18 0
BBX 16 41 1 -7
BITMAP
07E0
1FF8
3FFC
7FFE
7FFE
FC3E
FC3F
F81F
FC1F
FC1F
FC00
7C00
7E00
7F00
3F80
1FC0
1FE0
0FF0
07F8
01FC
00FC
007E
007E
003F
F83F
F83F
F81F
F83F
F83F
FC7E
7FFE
7FFE
3FFC
1FF8
03E0
0180
01E0
0070
1E70
1FF0
0FE0
ENDCHAR
STARTCHAR scedilla
ENCODING 351
SWIDTH 372 0
DWIDTH 18 0
BBX 16 41 1 -7
BITMAP
07E0
1FF8
3FFC
7FFE
7FFE
FC3E
FC3F
F81F
FC1F
FC1F
FC00
7C00
7E00
7F00
3F80
1FC0
1FE0
0FF0
07F8
01FC
00FC
007E
007E
003F
F83F
F83F
F81F
F83F
F83F
FC7E
7FFE
7FFE
3FFC
1FF8
03E0
0180
01E0
0070
1E70
1FF0
0FE0
ENDCHAR
STARTCHAR Scaron
ENCODING 352
SWIDTH 372 0
DWIDTH 18 0
BBX 16 42 1 0
BITMAP
783C
3C7C
1EF8
0FF0
0FF0
07E0
0000
0000
07E0
1FF8
3FFC
7FFE
7FFE
FC3E
FC1F
F81F
F81F
FC1F
FC00
7E00
7E00
3F00
3F80
1FC0
0FF0
07F8
03F8
01FC
00FE
007E
003E
003F
F83F
F83F
F83F
F83F
FC3E
7FFE
7FFE
3FFC
1FF8
0FE0
ENDCHAR
STARTCHAR scaron
ENCODING 353
SWIDTH 372 0
DWIDTH 18 0
BBX 16 42 1 0
BITMAP
783C
3C7C
1EF8
0FF0
0FF0
07E0
0000
0000
07E0
1FF8
3FFC
7FFE
7FFE
FC3E
FC1F
F81F
F81F
FC1F
FC00
7E00
7E00
3F00
3F80
1FC0
0FF0
07F8
03F8
01FC
00FE
007E
003E
003F
F83F
F83F
F83F
F83F
FC3E
7FFE
7FFE
3FFC
1FF8
0FE0
ENDCHAR
STARTCHAR uni0162
ENCODING 354
SWIDTH 364 0
DWIDTH 17 0
BBX 16 41 1 -7
BITMAP
FFFF
FFFF
FFFF
FFFF
FFFF
07C0
07C0
07C0
07C0
07C0
07C0
07C0
07C0
07C0
07C0
07C0
07C0
07C0
07C0
07C0
07C0
07C0
07C0
07C0
07C0
07C0
07C0
07C0
07C0
07C0
07C0
07C0
07C0
07C0
0180
0180
01E0
00F0
1C70
1FF0
0FE0
ENDCHAR
STARTCHAR uni0163
ENCODING 355
SWIDTH 364 0
DWIDTH 17 0
BBX 16 41 1 -7
BITMAP
FFFF
FFFF
FFFF
FFFF
FFFF
07C0
07C0
07C0
07C0
07C0
07C0
07C0
07C0
07C0
07C0
07C0
07C0
07C0
07C0
07C0
07C0
07C0
07C0
07C0
07C0
07C0
07C0
07C0
07C0
07C0
07C0
07C0
07C0
07C0
0180
0180
01E0
00F0
1C70
1FF0
0FE0
ENDCHAR
STARTCHAR Tcaron
ENCODING 356
SWIDTH 364 0
DWIDTH 17 0
BBX 16 42 1 0
BITMAP
783C
3C78
1EF8
1FF0
0FE0
07E0
0000
0000
FFFF
FFFF
FFFF
FFFF
FFFF
07C0
07C0
07C0
07C0
07C0
07C0
07C0
07C0
07C0
07C0
07C0
07C0
07C0
07C0
07C0
07C0
07C0
07C0
07C0
07C0
07C0
07C0
07C0
07C0
07C0
07C0
07C0
07C0
07C0
ENDCHAR
STARTCHAR tcaron
ENCODING 357
SWIDTH 364 0
DWIDTH 17 0
BBX 16 42 1 0
BITMAP
783C
3C78
1EF8
1FF0
0FE0
07E0
0000
0000
FFFF
FFFF
FFFF
FFFF
FFFF
07C0
07C0
07C0
07C0
07C0
07C0
07C0
07C0
07C0
07C0
07C0
07C0
07C0
07C0
07C0
07C0
07C0
07C0
07C0
07C0
07C0
07C0
07C0
07C0
07C0
07C0
07C0
07C0
07C0
ENDCHAR
STARTCHAR Tbar
ENCODING 358
SWIDTH 364 0
DWIDTH 17 0
BBX 16 34 1 0
BITMAP
FFFF
FFFF
FFFF
FFFF
FFFF
07C0
07C0
07C0
07C0
07C0
07C0
07C0
07C0
07C0
7FFC
7FFC
7FFC
7FFC
7FFC
07C0
07C0
07C0
07C0
07C0
07C0
07C0
07C0
07C0
07C0
07C0
07C0
07C0
07C0
07C0
ENDCHAR
STARTCHAR tbar
ENCODING 359
SWIDTH 364 0
DWIDTH 17 0
BBX 16 34 1 0
BITMAP
FFFF
FFFF
FFFF
FFFF
FFFF
07C0
07C0
07C0
07C0
07C0
07C0
07C0
07C0
07C0
7FFC
7FFC
7FFC
7FFC
7FFC
07C0
07C0
07C0
07C0
07C0
07C0
07C0
07C0
07C0
07C0
07C0
07C0
07C0
07C0
07C0
ENDCHAR
STARTCHAR Utilde
ENCODING 360
SWIDTH 402 0
DWIDTH 19 0
BBX 16 41 2 0
BITMAP
0F1C
3FFC
3FF8
7FF8
31F0
0000
0000
F83F
F83F
F83F
F83F
F83F
F83F
F83F
F83F
F83F
F83F
F83F
F83F
F83F
F83F
F83F
F83F
F83F
F83F
F83F
F83F
F83F
F83F
F83F
F83F
F83F
F83F
F83E
F83E
FC3E
FFFE
7FFC
7FFC
1FF8
0FE0
ENDCHAR
STARTCHAR utilde
ENCODING 361
SWIDTH 402 0
DWIDTH 19 0
BBX 16 41 2 0
BITMAP
0F1C
3FFC
3FF8
7FF8
31F0
0000
0000
F83F
F83F
F83F
F83F
F83F
F83F
F83F
F83F
F83F
F83F
F83F
F83F
F83F
F83F
F83F
F83F
F83F
F83F
F83F
F83F
F83F
F83F
F83F
F83F
F83F
F83F
F83E
F83E
FC3E
FFFE
7FFC
7FFC
1FF8
0FE0
ENDCHAR
STARTCHAR Umacron
ENCODING 362
SWIDTH 402 0
DWIDTH 19 0
BBX 16 40 2 0
BITMAP
3FF8
3FF8
3FF8
3FF8
0000
0000
F83F
F83F
F83F
F83F
F83F
F83F
F83F
F83F
F83F
F83F
F83F
F83F
F83F
F83F
F83F
F83F
F83F
F83F
F83F
F83F
F83F
F83F
F83F
F83F
F83F
F83F
F83E
F83E
FC3E
FFFE
7FFC
7FFC
1FF8
0FE0
ENDCHAR
STARTCHAR umacron
ENCODING 363
SWIDTH 402 0
DWIDTH 19 0
BBX 16 40 2 0
BITMAP
3FF8
3FF8
3FF8
3FF8
0000
0000
F83F
F83F
F83F
F83F
F83F
F83F
F83F
F83F
F83F
F83F
F83F
F83F
F83F
F83F
F83F
F83F
F83F
F83F
F83F
F83F
F83F
F83F
F83F
F83F
F83F
F83F
F83E
F83E
FC3E
FFFE
7FFC
7FFC
1FF8
0FE0
ENDCHAR
STARTCHAR Ubreve
ENCODING 364
SWIDTH 402 0
DWIDTH 19 0
BBX 16 42 2 0
BITMAP
3838
3838
3C78
1FF8
1FF0
07C0
0000
0000
F83F
F83F
F83F
F83F
F83F
F83F
F83F
F83F
F83F
F83F
F83F
F83F
F83F
F83F
F83F
F83F
F83F
F83F
F83F
F83F
F83F
F83F
F83F
F83F
F83F
F83F
F83E
F83E
FC3E
FFFE
7FFC
7FFC
1FF8
0FE0
ENDCHAR
STARTCHAR ubreve
ENCODING 365
SWIDTH 402 0
DWIDTH 19 0
BBX 16 42 2 0
BITMAP
3838
3838
3C78
1FF8
1FF0
07C0
0000
0000
F83F
F83F
F83F
F83F
F83F
F83F
F83F
F83F
F83F
F83F
F83F
F83F
F83F
F83F
F83F
F83F
F83F
F83F
F83F
F83F
F83F
F83F
F83F
F83F
F83F
F83F
F83E
F83E
FC3E
FFFE
7FFC
7FFC
1FF8
0FE0
ENDCHAR
STARTCHAR Uring
ENCODING 366
SWIDTH 402 0
DWIDTH 19 0
BBX 16 44 2 0
BITMAP
0380
07E0
0FE0
1E70
1C70
1C70
0FF0
0FE0
03C0
0000
F83F
F83F
F83F
F83F
F83F
F83F
F83F
F83F
F83F
F83F
F83F
F83F
F83F
F83F
F83F
F83F
F83F
F83F
F83F
F83F
F83F
F83F
F83F
F83F
F83F
F83F
F83E
F83E
FC3E
FFFE
7FFC
7FFC
1FF8
0FE0
ENDCHAR
STARTCHAR uring
ENCODING 367
SWIDTH 402 0
DWIDTH 19 0
BBX 16 44 2 0
BITMAP
0380
07E0
0FE0
1E70
1C70
1C70
0FF0
0FE0
03C0
0000
F83F
F83F
F83F
F83F
F83F
F83F
F83F
F83F
F83F
F83F
F83F
F83F
F83F
F83F
F83F
F83F
F83F
F83F
F83F
F83F
F83F
F83F
F83F
F83F
F83F
F83F
F83E
F83E
FC3E
FFFE
7FFC
7FFC
1FF8
0FE0
ENDCHAR
STARTCHAR Uhungarumlaut
ENCODING 368
SWIDTH 402 0
DWIDTH 19 0
BBX 17 42 2 0
BITMAP
0FDF80
0F9F00
1F3E00
1E3C00
3C7800
78F000
000000
000000
F83F00
F83F00
F83F00
F83F00
F83F00
F83F00
F83F00
F83F00
F83F00
F83F00
F83F00
F83F00
F83F00
F83F00
F83F00
F83F00
F83F00
F83F00
F83F00
F83F00
F83F00
F83F00
F83F00
F83F00
F83F00
F83F00
F83E00
F83E00
FC3E00
FFFE00
7FFC00
7FFC00
1FF800
0FE000
ENDCHAR
STARTCHAR uhungarumlaut
ENCODING 369
SWIDTH 402 0
DWIDTH 19 0
BBX 17 42 2 0
BITMAP
0FDF80
0F9F00
1F3E00
1E3C00
3C7800
78F000
000000
000000
F83F00
F83F00
F83F00
F83F00
F83F00
F83F00
F83F00
F83F00
F83F00
F83F00
F83F00
F83F00
F83F00
F83F00
F83F00
F83F00
F83F00
F83F00
F83F00
F83F00
F83F00
F83F00
F83F00
F83F00
F83F00
F83F00
F83E00
F83E00
FC3E00
FFFE00
7FFC00
7FFC00
1FF800
0FE000
ENDCHAR
STARTCHAR Uogonek
ENCODING 370
SWIDTH 402 0
DWIDTH 19 0
BBX 16 41 2 -7
BITMAP
F83F
F83F
F83F
F83F
F83F
F83F
F83F
F83F
F83F
F83F
F83F
F83F
F83F
F83F
F83F
F83F
F83F
F83F
F83F
F83F
F83F
F83F
F83F
F83F
F83F
F83F
F83F
F83E
FC3E
FFFE
7FFE
7FFC
3FF8
0FF0
01C0
0380
0780
0780
07F0
07F0
01F0
ENDCHAR
STARTCHAR uogonek
ENCODING 371
SWIDTH 402 0
DWIDTH 19 0
BBX 16 41 2 -7
BITMAP
F83F
F83F
F83F
F83F
F83F
F83F
F83F
F83F
F83F
F83F
F83F
F83F
F83F
F83F
F83F
F83F
F83F
F83F
F83F
F83F
F83F
F83F
F83F
F83F
F83F
F83F
F83F
F83E
FC3E
FFFE
7FFE
7FFC
3FF8
0FF0
01C0
0380
0780
0780
07F0
07F0
01F0
ENDCHAR
STARTCHAR Wcircumflex
ENCODING 372
SWIDTH 557 0
DWIDTH 27 0
BBX 25 42 1 0
BITMAP
003E0000
007F0000
00FF0000
00F78000
01E7C000
03C3E000
00000000
00000000
F83F0F80
F83F0F80
F87F0F80
F87F0F80
F87F0F80
F87F0F00
F87F0F00
F87F0F00
7C7F0F00
7C7F0F00
7C7F9F00
7C7F9F00
7C779F00
7CF79F00
7CF79F00
7CF79E00
7CF79E00
7CF79E00
3CF79E00
3EF79E00
3EF39E00
3EE3DE00
3EE3FE00
3FE3FE00
3FE3FE00
3FE3FC00
3FE3FC00
3FE3FC00
1FE3FC00
1FE1FC00
1FE1FC00
1FC1FC00
1FC1FC00
1FC1FC00
ENDCHAR
STARTCHAR wcircumflex
ENCODING 373
SWIDTH 557 0
DWIDTH 27 0
BBX 25 42 1 0
BITMAP
003E0000
007F0000
00FF0000
00F78000
01E7C000
03C3E000
00000000
00000000
F83F0F80
F83F0F80
F87F0F80
F87F0F80
F87F0F80
F87F0F00
F87F0F00
F87F0F00
7C7F0F00
7C7F0F00
7C7F9F00
7C7F9F00
7C779F00
7CF79F00
7CF79F00
7CF79E00
7CF79E00
7CF79E00
3CF79E00
3EF79E00
3EF39E00
3EE3DE00
3EE3FE00
3FE3FE00
3FE3FE00
3FE3FC00
3FE3FC00
3FE3FC00
1FE3FC00
1FE1FC00
1FE1FC00
1FC1FC00
1FC1FC00
1FC1FC00
ENDCHAR
STARTCHAR Ycircumflex
ENCODING 374
SWIDTH 394 0
DWIDTH 19 0
BBX 18 42 0 0
BITMAP
01F000
03F800
03F800
07BC00
0F3E00
1E1F00
000000
000000
FC07C0
7C07C0
7E07C0
3E0F80
3E0F80
3F0F80
1F1F00
1F1F00
1F1F00
0F9E00
0FBE00
0FBE00
0FFC00
07FC00
07FC00
07F800
03F800
03F800
03F800
01F000
01F000
01F000
01F000
01F000
01F000
01F000
01F000
01F000
01F000
01F000
01F000
01F000
01F000
01F000
ENDCHAR
STARTCHAR ycircumflex
ENCODING 375
SWIDTH 394 0
DWIDTH 19 0
BBX 18 42 0 0
BITMAP
01F000
03F800
03F800
07BC00
0F3E00
1E1F00
000000
000000
FC07C0
7C07C0
7E07C0
3E0F80
3E0F80
3F0F80
1F1F00
1F1F00
1F1F00
0F9E00
0FBE00
0FBE00
0FFC00
07FC00
07FC00
07F800
03F800
03F800
03F800
01F000
01F000
01F000
01F000
01F000
01F000
01F000
01F000
01F000
01F000
01F000
01F000
01F000
01F000
01F000
ENDCHAR
STARTCHAR Ydieresis
ENCODING 376
SWIDTH 394 0
DWIDTH 19 0
BBX 18 41 0 0
BITMAP
1F1F00
1F1F00
1F1F00
1F1F00
1F1F00
000000
000000
FC07C0
7C07C0
7E07C0
3E0F80
3E0F80
3F0F80
1F1F00
1F1F00
1F1F00
0F9E00
0FBE00
0FBE00
0FFC00
07FC00
07FC00
07F800
03F800
03F800
03F800
01F000
01F000
01F000
01F000
01F000
01F000
01F000
01F000
01F000
01F000
01F000
01F000
01F000
01F000
01F000
ENDCHAR
STARTCHAR Zacute
ENCODING 377
SWIDTH 362 0
DWIDTH 17 0
BBX 15 42 1 0
BITMAP
00FC
00F8
01F0
03E0
03C0
0780
0000
0000
FFFE
FFFE
FFFE
FFFE
FFFE
007E
007E
007C
00FC
00F8
01F8
01F8
01F0
03F0
03E0
07E0
07E0
07C0
0FC0
0F80
1F80
1F80
1F00
3F00
3E00
7E00
7E00
7C00
FC00
FFFE
FFFE
FFFE
FFFE
FFFE
ENDCHAR
STARTCHAR zacute
ENCODING 378
SWIDTH 362 0
DWIDTH 17 0
BBX 15 42 1 0
BITMAP
00FC
00F8
01F0
03E0
03C0
0780
0000
0000
FFFE
FFFE
FFFE
FFFE
FFFE
007E
007E
007C
00FC
00F8
01F8
01F8
01F0
03F0
03E0
07E0
07E0
07C0
0FC0
0F80
1F80
1F80
1F00
3F00
3E00
7E00
7E00
7C00
FC00
FFFE
FFFE
FFFE
FFFE
FFFE
ENDCHAR
STARTCHAR Zdotaccent
ENCODING 379
SWIDTH 362 0
DWIDTH 17 0
BBX 15 41 1 0
BITMAP
07C0
07C0
07C0
07C0
07C0
0000
0000
FFFE
FFFE
FFFE
FFFE
FFFE
007E
007E
007C
00FC
00F8
01F8
01F8
01F0
03F0
03E0
07E0
07E0
07C0
0FC0
0F80
1F80
1F80
1F00
3F00
3E00
7E00
7E00
7C00
FC00
FFFE
FFFE
FFFE
FFFE
FFFE
ENDCHAR
STARTCHAR zdotaccent
ENCODING 380
SWIDTH 362 0
DWIDTH 17 0
BBX 15 41 1 0
BITMAP
07C0
07C0
07C0
07C0
07C0
0000
0000
FFFE
FFFE
FFFE
FFFE
FFFE
007E
007E
007C
00FC
00F8
01F8
01F8
01F0
03F0
03E0
07E0
07E0
07C0
0FC0
0F80
1F80
1F80
1F00
3F00
3E00
7E00
7E00
7C00
FC00
FFFE
FFFE
FFFE
FFFE
FFFE
ENDCHAR
STARTCHAR Zcaron
ENCODING 381
SWIDTH 362 0
DWIDTH 17 0
BBX 15 42 1 0
BITMAP
783C
3C7C
1EF8
0FF0
0FE0
07E0
0000
0000
FFFE
FFFE
FFFE
FFFE
FFFE
007E
007E
007C
00FC
00F8
01F8
01F8
01F0
03F0
03E0
07E0
07E0
07C0
0FC0
0F80
1F80
1F80
1F00
3F00
3E00
7E00
7E00
7C00
FC00
FFFE
FFFE
FFFE
FFFE
FFFE
ENDCHAR
STARTCHAR zcaron
ENCODING 382
SWIDTH 362 0
DWIDTH 17 0
BBX 15 42 1 0
BITMAP
783C
3C7C
1EF8
0FF0
0FE0
07E0
0000
0000
FFFE
FFFE
FFFE
FFFE
FFFE
007E
007E
007C
00FC
00F8
01F8
01F8
01F0
03F0
03E0
07E0
07E0
07C0
0FC0
0F80
1F80
1F80
1F00
3F00
3E00
7E00
7E00
7C00
FC00
FFFE
FFFE
FFFE
FFFE
FFFE
ENDCHAR
STARTCHAR florin
ENCODING 402
SWIDTH 400 0
DWIDTH 19 0
BBX 17 38 1 -3
BITMAP
1C7000
1C7000
1C7000
FFF000
FFFC00
FFFE00
FFFF00
FFFF00
3E1F00
3E1F80
3E1F80
3E1F80
3E1F80
3E1F00
3E1F00
3E3F00
3FFE00
3FFC00
3FFC00
3FFE00
3FFF00
3E1F80
3E0F80
3E0F80
3E0F80
3E0F80
3E0F80
3E0F80
3E1F80
FFFF80
FFFF00
FFFF00
FFFE00
FFF800
1C7000
1C7000
1C7000
1C7000
ENDCHAR
STARTCHAR AEacute
ENCODING 508
SWIDTH 580 0
DWIDTH 28 0
BBX 27 42 0 0
BITMAP
0003F000
0007E000
0007C000
000F8000
000F0000
001E0000
00000000
00000000
007FFFE0
007FFFE0
007FFFE0
007FFFE0
00FFFFE0
00FFC000
00FFC000
01FFC000
01FFC000
01FFC000
01EFC000
03EFC000
03EFC000
03EFC000
03CFFF80
07CFFF80
07CFFF80
07CFFF80
078FFF80
0F8FC000
0F8FC000
0F8FC000
1F0FC000
1FFFC000
1FFFC000
1FFFC000
3FFFC000
3FFFC000
3E0FC000
3E0FFFE0
7C0FFFE0
7C0FFFE0
7C0FFFE0
FC0FFFE0
ENDCHAR
STARTCHAR aeacute
ENCODING 509
SWIDTH 580 0
DWIDTH 28 0
BBX 27 42 0 0
BITMAP
0003F000
0007E000
0007C000
000F8000
000F0000
001E0000
00000000
00000000
007FFFE0
007FFFE0
007FFFE0
007FFFE0
00FFFFE0
00FFC000
00FFC000
01FFC000
01FFC000
01FFC000
01EFC000
03EFC000
03EFC000
03EFC000
03CFFF80
07CFFF80
07CFFF80
07CFFF80
078FFF80
0F8FC000
0F8FC000
0F8FC000
1F0FC000
1FFFC000
1FFFC000
1FFFC000
3FFFC000
3FFFC000
3E0FC000
3E0FFFE0
7C0FFFE0
7C0FFFE0
7C0FFFE0
FC0FFFE0
ENDCHAR
STARTCHAR Oslashacute
ENCODING 510
SWIDTH 400 0
DWIDTH 19 0
BBX 17 43 1 -1
BITMAP
007E00
00FC00
00F800
01F000
01E000
03C000
000000
000200
07F380
1FFF80
3FFF00
3FFF00
7FFF00
7E1F00
7C1F00
7C1F80
7C3F80
7C3F80
7C3F80
7C7F80
7C7F80
7CFF80
7CFF80
7CFF80
7DFF80
7DDF80
7FDF80
7F9F80
7F9F80
7F1F80
7F1F80
7F1F80
7E1F80
7E1F80
7C1F80
7C1F00
7E1F00
7FFF00
7FFF00
7FFE00
7FFC00
F7F000
200000
ENDCHAR
STARTCHAR oslashacute
ENCODING 511
SWIDTH 400 0
DWIDTH 19 0
BBX 17 43 1 -1
BITMAP
007E00
00FC00
00F800
01F000
01E000
03C000
000000
000200
07F380
1FFF80
3FFF00
3FFF00
7FFF00
7E1F00
7C1F00
7C1F80
7C3F80
7C3F80
7C3F80
7C7F80
7C7F80
7CFF80
7CFF80
7CFF80
7DFF80
7DDF80
7FDF80
7F9F80
7F9F80
7F1F80
7F1F80
7F1F80
7E1F80
7E1F80
7C1F80
7C1F00
7E1F00
7FFF00
7FFF00
7FFE00
7FFC00
F7F000
200000
ENDCHAR
STARTCHAR uni0218
ENCODING 536
SWIDTH 372 0
DWIDTH 18 0
BBX 16 42 1 -8
BITMAP
07E0
1FF8
3FFC
7FFE
7FFE
FC3E
FC1F
F81F
F81F
FC1F
FC00
7E00
7E00
3F00
3F80
1FC0
0FF0
07F8
03F8
01FC
00FE
007E
003E
003F
F83F
F83F
F83F
F83F
FC3E
7FFE
7FFE
3FFC
1FF8
0FE0
0000
03C0
03C0
03C0
03C0
03C0
0180
0380
ENDCHAR
STARTCHAR uni0219
ENCODING 537
SWIDTH 372 0
DWIDTH 18 0
BBX 16 42 1 -8
BITMAP
07E0
1FF8
3FFC
7FFE
7FFE
FC3E
FC1F
F81F
F81F
FC1F
FC00
7E00
7E00
3F00
3F80
1FC0
0FF0
07F8
03F8
01FC
00FE
007E
003E
003F
F83F
F83F
F83F
F83F
FC3E
7FFE
7FFE
3FFC
1FF8
0FE0
0000
03C0
03C0
03C0
03C0
03C0
0180
0380
ENDCHAR
STARTCHAR uni021A
ENCODING 538
SWIDTH 364 0
DWIDTH 17 0
BBX 16 42 1 -8
BITMAP
FFFF
FFFF
FFFF
FFFF
FFFF
07C0
07C0
07C0
07C0
07C0
07C0
07C0
07C0
07C0
07C0
07C0
07C0
07C0
07C0
07C0
07C0
07C0
07C0
07C0
07C0
07C0
07C0
07C0
07C0
07C0
07C0
07C0
07C0
07C0
0000
03C0
03C0
03C0
03C0
03C0
0180
0380
ENDCHAR
STARTCHAR uni021B
ENCODING 539
SWIDTH 364 0
DWIDTH 17 0
BBX 16 42 1 -8
BITMAP
FFFF
FFFF
FFFF
FFFF
FFFF
07C0
07C0
07C0
07C0
07C0
07C0
07C0
07C0
07C0
07C0
07C0
07C0
07C0
07C0
07C0
07C0
07C0
07C0
07C0
07C0
07C0
07C0
07C0
07C0
07C0
07C0
07C0
07C0
07C0
0000
03C0
03C0
03C0
03C0
03C0
0180
0380
ENDCHAR
STARTCHAR uni0237
ENCODING 567
SWIDTH 265 0
DWIDTH 13 0
BBX 10 34 1 0
BITMAP
07C0
07C0
07C0
07C0
07C0
07C0
07C0
07C0
07C0
07C0
07C0
07C0
07C0
07C0
07C0
07C0
07C0
07C0
07C0
07C0
07C0
07C0
07C0
07C0
07C0
07C0
07C0
0FC0
0FC0
FF80
FF80
FF00
FE00
FC00
ENDCHAR
STARTCHAR uni02BC
ENCODING 700
SWIDTH 0 0
DWIDTH 0 0
BBX 6 10 -3 23
BITMAP
FC
FC
FC
FC
FC
38
38
30
70
60
ENDCHAR
STARTCHAR circumflex
ENCODING 710
SWIDTH 500 0
DWIDTH 24 0
BBX 12 6 6 36
BITMAP
1F80
1F80
3FC0
7FE0
79E0
F0F0
ENDCHAR
STARTCHAR caron
ENCODING 711
SWIDTH 500 0
DWIDTH 24 0
BBX 12 6 6 36
BITMAP
F0F0
F1F0
79E0
3FC0
3FC0
1F80
ENDCHAR
STARTCHAR uni02C9
ENCODING 713
SWIDTH 500 0
DWIDTH 24 0
BBX 12 4 6 36
BITMAP
FFF0
FFF0
FFF0
FFF0
ENDCHAR
STARTCHAR breve
ENCODING 728
SWIDTH 500 0
DWIDTH 24 0
BBX 12 6 6 36
BITMAP
E070
F0F0
70E0
7FE0
3FC0
1F80
ENDCHAR
STARTCHAR dotaccent
ENCODING 729
SWIDTH 500 0
DWIDTH 24 0
BBX 4 5 10 36
BITMAP
F0
F0
F0
F0
F0
ENDCHAR
STARTCHAR ring
ENCODING 730
SWIDTH 500 0
DWIDTH 24 0
BBX 8 9 8 35
BITMAP
3C
7E
FF
E7
C7
E7
FF
7E
3C
ENDCHAR
STARTCHAR ogonek
ENCODING 731
SWIDTH 500 0
DWIDTH 24 0
BBX 8 7 8 -7
BITMAP
1C
38
70
F8
FF
7F
3F
ENDCHAR
STARTCHAR tilde
ENCODING 732
SWIDTH 500 0
DWIDTH 24 0
BBX 14 5 5 36
BITMAP
1E3C
3FF8
7FF8
FFF0
71E0
ENDCHAR
STARTCHAR hungarumlaut
ENCODING 733
SWIDTH 500 0
DWIDTH 24 0
BBX 16 6 6 36
BITMAP
1F3F
3E7C
3C7C
7CF8
78F0
F1E0
ENDCHAR
STARTCHAR gravecomb
ENCODING 768
SWIDTH 0 0
DWIDTH 0 0
BBX 9 6 -6 36
BITMAP
FC00
7C00
3E00
1E00
0F00
0F80
ENDCHAR
STARTCHAR acutecomb
ENCODING 769
SWIDTH 0 0
DWIDTH 0 0
BBX 9 6 -3 36
BITMAP
1F80
1F00
3E00
3C00
7800
F800
ENDCHAR
STARTCHAR uni0302
ENCODING 770
SWIDTH 0 0
DWIDTH 0 0
BBX 12 6 -6 36
BITMAP
1F80
1F80
3FC0
7FE0
79E0
F0F0
ENDCHAR
STARTCHAR tildecomb
ENCODING 771
SWIDTH 0 0
DWIDTH 0 0
BBX 14 5 -7 36
BITMAP
1E3C
3FF8
7FF8
FFF0
71E0
ENDCHAR
STARTCHAR uni0304
ENCODING 772
SWIDTH 0 0
DWIDTH 0 0
BBX 12 4 -6 36
BITMAP
FFF0
FFF0
FFF0
FFF0
ENDCHAR
STARTCHAR uni0306
ENCODING 774
SWIDTH 0 0
DWIDTH 0 0
BBX 12 6 -6 36
BITMAP
E070
F0F0
70E0
7FE0
3FC0
1F80
ENDCHAR
STARTCHAR uni0307
ENCODING 775
SWIDTH 0 0
DWIDTH 0 0
BBX 4 5 -2 36
BITMAP
F0
F0
F0
F0
F0
ENDCHAR
STARTCHAR uni0308
ENCODING 776
SWIDTH 0 0
DWIDTH 0 0
BBX 12 5 -6 36
BITMAP
F9F0
F9F0
F9F0
F9F0
F9F0
ENDCHAR
STARTCHAR uni030A
ENCODING 778
SWIDTH 0 0
DWIDTH 0 0
BBX 8 9 -4 35
BITMAP
3C
7E
FF
E7
C7
E7
FF
7E
3C
ENDCHAR
STARTCHAR uni030B
ENCODING 779
SWIDTH 0 0
DWIDTH 0 0
BBX 16 6 -6 36
BITMAP
1F3F
3E7C
3C7C
7CF8
78F0
F1E0
ENDCHAR
STARTCHAR uni030C
ENCODING 780
SWIDTH 0 0
DWIDTH 0 0
BBX 12 6 -6 36
BITMAP
F0F0
F1F0
79E0
3FC0
3FC0
1F80
ENDCHAR
STARTCHAR uni0312
ENCODING 786
SWIDTH 0 0
DWIDTH 0 0
BBX 4 7 -2 36
BITMAP
70
60
F0
F0
F0
F0
F0
ENDCHAR
STARTCHAR uni0326
ENCODING 806
SWIDTH 0 0
DWIDTH 0 0
BBX 4 7 -2 -8
BITMAP
F0
F0
F0
F0
F0
70
E0
ENDCHAR
STARTCHAR uni0327
ENCODING 807
SWIDTH 0 0
DWIDTH 0 0
BBX 10 8 -5 -7
BITMAP
0C00
0C00
0F00
0380
03C0
F380
FF80
7F00
ENDCHAR
STARTCHAR uni0328
ENCODING 808
SWIDTH 0 0
DWIDTH 0 0
BBX 8 7 -4 -7
BITMAP
1C
38
70
F8
FF
7F
3F
ENDCHAR
STARTCHAR uni0335
ENCODING 821
SWIDTH 0 0
DWIDTH 0 0
BBX 10 5 -5 15
BITMAP
FFC0
FFC0
FFC0
FFC0
FFC0
ENDCHAR
STARTCHAR uni0336
ENCODING 822
SWIDTH 0 0
DWIDTH 0 0
BBX 20 5 -10 15
BITMAP
FFFFF0
FFFFF0
FFFFF0
FFFFF0
FFFFF0
ENDCHAR
STARTCHAR uni0337
ENCODING 823
SWIDTH 0 0
DWIDTH 0 0
BBX 16 36 -8 -1
BITMAP
0006
0007
0006
000E
000E
001C
001C
001C
0038
0038
0030
0070
0070
00E0
00E0
00C0
01C0
01C0
0380
0380
0380
0700
0700
0600
0E00
0E00
1C00
1C00
1800
3800
3800
7000
7000
7000
E000
E000
ENDCHAR
STARTCHAR uni0338
ENCODING 824
SWIDTH 0 0
DWIDTH 0 0
BBX 18 36 -9 -1
BITMAP
000200
0003C0
000380
000780
000700
000F00
000E00
000E00
001E00
001C00
003C00
003800
003800
007800
007000
00F000
00E000
00E000
01E000
01C000
03C000
038000
038000
078000
070000
0F0000
0E0000
0E0000
1E0000
1C0000
3C0000
380000
780000
780000
700000
B00000
ENDCHAR
STARTCHAR uni0394
ENCODING 916
SWIDTH 401 0
DWIDTH 19 0
BBX 18 34 1 0
BITMAP
07F000
07F000
07F800
0FF800
0FF800
0FF800
0FF800
0F7800
0F7C00
0F7C00
1F7C00
1F7C00
1F7C00
1E7C00
1E3E00
1E3E00
3E3E00
3E3E00
3E3E00
3E3E00
3C3E00
3C1F00
7C1F00
7C1F00
7C1F00
7C1F00
7C1F00
781F80
F80F80
FFFF80
FFFF80
FFFF80
FFFF80
FFFFC0
ENDCHAR
STARTCHAR uni03A9
ENCODING 937
SWIDTH 402 0
DWIDTH 19 0
BBX 16 34 2 0
BITMAP
0FE0
3FF8
7FFC
7FFE
FFFE
FC7E
F83F
F83F
F83F
F83F
F83F
F83F
F83F
F83F
F83F
F83F
F83F
F83F
F83F
F83F
F83F
F83E
F83E
F83E
783E
783C
3C3C
3C78
1E70
FEFF
FEFF
FEFF
FEFF
FEFF
ENDCHAR
STARTCHAR uni03BC
ENCODING 956
SWIDTH 405 0
DWIDTH 19 0
BBX 16 32 2 -8
BITMAP
F81F
F81F
F81F
F81F
F81F
F81F
F81F
F81F
F81F
F81F
F81F
F81F
F81F
F81F
F81F
F81F
F83F
F83F
FC7F
FFFF
FFFF
FFFF
FFDF
FF9F
F800
F800
F800
F800
F800
F800
F800
F800
ENDCHAR
STARTCHAR pi
ENCODING 960
SWIDTH 452 0
DWIDTH 22 0
BBX 20 24 1 0
BITMAP
FFFFF0
FFFFF0
FFFFF0
FFFFF0
FFFFF0
1F0F80
1F0F80
1F0F80
1F0F80
1F0F80
1F0F80
1F0F80
1F0F80
1F0F80
1F0F80
1F0F80
1F0F80
1F0F80
1F0F80
1F0F80
1F0F80
1F0F80
1F0F80
1F0F80
ENDCHAR
STARTCHAR uni1E02
ENCODING 7682
SWIDTH 404 0
DWIDTH 19 0
BBX 16 41 2 0
BITMAP
07C0
07C0
07C0
07C0
07C0
0000
0000
FFE0
FFF8
FFFC
FFFE
FFFE
F83F
F83F
F83F
F83F
F83F
F83F
F83F
F83E
F87E
FFFC
FFFC
FFF8
FFFC
FFFE
F83F
F81F
F81F
F81F
F81F
F81F
F81F
F81F
F81F
F83F
FFFF
FFFE
FFFE
FFFC
FFF0
ENDCHAR
STARTCHAR uni1E03
ENCODING 7683
SWIDTH 404 0
DWIDTH 19 0
BBX 16 41 2 0
BITMAP
07C0
07C0
07C0
07C0
07C0
0000
0000
FFE0
FFF8
FFFC
FFFE
FFFE
F83F
F83F
F83F
F83F
F83F
F83F
F83F
F83E
F87E
FFFC
FFFC
FFF8
FFFC
FFFE
F83F
F81F
F81F
F81F
F81F
F81F
F81F
F81F
F81F
F83F
FFFF
FFFE
FFFE
FFFC
FFF0
ENDCHAR
STARTCHAR uni1E0A
ENCODING 7690
SWIDTH 406 0
DWIDTH 19 0
BBX 16 41 2 0
BITMAP
07C0
07C0
07C0
07C0
07C0
0000
0000
FFE0
FFF8
FFFC
FFFE
FFFE
F83F
F83F
F81F
F81F
F81F
F81F
F81F
F81F
F81F
F81F
F81F
F81F
F81F
F81F
F81F
F81F
F81F
F81F
F81F
F81F
F81F
F81F
F83F
F83F
FFFE
FFFE
FFFC
FFF8
FFE0
ENDCHAR
STARTCHAR uni1E0B
ENCODING 7691
SWIDTH 406 0
DWIDTH 19 0
BBX 16 41 2 0
BITMAP
07C0
07C0
07C0
07C0
07C0
0000
0000
FFE0
FFF8
FFFC
FFFE
FFFE
F83F
F83F
F81F
F81F
F81F
F81F
F81F
F81F
F81F
F81F
F81F
F81F
F81F
F81F
F81F
F81F
F81F
F81F
F81F
F81F
F81F
F81F
F83F
F83F
FFFE
FFFE
FFFC
FFF8
FFE0
ENDCHAR
STARTCHAR uni1E1E
ENCODING 7710
SWIDTH 344 0
DWIDTH 17 0
BBX 14 41 2 0
BITMAP
0F80
0F80
0F80
0F80
0F80
0000
0000
FFFC
FFFC
FFFC
FFFC
FFFC
F800
F800
F800
F800
F800
F800
F800
F800
F800
FFF0
FFF0
FFF0
FFF0
FFF0
F800
F800
F800
F800
F800
F800
F800
F800
F800
F800
F800
F800
F800
F800
F800
ENDCHAR
STARTCHAR uni1E1F
ENCODING 7711
SWIDTH 344 0
DWIDTH 17 0
BBX 14 41 2 0
BITMAP
0F80
0F80
0F80
0F80
0F80
0000
0000
FFFC
FFFC
FFFC
FFFC
FFFC
F800
F800
F800
F800
F800
F800
F800
F800
F800
FFF0
FFF0
FFF0
FFF0
FFF0
F800
F800
F800
F800
F800
F800
F800
F800
F800
F800
F800
F800
F800
F800
F800
ENDCHAR
STARTCHAR uni1E40
ENCODING 7744
SWIDTH 538 0
DWIDTH 26 0
BBX 22 41 2 0
BITMAP
00F800
00F800
00F800
00F800
00F800
000000
000000
FF03FC
FF03FC
FF03FC
FF03FC
FF03FC
FF03FC
FF07FC
FF87FC
FF87FC
FF87FC
FF877C
FF877C
FF877C
FF8F7C
FB8F7C
FBCF7C
FBCF7C
FBCE7C
FBCE7C
FBCE7C
FBDE7C
F9DE7C
F9FE7C
F9FE7C
F9FC7C
F9FC7C
F9FC7C
F8FC7C
F8FC7C
F8FC7C
F8F87C
F8F87C
F8F87C
F8F87C
ENDCHAR
STARTCHAR uni1E41
ENCODING 7745
SWIDTH 538 0
DWIDTH 26 0
BBX 22 41 2 0
BITMAP
00F800
00F800
00F800
00F800
00F800
000000
000000
FF03FC
FF03FC
FF03FC
FF03FC
FF03FC
FF03FC
FF07FC
FF87FC
FF87FC
FF87FC
FF877C
FF877C
FF877C
FF8F7C
FB8F7C
FBCF7C
FBCF7C
FBCE7C
FBCE7C
FBCE7C
FBDE7C
F9DE7C
F9FE7C
F9FE7C
F9FC7C
F9FC7C
F9FC7C
F8FC7C
F8FC7C
F8FC7C
F8F87C
F8F87C
F8F87C
F8F87C
ENDCHAR
STARTCHAR uni1E56
ENCODING 7766
SWIDTH 386 0
DWIDTH 19 0
BBX 16 41 2 0
BITMAP
07C0
07C0
07C0
07C0
07C0
0000
0000
FFE0
FFF8
FFFC
FFFE
FFFE
F83E
F83E
F83F
F83F
F83F
F83F
F83F
F83F
F83F
F83E
FFFE
FFFE
FFFC
FFF8
FFE0
F800
F800
F800
F800
F800
F800
F800
F800
F800
F800
F800
F800
F800
F800
ENDCHAR
STARTCHAR uni1E57
ENCODING 7767
SWIDTH 386 0
DWIDTH 19 0
BBX 16 41 2 0
BITMAP
07C0
07C0
07C0
07C0
07C0
0000
0000
FFE0
FFF8
FFFC
FFFE
FFFE
F83E
F83E
F83F
F83F
F83F
F83F
F83F
F83F
F83F
F83E
FFFE
FFFE
FFFC
FFF8
FFE0
F800
F800
F800
F800
F800
F800
F800
F800
F800
F800
F800
F800
F800
F800
ENDCHAR
STARTCHAR uni1E60
ENCODING 7776
SWIDTH 372 0
DWIDTH 18 0
BBX 16 41 1 0
BITMAP
03C0
03C0
03C0
03C0
03C0
0000
0000
07E0
1FF8
3FFC
7FFE
7FFE
FC3E
FC1F
F81F
F81F
FC1F
FC00
7E00
7E00
3F00
3F80
1FC0
0FF0
07F8
03F8
01FC
00FE
007E
003E
003F
F83F
F83F
F83F
F83F
FC3E
7FFE
7FFE
3FFC
1FF8
0FE0
ENDCHAR
STARTCHAR uni1E61
ENCODING 7777
SWIDTH 372 0
DWIDTH 18 0
BBX 16 41 1 0
BITMAP
03C0
03C0
03C0
03C0
03C0
0000
0000
07E0
1FF8
3FFC
7FFE
7FFE
FC3E
FC1F
F81F
F81F
FC1F
FC00
7E00
7E00
3F00
3F80
1FC0
0FF0
07F8
03F8
01FC
00FE
007E
003E
003F
F83F
F83F
F83F
F83F
FC3E
7FFE
7FFE
3FFC
1FF8
0FE0
ENDCHAR
STARTCHAR uni1E6A
ENCODING 7786
SWIDTH 364 0
DWIDTH 17 0
BBX 16 41 1 0
BITMAP
07C0
07C0
07C0
07C0
07C0
0000
0000
FFFF
FFFF
FFFF
FFFF
FFFF
07C0
07C0
07C0
07C0
07C0
07C0
07C0
07C0
07C0
07C0
07C0
07C0
07C0
07C0
07C0
07C0
07C0
07C0
07C0
07C0
07C0
07C0
07C0
07C0
07C0
07C0
07C0
07C0
07C0
ENDCHAR
STARTCHAR uni1E6B
ENCODING 7787
SWIDTH 364 0
DWIDTH 17 0
BBX 16 41 1 0
BITMAP
07C0
07C0
07C0
07C0
07C0
0000
0000
FFFF
FFFF
FFFF
FFFF
FFFF
07C0
07C0
07C0
07C0
07C0
07C0
07C0
07C0
07C0
07C0
07C0
07C0
07C0
07C0
07C0
07C0
07C0
07C0
07C0
07C0
07C0
07C0
07C0
07C0
07C0
07C0
07C0
07C0
07C0
ENDCHAR
STARTCHAR Wgrave
ENCODING 7808
SWIDTH 557 0
DWIDTH 27 0
BBX 25 42 1 0
BITMAP
03F00000
01F80000
00F80000
007C0000
003C0000
001E0000
00000000
00000000
F83F0F80
F83F0F80
F87F0F80
F87F0F80
F87F0F80
F87F0F00
F87F0F00
F87F0F00
7C7F0F00
7C7F0F00
7C7F9F00
7C7F9F00
7C779F00
7CF79F00
7CF79F00
7CF79E00
7CF79E00
7CF79E00
3CF79E00
3EF79E00
3EF39E00
3EE3DE00
3EE3FE00
3FE3FE00
3FE3FE00
3FE3FC00
3FE3FC00
3FE3FC00
1FE3FC00
1FE1FC00
1FE1FC00
1FC1FC00
1FC1FC00
1FC1FC00
ENDCHAR
STARTCHAR wgrave
ENCODING 7809
SWIDTH 557 0
DWIDTH 27 0
BBX 25 42 1 0
BITMAP
03F00000
01F80000
00F80000
007C0000
003C0000
001E0000
00000000
00000000
F83F0F80
F83F0F80
F87F0F80
F87F0F80
F87F0F80
F87F0F00
F87F0F00
F87F0F00
7C7F0F00
7C7F0F00
7C7F9F00
7C7F9F00
7C779F00
7CF79F00
7CF79F00
7CF79E00
7CF79E00
7CF79E00
3CF79E00
3EF79E00
3EF39E00
3EE3DE00
3EE3FE00
3FE3FE00
3FE3FE00
3FE3FC00
3FE3FC00
3FE3FC00
1FE3FC00
1FE1FC00
1FE1FC00
1FC1FC00
1FC1FC00
1FC1FC00
ENDCHAR
STARTCHAR Wacute
ENCODING 7810
SWIDTH 557 0
DWIDTH 27 0
BBX 25 42 1 0
BITMAP
0007E000
000F8000
001F8000
001F0000
003E0000
003C0000
00000000
00000000
F83F0F80
F83F0F80
F87F0F80
F87F0F80
F87F0F80
F87F0F00
F87F0F00
F87F0F00
7C7F0F00
7C7F0F00
7C7F9F00
7C7F9F00
7C779F00
7CF79F00
7CF79F00
7CF79E00
7CF79E00
7CF79E00
3CF79E00
3EF79E00
3EF39E00
3EE3DE00
3EE3FE00
3FE3FE00
3FE3FE00
3FE3FC00
3FE3FC00
3FE3FC00
1FE3FC00
1FE1FC00
1FE1FC00
1FC1FC00
1FC1FC00
1FC1FC00
ENDCHAR
STARTCHAR wacute
ENCODING 7811
SWIDTH 557 0
DWIDTH 27 0
BBX 25 42 1 0
BITMAP
0007E000
000F8000
001F8000
001F0000
003E0000
003C0000
00000000
00000000
F83F0F80
F83F0F80
F87F0F80
F87F0F80
F87F0F80
F87F0F00
F87F0F00
F87F0F00
7C7F0F00
7C7F0F00
7C7F9F00
7C7F9F00
7C779F00
7CF79F00
7CF79F00
7CF79E00
7CF79E00
7CF79E00
3CF79E00
3EF79E00
3EF39E00
3EE3DE00
3EE3FE00
3FE3FE00
3FE3FE00
3FE3FC00
3FE3FC00
3FE3FC00
1FE3FC00
1FE1FC00
1FE1FC00
1FC1FC00
1FC1FC00
1FC1FC00
ENDCHAR
STARTCHAR Wdieresis
ENCODING 7812
SWIDTH 557 0
DWIDTH 27 0
BBX 25 41 1 0
BITMAP
03E3C000
03E3C000
03E3C000
03E3C000
03E3C000
00000000
00000000
F83F0F80
F83F0F80
F87F0F80
F87F0F80
F87F0F80
F87F0F00
F87F0F00
F87F0F00
7C7F0F00
7C7F0F00
7C7F9F00
7C7F9F00
7C779F00
7CF79F00
7CF79F00
7CF79E00
7CF79E00
7CF79E00
3CF79E00
3EF79E00
3EF39E00
3EE3DE00
3EE3FE00
3FE3FE00
3FE3FE00
3FE3FC00
3FE3FC00
3FE3FC00
1FE3FC00
1FE1FC00
1FE1FC00
1FC1FC00
1FC1FC00
1FC1FC00
ENDCHAR
STARTCHAR wdieresis
ENCODING 7813
SWIDTH 557 0
DWIDTH 27 0
BBX 25 41 1 0
BITMAP
03E3C000
03E3C000
03E3C000
03E3C000
03E3C000
00000000
00000000
F83F0F80
F83F0F80
F87F0F80
F87F0F80
F87F0F80
F87F0F00
F87F0F00
F87F0F00
7C7F0F00
7C7F0F00
7C7F9F00
7C7F9F00
7C779F00
7CF79F00
7CF79F00
7CF79E00
7CF79E00
7CF79E00
3CF79E00
3EF79E00
3EF39E00
3EE3DE00
3EE3FE00
3FE3FE00
3FE3FE00
3FE3FC00
3FE3FC00
3FE3FC00
1FE3FC00
1FE1FC00
1FE1FC00
1FC1FC00
1FC1FC00
1FC1FC00
ENDCHAR
STARTCHAR uni1E9E
ENCODING 7838
SWIDTH 407 0
DWIDTH 20 0
BBX 16 34 2 0
BITMAP
FFFF
FFFF
FFFF
FFFF
FFFF
F81F
F83E
F83E
F87E
F87C
F87C
F8F8
F8F8
F9F0
F9FC
F9FE
F9FE
F9FF
F83F
F81F
F81F
F81F
F81F
F81F
F81F
F81F
F81F
F81F
F83F
F9FF
F9FE
F9FE
F9FC
F9F0
ENDCHAR
STARTCHAR Ygrave
ENCODING 7922
SWIDTH 394 0
DWIDTH 19 0
BBX 18 42 0 0
BITMAP
1F8000
07C000
07C000
03E000
01E000
00F000
000000
000000
FC07C0
7C07C0
7E07C0
3E0F80
3E0F80
3F0F80
1F1F00
1F1F00
1F1F00
0F9E00
0FBE00
0FBE00
0FFC00
07FC00
07FC00
07F800
03F800
03F800
03F800
01F000
01F000
01F000
01F000
01F000
01F000
01F000
01F000
01F000
01F000
01F000
01F000
01F000
01F000
01F000
ENDCHAR
STARTCHAR ygrave
ENCODING 7923
SWIDTH 394 0
DWIDTH 19 0
BBX 18 42 0 0
BITMAP
1F8000
07C000
07C000
03E000
01E000
00F000
000000
000000
FC07C0
7C07C0
7E07C0
3E0F80
3E0F80
3F0F80
1F1F00
1F1F00
1F1F00
0F9E00
0FBE00
0FBE00
0FFC00
07FC00
07FC00
07F800
03F800
03F800
03F800
01F000
01F000
01F000
01F000
01F000
01F000
01F000
01F000
01F000
01F000
01F000
01F000
01F000
01F000
01F000
ENDCHAR
STARTCHAR uni2002
ENCODING 8194
SWIDTH 300 0
DWIDTH 14 0
BBX 1 1 0 0
BITMAP
00
ENDCHAR
STARTCHAR uni2003
ENCODING 8195
SWIDTH 500 0
DWIDTH 24 0
BBX 1 1 0 0
BITMAP
00
ENDCHAR
STARTCHAR uni2007
ENCODING 8199
SWIDTH 400 0
DWIDTH 19 0
BBX 1 1 0 0
BITMAP
00
ENDCHAR
STARTCHAR uni2008
ENCODING 8200
SWIDTH 188 0
DWIDTH 9 0
BBX 1 1 0 0
BITMAP
00
ENDCHAR
STARTCHAR uni200B
ENCODING 8203
SWIDTH 0 0
DWIDTH 0 0
BBX 1 1 0 0
BITMAP
00
ENDCHAR
STARTCHAR figuredash
ENCODING 8210
SWIDTH 400 0
DWIDTH 19 0
BBX 19 5 0 15
BITMAP
FFFFE0
FFFFE0
FFFFE0
FFFFE0
FFFFE0
ENDCHAR
STARTCHAR endash
ENCODING 8211
SWIDTH 300 0
DWIDTH 14 0
BBX 14 5 0 15
BITMAP
FFFC
FFFC
FFFC
FFFC
FFFC
ENDCHAR
STARTCHAR emdash
ENCODING 8212
SWIDTH 500 0
DWIDTH 24 0
BBX 24 5 0 15
BITMAP
FFFFFF
FFFFFF
FFFFFF
FFFFFF
FFFFFF
ENDCHAR
STARTCHAR quoteleft
ENCODING 8216
SWIDTH 188 0
DWIDTH 9 0
BBX 5 11 2 23
BITMAP
18
38
38
70
70
F0
F8
F8
F8
F8
F8
ENDCHAR
STARTCHAR quoteright
ENCODING 8217
SWIDTH 188 0
DWIDTH 9 0
BBX 5 10 2 24
BITMAP
F8
F8
F8
F8
F8
70
70
70
E0
E0
ENDCHAR
STARTCHAR quotesinglbase
ENCODING 8218
SWIDTH 188 0
DWIDTH 9 0
BBX 5 10 2 -5
BITMAP
F8
F8
F8
F8
F8
38
70
70
60
E0
ENDCHAR
STARTCHAR quotedblleft
ENCODING 8220
SWIDTH 336 0
DWIDTH 16 0
BBX 12 11 2 23
BITMAP
1830
3870
3870
70E0
70E0
F0E0
F9F0
F9F0
F9F0
F9F0
F9F0
ENDCHAR
STARTCHAR quotedblright
ENCODING 8221
SWIDTH 336 0
DWIDTH 16 0
BBX 12 10 2 24
BITMAP
F9F0
F9F0
F9F0
F9F0
F9F0
7070
70E0
70E0
E1C0
E1C0
ENDCHAR
STARTCHAR quotedblbase
ENCODING 8222
SWIDTH 336 0
DWIDTH 16 0
BBX 12 10 2 -5
BITMAP
F9F0
F9F0
F9F0
F9F0
F9F0
3870
70E0
70E0
E1C0
E1C0
ENDCHAR
STARTCHAR dagger
ENCODING 8224
SWIDTH 400 0
DWIDTH 19 0
BBX 17 38 1 -4
BITMAP
03E000
03E000
03E000
03E000
03E000
03E000
03E000
03E000
03E000
FFFF80
FFFF80
FFFF80
FFFF80
FFFF80
03E000
03E000
03E000
03E000
03E000
03E000
03E000
03E000
03E000
03E000
03E000
03E000
03E000
03E000
03E000
03E000
03E000
03E000
03E000
03E000
03E000
03E000
03E000
03E000
ENDCHAR
STARTCHAR daggerdbl
ENCODING 8225
SWIDTH 400 0
DWIDTH 19 0
BBX 17 38 1 -4
BITMAP
03E000
03E000
03E000
03E000
03E000
03E000
03E000
03E000
03E000
FFFF80
FFFF80
FFFF80
FFFF80
FFFF80
03E000
03E000
03E000
03E000
03E000
03E000
03E000
03E000
03E000
03E000
FFFF80
FFFF80
FFFF80
FFFF80
FFFF80
03E000
03E000
03E000
03E000
03E000
03E000
03E000
03E000
03E000
ENDCHAR
STARTCHAR bullet
ENCODING 8226
SWIDTH 300 0
DWIDTH 14 0
BBX 11 11 2 11
BITMAP
1F00
7F80
7FC0
FFC0
FFE0
FFE0
FFE0
FFC0
7FC0
7F80
1F00
ENDCHAR
STARTCHAR ellipsis
ENCODING 8230
SWIDTH 500 0
DWIDTH 24 0
BBX 22 5 1 0
BITMAP
FCFCFC
FCFCFC
FCFCFC
FCFCFC
FCFCFC
ENDCHAR
STARTCHAR perthousand
ENCODING 8240
SWIDTH 845 0
DWIDTH 41 0
BBX 37 34 2 0
BITMAP
3E00700000
6380F00000
E380E00000
E3C0E00000
E3C1E00000
E3C1C00000
E3C3C00000
E3C3800000
E3C3800000
E3C7800000
E3C7000000
E3C7000000
E3CF000000
E3CE000000
E3DE000000
E39C000000
631C380380
1C3CC60C60
0039C71C70
0079C71C38
0073C79C38
0073C79C38
00F3C79C38
00E3C79C38
00E3C79C38
01E3C79C38
01C3C79C38
03C3C79C38
0383C79C38
0383C79C78
0781C71E78
0701FF1FF0
0701FF0FF0
0F007C07C0
ENDCHAR
STARTCHAR guilsinglleft
ENCODING 8249
SWIDTH 188 0
DWIDTH 9 0
BBX 7 11 1 11
BITMAP
1E
3C
3C
78
F8
F8
F8
7C
3C
3C
1E
ENDCHAR
STARTCHAR guilsinglright
ENCODING 8250
SWIDTH 188 0
DWIDTH 9 0
BBX 7 11 1 11
BITMAP
F0
78
78
3C
3E
3E
3E
3C
78
78
F0
ENDCHAR
STARTCHAR fraction
ENCODING 8260
SWIDTH 89 0
DWIDTH 4 0
BBX 16 34 -6 0
BITMAP
0007
000F
000E
000E
001E
001C
003C
0038
0038
0078
0070
0070
00F0
00E0
01E0
01C0
01C0
03C0
0380
0780
0700
0700
0F00
0E00
0E00
1E00
1C00
3C00
3800
3800
7800
7000
7000
F000
ENDCHAR
STARTCHAR uni2070
ENCODING 8304
SWIDTH 282 0
DWIDTH 14 0
BBX 10 21 2 17
BITMAP
3E00
7F80
FF80
F3C0
E3C0
E3C0
E3C0
E3C0
E3C0
E3C0
E3C0
E3C0
E3C0
E3C0
E3C0
E3C0
E3C0
E3C0
FF80
7F80
3E00
ENDCHAR
STARTCHAR uni2074
ENCODING 8308
SWIDTH 282 0
DWIDTH 14 0
BBX 11 21 1 17
BITMAP
03C0
03C0
07C0
07C0
0FC0
0FC0
1DC0
1DC0
39C0
39C0
39C0
71C0
71C0
E1C0
FFE0
FFE0
FFE0
03C0
03C0
03C0
03C0
ENDCHAR
STARTCHAR uni2075
ENCODING 8309
SWIDTH 282 0
DWIDTH 14 0
BBX 10 21 2 17
BITMAP
FF80
FF80
FF80
E000
E000
E000
EF00
FF80
FF80
E3C0
E3C0
E3C0
03C0
03C0
03C0
E3C0
E3C0
E3C0
FF80
7F80
3E00
ENDCHAR
STARTCHAR uni2076
ENCODING 8310
SWIDTH 282 0
DWIDTH 14 0
BBX 10 21 2 17
BITMAP
3F00
7F80
FF80
F3C0
E1C0
E000
E000
EF00
FF80
FFC0
F3C0
E1C0
E1C0
E1C0
E1C0
E1C0
E1C0
F3C0
FF80
7F80
3E00
ENDCHAR
STARTCHAR uni2077
ENCODING 8311
SWIDTH 282 0
DWIDTH 14 0
BBX 10 21 2 17
BITMAP
FFC0
FFC0
FFC0
03C0
0380
0380
0780
0700
0700
0700
0F00
0E00
0E00
1E00
1C00
1C00
3C00
3800
3800
3800
7800
ENDCHAR
STARTCHAR uni2078
ENCODING 8312
SWIDTH 282 0
DWIDTH 14 0
BBX 10 21 2 17
BITMAP
3E00
7F80
FFC0
E3C0
E1C0
E1C0
E1C0
E3C0
FF80
3F00
7F80
E3C0
E1C0
E1C0
E1C0
E1C0
E1C0
F3C0
FF80
7F80
3E00
ENDCHAR
STARTCHAR uni2079
ENCODING 8313
SWIDTH 282 0
DWIDTH 14 0
BBX 10 21 2 17
BITMAP
3E00
7F80
FF80
E3C0
E3C0
E3C0
E3C0
E3C0
E3C0
E3C0
FFC0
FFC0
7BC0
03C0
03C0
03C0
E3C0
E3C0
FF80
7F80
3E00
ENDCHAR
STARTCHAR uni2080
ENCODING 8320
SWIDTH 282 0
DWIDTH 14 0
BBX 10 21 2 -3
BITMAP
3E00
7F80
FF80
F3C0
E3C0
E3C0
E3C0
E3C0
E3C0
E3C0
E3C0
E3C0
E3C0
E3C0
E3C0
E3C0
E3C0
E3C0
FF80
7F80
3E00
ENDCHAR
STARTCHAR uni2081
ENCODING 8321
SWIDTH 282 0
DWIDTH 14 0
BBX 7 21 3 -3
BITMAP
0E
0E
3E
FE
FE
1E
1E
1E
1E
1E
1E
1E
1E
1E
1E
1E
1E
1E
1E
1E
1E
ENDCHAR
STARTCHAR uni2082
ENCODING 8322
SWIDTH 282 0
DWIDTH 14 0
BBX 10 21 2 -3
BITMAP
3E00
7F80
FF80
E3C0
E3C0
E3C0
E3C0
0380
0380
0700
0F00
1E00
3C00
7800
7000
F000
E000
E000
FFC0
FFC0
FFC0
ENDCHAR
STARTCHAR uni2083
ENCODING 8323
SWIDTH 282 0
DWIDTH 14 0
BBX 10 21 2 -3
BITMAP
3E00
7F80
FF80
E380
E3C0
E3C0
03C0
0380
1F80
1E00
1F80
0380
0380
03C0
E3C0
E3C0
E3C0
E380
FF80
7F00
3E00
ENDCHAR
STARTCHAR uni2084
ENCODING 8324
SWIDTH 282 0
DWIDTH 14 0
BBX 11 21 1 -3
BITMAP
03C0
03C0
07C0
07C0
0FC0
0FC0
1DC0
1DC0
39C0
39C0
39C0
71C0
71C0
E1C0
FFE0
FFE0
FFE0
03C0
03C0
03C0
03C0
ENDCHAR
STARTCHAR uni2085
ENCODING 8325
SWIDTH 282 0
DWIDTH 14 0
BBX 10 21 2 -3
BITMAP
FF80
FF80
FF80
E000
E000
E000
EF00
FF80
FF80
E3C0
E3C0
E3C0
03C0
03C0
03C0
E3C0
E3C0
E3C0
FF80
7F80
3E00
ENDCHAR
STARTCHAR uni2086
ENCODING 8326
SWIDTH 282 0
DWIDTH 14 0
BBX 10 21 2 -3
BITMAP
3E00
7F80
FF80
F3C0
E1C0
E000
E000
EF00
FF80
FFC0
F3C0
E1C0
E1C0
E1C0
E1C0
E1C0
E1C0
F3C0
FF80
7F80
3E00
ENDCHAR
STARTCHAR uni2087
ENCODING 8327
SWIDTH 282 0
DWIDTH 14 0
BBX 10 21 2 -3
BITMAP
FFC0
FFC0
FFC0
03C0
0380
0380
0780
0700
0700
0700
0F00
0E00
0E00
1E00
1C00
1C00
3C00
3800
3800
3800
7800
ENDCHAR
STARTCHAR uni2088
ENCODING 8328
SWIDTH 282 0
DWIDTH 14 0
BBX 10 21 2 -3
BITMAP
3E00
7F80
FFC0
E3C0
E1C0
E1C0
E1C0
E3C0
FF80
3F00
7F80
E3C0
E1C0
E1C0
E1C0
E1C0
E1C0
F3C0
FF80
7F80
3E00
ENDCHAR
STARTCHAR uni2089
ENCODING 8329
SWIDTH 282 0
DWIDTH 14 0
BBX 10 21 2 -3
BITMAP
3E00
7F80
FF80
E3C0
E3C0
E3C0
E3C0
E3C0
E3C0
E3C0
FFC0
FFC0
7BC0
03C0
03C0
E3C0
E3C0
E3C0
FF80
7F80
3E00
ENDCHAR
STARTCHAR Euro
ENCODING 8364
SWIDTH 400 0
DWIDTH 19 0
BBX 17 34 1 0
BITMAP
03F000
0FFC00
1FFE00
3FFF00
3FFF00
3E1F80
3E0F80
7E0F80
7E0F80
7E0F80
7E0000
7E0000
FFFC00
FFFC00
FFFC00
7E0000
7E0000
FFFC00
FFFC00
FFFC00
7E0000
7E0000
7E0000
7E0F80
7E0F80
7E0F80
7E0F80
3E0F80
3E1F80
3FFF00
3FFF00
1FFE00
0FFC00
03F000
ENDCHAR
STARTCHAR uni20B9
ENCODING 8377
SWIDTH 400 0
DWIDTH 19 0
BBX 17 34 1 0
BITMAP
FFFF80
FFFF80
FFFF80
FFFF80
01F800
00F800
007C00
007C00
FFFF80
FFFF80
FFFF80
FFFF80
007C00
00FC00
01F800
FFF800
FFF000
FFE000
FF8000
7E0000
7F0000
3F0000
1F8000
1FC000
0FE000
07E000
03F000
03F800
01F800
00FC00
00FE00
007E00
003F00
003F80
ENDCHAR
STARTCHAR uni20BF
ENCODING 8383
SWIDTH 400 0
DWIDTH 19 0
BBX 17 38 1 -3
BITMAP
1C7000
1C7000
1C7000
FFF000
FFFC00
FFFE00
FFFF00
FFFF00
3E1F00
3E1F80
3E1F80
3E1F80
3E1F80
3E1F00
3E1F00
3E3F00
3FFE00
3FFC00
3FFC00
3FFE00
3FFF00
3E1F80
3E0F80
3E0F80
3E0F80
3E0F80
3E0F80
3E0F80
3E1F80
FFFF80
FFFF00
FFFF00
FFFE00
FFF800
1C7000
1C7000
1C7000
1C7000
ENDCHAR
STARTCHAR uni2113
ENCODING 8467
SWIDTH 412 0
DWIDTH 20 0
BBX 18 35 1 0
BITMAP
007000
03FE00
07FF00
0FFF80
0FFF80
0F8F80
0F8FC0
0F8FC0
0F8FC0
0F8FC0
0F8F80
0F8F80
0F8F80
0F9F80
0F9F00
0FBF00
0FFE00
0FFC00
0FF800
0FF000
0FE000
1FC000
7F8000
FF8000
FF8000
FF8FC0
6F8FC0
0F8FC0
0F8FC0
0F8F80
0FFF80
0FFF80
07FF00
03FE00
01FC00
ENDCHAR
STARTCHAR uni2116
ENCODING 8470
SWIDTH 661 0
DWIDTH 32 0
BBX 28 34 2 0
BITMAP
FE1E0000
FE1E0000
FE1E0000
FE1E0000
FE1E0000
FF1E0000
FF1E0000
FF1E0000
FF1E0000
F71E0000
F79E0000
F79E0F80
F79E1FE0
F79E3FE0
F39E3CF0
F39E3870
F3DE3870
F3DE3870
F3DE3870
F1DE3870
F1DE3870
F1FE3870
F1FE3870
F1FE3870
F0FE3870
F0FE3CF0
F0FE3FE0
F0FE1FE0
F07E0F80
F07E0000
F07E0000
F07E3FF0
F07E3FF0
F03E3FF0
ENDCHAR
STARTCHAR uni2117
ENCODING 8471
SWIDTH 738 0
DWIDTH 35 0
BBX 33 34 1 0
BITMAP
000FF80000
003FFF0000
00FFFFC000
03F80FE000
07C001F000
0F80007800
1F00003C00
1E0FF81E00
3C0FFC1E00
380FFE0F00
780F1E0700
700F1E0780
700F0E0780
F00F0E0380
F00F1E0380
F00F1E0380
E00FFE0380
E00FFC0380
F00FF80380
F00F000380
F00F000380
700F000780
700F000780
780F000700
380F000F00
3C0F001E00
1E0F001E00
1F0F003C00
0F80007800
07C001F000
03F80FE000
00FFFFC000
003FFF0000
000FF80000
ENDCHAR
STARTCHAR uni2120
ENCODING 8480
SWIDTH 599 0
DWIDTH 29 0
BBX 26 18 1 16
BITMAP
1E000000
7F8F87C0
7F8F87C0
F3CF8FC0
E3CFCFC0
F00FCFC0
F00FCDC0
7C0ECDC0
7E0ECDC0
3F0EFDC0
0F8EFDC0
038EF9C0
03CE79C0
E3CE79C0
E3CE79C0
FF8E79C0
7F8E71C0
3E0E31C0
ENDCHAR
STARTCHAR trademark
ENCODING 8482
SWIDTH 598 0
DWIDTH 29 0
BBX 27 17 0 17
BITMAP
FFE7C3E0
FFE7C3E0
FFE7C7E0
0E07E7E0
0E07E7E0
0E07E6E0
0E07E6E0
0E0766E0
0E076EE0
0E077EE0
0E077CE0
0E077CE0
0E073CE0
0E073CE0
0E073CE0
0E0738E0
0E0738E0
ENDCHAR
STARTCHAR uni2126
ENCODING 8486
SWIDTH 402 0
DWIDTH 19 0
BBX 16 34 2 0
BITMAP
0FE0
3FF8
7FFC
7FFE
FFFE
FC7E
F83F
F83F
F83F
F83F
F83F
F83F
F83F
F83F
F83F
F83F
F83F
F83F
F83F
F83F
F83F
F83E
F83E
F83E
783E
783C
3C3C
3C78
1E70
FEFF
FEFF
FEFF
FEFF
FEFF
ENDCHAR
STARTCHAR estimated
ENCODING 8494
SWIDTH 821 0
DWIDTH 39 0
BBX 36 35 2 0
BITMAP
0003FC0000
003C038000
007000E000
01C0003800
0380001C00
0600000E00
0E00000700
1C00000780
3C00000780
3C000007C0
7C000007E0
7C000007E0
FC000007E0
FC000007F0
FC000007F0
FC000007F0
FC000007F0
FFFFFFFFF0
FC00000000
FC00000000
FC00000000
FC00000000
FC00000000
7C00000000
7C00000000
3C00000000
3C00000000
1C00000000
0E00000700
0600000E00
0300001C00
0180003800
00E000E000
003C038000
0007FC0000
ENDCHAR
STARTCHAR uni2153
ENCODING 8531
SWIDTH 653 0
DWIDTH 31 0
BBX 26 34 3 0
BITMAP
0E007800
0E007000
3E007000
FE00F000
FE00E000
1E01E000
1E01C000
1E01C000
1E03C000
1E038000
1E078000
1E070000
1E071F00
1E0F3F80
1E0E7FC0
1E0E71C0
1E1EF1C0
1E1CF1C0
1E3C01C0
1E3801C0
1E3803C0
00780F80
00700F00
00F00F80
00E003C0
00E001C0
01E001C0
01C0F1C0
01C0F1C0
03C0F1C0
038071C0
07807FC0
07003F80
0F001F00
ENDCHAR
STARTCHAR uni2154
ENCODING 8532
SWIDTH 653 0
DWIDTH 31 0
BBX 27 34 2 0
BITMAP
3E003C00
7F803800
FF803800
E3C07800
E3C07000
E3C0F000
E3C0E000
03C0E000
0381E000
0781C000
0F03C000
1E038000
1E038F80
3C079FC0
78073FE0
700738E0
F00F78E0
E00E78E0
E01E00E0
FFDC00E0
FFDC01E0
FFFC07C0
00380780
007807C0
007001E0
007000E0
00F000E0
00E078E0
00E078E0
01E078E0
01C038E0
03C03FE0
03801FC0
07800F80
ENDCHAR
STARTCHAR oneeighth
ENCODING 8539
SWIDTH 653 0
DWIDTH 31 0
BBX 27 34 3 0
BITMAP
0E007800
0E007000
3E007000
FE00F000
FE00E000
1E01E000
1E01C000
1E01C000
1E03C000
1E038000
1E078000
1E070000
1E071F00
1E0F3FC0
1E0E7FC0
1E0E71E0
1E1EF1E0
1E1CF1E0
1E3CF1E0
1E38F1E0
1E3871C0
00787FC0
00703F80
00F07FC0
00E071C0
00E0F1E0
01E0F1E0
01C0F1E0
01C0F1E0
03C0F1E0
038071E0
07807FC0
07003FC0
0F001F00
ENDCHAR
STARTCHAR threeeighths
ENCODING 8540
SWIDTH 653 0
DWIDTH 31 0
BBX 28 34 2 0
BITMAP
3E003C00
7F003800
FF803800
E3807800
E3C07000
E3C0F000
03C0E000
03C0E000
0381E000
1F81C000
1E03C000
1F838000
03838F80
03879FE0
03C73FE0
E3C738F0
E3CF78F0
E3CE78F0
E39E78F0
FF9C78F0
7F1C38E0
3E3C3FE0
00381FC0
00783FE0
007038E0
007078F0
00F078F0
00E078F0
00E078F0
01E078F0
01C038F0
03C03FE0
03801FE0
07800F80
ENDCHAR
STARTCHAR fiveeighths
ENCODING 8541
SWIDTH 653 0
DWIDTH 31 0
BBX 28 34 2 0
BITMAP
FF803C00
FF803800
FF803800
E0007800
E0007000
E000F000
E000E000
EF00E000
FF81E000
FF81C000
E3C3C000
E3C38000
E3C38F80
03C79FE0
03C73FE0
03C738F0
E3CF78F0
E3CE78F0
E3DE78F0
FF9C78F0
7F9C38E0
3E3C3FE0
00381FC0
00783FE0
007038E0
007078F0
00F078F0
00E078F0
00E078F0
01E078F0
01C038F0
03C03FE0
03801FE0
07800F80
ENDCHAR
STARTCHAR seveneighths
ENCODING 8542
SWIDTH 653 0
DWIDTH 31 0
BBX 28 34 2 0
BITMAP
FFC03C00
FFC03800
FFC03800
03C07800
03807000
0380F000
0780E000
0700E000
0701E000
0701C000
0F03C000
0E038000
0E038F80
1E079FE0
1C073FE0
1C0738F0
3C0F78F0
380E78F0
381E78F0
381C78F0
781C38E0
003C3FE0
00381FC0
00783FE0
007038E0
007078F0
00F078F0
00E078F0
00E078F0
01E078F0
01C038F0
03C03FE0
03801FE0
07800F80
ENDCHAR
STARTCHAR partialdiff
ENCODING 8706
SWIDTH 428 0
DWIDTH 21 0
BBX 17 34 2 0
BITMAP
07F800
0FFE00
1FFF00
3FFF00
3E1F80
3C1F80
7C1F80
7C0F80
000F80
001F80
001F80
001F80
0F9F80
3FDF00
7FFF00
7FFF00
FF7F00
FC3F00
F81F00
F81F00
F81F00
F81F00
F81F00
F83F00
F83F00
F83F00
F83F00
F83E00
F83E00
FEFE00
FFFC00
7FFC00
3FF800
0FE000
ENDCHAR
STARTCHAR emptyset
ENCODING 8709
SWIDTH 734 0
DWIDTH 35 0
BBX 30 31 3 1
BITMAP
001FC020
00FFF870
03FFFEF8
07FFFFFC
0FFFFFF8
1FE03FF0
3F800FE0
7F000FE0
7E001FF0
7C003FF0
FC007FF8
F800FCF8
F801F8F8
F803F0F8
F807E07C
F80FC07C
F81F807C
F83F00FC
F87E00F8
F8FC00F8
FDF801F8
7FF001F8
7FE003F0
3FC007F0
3F800FE0
3FE03FC0
7FFFFFC0
FFFFFF80
FBFFFE00
70FFF800
201FE000
ENDCHAR
STARTCHAR uni2206
ENCODING 8710
SWIDTH 401 0
DWIDTH 19 0
BBX 18 34 1 0
BITMAP
07F000
07F000
07F800
0FF800
0FF800
0FF800
0FF800
0F7800
0F7C00
0F7C00
1F7C00
1F7C00
1F7C00
1E7C00
1E3E00
1E3E00
3E3E00
3E3E00
3E3E00
3E3E00
3C3E00
3C1F00
7C1F00
7C1F00
7C1F00
7C1F00
7C1F00
781F80
F80F80
FFFF80
FFFF80
FFFF80
FFFF80
FFFFC0
ENDCHAR
STARTCHAR product
ENCODING 8719
SWIDTH 465 0
DWIDTH 22 0
BBX 18 41 2 -7
BITMAP
FFFFC0
FFFFC0
FFFFC0
FFFFC0
FFFFC0
FC07C0
FC07C0
FC07C0
FC07C0
FC07C0
FC07C0
FC07C0
FC07C0
FC07C0
FC07C0
FC07C0
FC07C0
FC07C0
FC07C0
FC07C0
FC07C0
FC07C0
FC07C0
FC07C0
FC07C0
FC07C0
FC07C0
FC07C0
FC07C0
FC07C0
FC07C0
FC07C0
FC07C0
FC07C0
FC07C0
FC07C0
FC07C0
FC07C0
FC07C0
FC07C0
FC07C0
ENDCHAR
STARTCHAR summation
ENCODING 8721
SWIDTH 411 0
DWIDTH 20 0
BBX 18 41 1 -8
BITMAP
FFFFC0
FFFFC0
FFFFC0
FFFFC0
FFFFC0
7C0000
7E0000
3E0000
3F0000
1F0000
1F8000
0F8000
07C000
07E000
03E000
03F000
01F000
01F800
00F800
00FC00
007C00
007C00
00F800
01F800
01F000
03F000
03E000
07E000
07C000
0FC000
1F8000
1F0000
3F0000
3E0000
7E0000
7C0000
FFFFC0
FFFFC0
FFFFC0
FFFFC0
FFFFC0
ENDCHAR
STARTCHAR minus
ENCODING 8722
SWIDTH 400 0
DWIDTH 19 0
BBX 17 4 1 15
BITMAP
FFFF80
FFFF80
FFFF80
FFFF80
ENDCHAR
STARTCHAR uni2215
ENCODING 8725
SWIDTH 400 0
DWIDTH 19 0
BBX 17 34 1 0
BITMAP
000780
000780
000780
000F00
000F00
001E00
001E00
001E00
003C00
003C00
007800
007800
00F800
00F000
00F000
01E000
01E000
03E000
03C000
03C000
078000
078000
0F8000
0F0000
0F0000
1E0000
1E0000
3C0000
3C0000
3C0000
780000
780000
F00000
F00000
ENDCHAR
STARTCHAR uni2219
ENCODING 8729
SWIDTH 220 0
DWIDTH 11 0
BBX 6 6 2 14
BITMAP
FC
FC
FC
FC
FC
FC
ENDCHAR
STARTCHAR radical
ENCODING 8730
SWIDTH 475 0
DWIDTH 23 0
BBX 21 37 1 -3
BITMAP
000078
000078
000078
0000F0
0000F0
0000F0
0000F0
0001E0
0001E0
0001E0
0001E0
0003C0
0003C0
0003C0
0003C0
FE0380
FE0780
FE0780
FF0780
1F0780
1F0F00
0F0F00
0F8F00
0F8F00
0F9E00
0F9E00
079E00
07DE00
07FC00
07FC00
03FC00
03FC00
03F800
03F800
03F800
01F800
01F000
ENDCHAR
STARTCHAR infinity
ENCODING 8734
SWIDTH 643 0
DWIDTH 31 0
BBX 29 16 1 9
BITMAP
07C01F00
1FF07FC0
3FF8FFE0
7FF9FFF0
7C3DE1F0
781FC0F0
F81FC0F0
F00F8078
F00F80F8
F81F80F8
781FC0F0
7C3FE1F0
7FFDFFF0
3FF8FFE0
1FF07FC0
0FC01F00
ENDCHAR
STARTCHAR integral
ENCODING 8747
SWIDTH 400 0
DWIDTH 19 0
BBX 14 44 3 -8
BITMAP
01FC
03FC
07FC
0FFC
0FFC
0FC4
0F80
0F80
0F80
0F80
0F80
0F80
0F80
0F80
0F80
0F80
0F80
0F80
0F80
0F80
0F80
0F80
0F80
0F80
0F80
0F80
0F80
0F80
0F80
0F80
0F80
0F80
0F80
0F80
0F80
0F80
0F80
0F80
1F80
FF80
FF80
FF00
FE00
FC00
ENDCHAR
STARTCHAR approxequal
ENCODING 8776
SWIDTH 400 0
DWIDTH 19 0
BBX 18 15 1 9
BITMAP
1E0300
3F8380
7FC7C0
FFFF80
F1FF00
E0FE00
203C00
000000
1E0300
3F8380
7FC7C0
FFFF80
F1FF00
E0FE00
603C00
ENDCHAR
STARTCHAR notequal
ENCODING 8800
SWIDTH 400 0
DWIDTH 19 0
BBX 15 20 2 7
BITMAP
001E
001C
003C
0078
FFFE
FFFE
FFFE
FFFE
01C0
03C0
0780
0780
FFFE
FFFE
FFFE
FFFE
3C00
7800
7800
F000
ENDCHAR
STARTCHAR lessequal
ENCODING 8804
SWIDTH 400 0
DWIDTH 19 0
BBX 15 19 2 7
BITMAP
0002
001E
00FE
07FE
1FFC
FFC0
FE00
FC00
FF80
3FF0
0FFE
01FE
003E
0006
0000
FFFE
FFFE
FFFE
FFFE
ENDCHAR
STARTCHAR greaterequal
ENCODING 8805
SWIDTH 400 0
DWIDTH 19 0
BBX 15 19 2 7
BITMAP
8000
F000
FE00
FFC0
3FF8
07FE
00FE
007E
03FE
1FFC
FFE0
FF00
F800
C000
0000
FFFE
FFFE
FFFE
FFFE
ENDCHAR
STARTCHAR lozenge
ENCODING 9674
SWIDTH 400 0
DWIDTH 19 0
BBX 17 35 1 0
BITMAP
008000
01C000
01C000
03E000
03E000
07F000
07F000
07F800
0F7800
0F7800
1E3C00
1E3C00
3E1E00
3C1E00
7C1F00
780F00
780F80
F80780
F80780
780F80
780F00
3C1F00
3C1E00
1E1E00
1E3C00
1E3C00
0F7800
0F7800
07F000
07F000
03F000
03E000
01E000
01C000
00C000
ENDCHAR
STARTCHAR circle
ENCODING 9675
SWIDTH 738 0
DWIDTH 35 0
BBX 33 34 1 0
BITMAP
0007F00000
003FFF0000
00FFFFC000
03F80FE000
07C001F000
0F80007800
1F00003C00
1E00001E00
3C00001E00
3800000F00
7800000700
7000000780
7000000780
F000000380
F000000380
F000000380
E000000380
E000000380
F000000380
F000000380
F000000380
7000000780
7000000780
7800000700
3800000F00
3C00000E00
1E00001E00
1F00003C00
0F80007800
07C001F000
03F807E000
00FFFFC000
007FFF0000
000FF80000
ENDCHAR
STARTCHAR uniE0FF
ENCODING 57599
SWIDTH 500 0
DWIDTH 24 0
BBX 1 1 0 0
BITMAP
00
ENDCHAR
STARTCHAR uniEFFD
ENCODING 61437
SWIDTH 500 0
DWIDTH 24 0
BBX 1 1 0 0
BITMAP
00
ENDCHAR
STARTCHAR uniF000
ENCODING 61440
SWIDTH 500 0
DWIDTH 24 0
BBX 1 1 0 0
BITMAP
00
ENDCHAR
STARTCHAR uniF8FF
ENCODING 63743
SWIDTH 634 0
DWIDTH 30 0
BBX 28 27 1 2
BITMAP
0003FC00
0003FC00
0003FC00
0003FC00
0003FC00
0003FC00
00FFFFF0
07FFFFF0
0FFFFFF0
1FFFFFF0
3FFFFFF0
7FFFFFF0
7FFFFFF0
FF83FC00
FF03FC00
FF03FC00
FF03FC00
FF03FC00
FF03FC00
FF87F800
7FFFF800
7FFFF800
3FFFF000
1FFFE000
0FFFC000
07FF8000
01FE0000
ENDCHAR
STARTCHAR .notdef
ENCODING -1
SWIDTH 738 0
DWIDTH 35 0
BBX 30 33 3 0
BITMAP
FFFFFFFC
FFFFFFFC
F000007C
F800007C
FC0000FC
DE0001DC
CF00039C
C700071C
C3800E1C
C1C01E1C
C0E03C1C
C070781C
C038701C
C03CE01C
C01FC01C
C00F801C
C007001C
C00F801C
C01DC01C
C03CE01C
C078701C
C070381C
C0E01C1C
C1C01E1C
C3800F1C
C700071C
CE00039C
DC0001DC
F80000FC
F800007C
F000003C
FFFFFFFC
FFFFFFFC
ENDCHAR
STARTCHAR NULL
ENCODING -1
SWIDTH 0 0
DWIDTH 0 0
BBX 1 1 0 0
BITMAP
00
ENDCHAR
STARTCHAR uni00A40301
ENCODING -1
SWIDTH 265 0
DWIDTH 13 0
BBX 13 42 1 0
BITMAP
01F8
03F0
03E0
07C0
0F80
0F00
0000
0000
07C0
07C0
07C0
07C0
07C0
07C0
07C0
07C0
07C0
07C0
07C0
07C0
07C0
07C0
07C0
07C0
07C0
07C0
07C0
07C0
07C0
07C0
07C0
07C0
07C0
07C0
07C0
0FC0
0FC0
FF80
FF80
FF00
FE00
FC00
ENDCHAR
STARTCHAR i.loclTRK
ENCODING -1
SWIDTH 192 0
DWIDTH 9 0
BBX 5 41 2 0
BITMAP
F8
F8
F8
F8
F8
00
00
F8
F8
F8
F8
F8
F8
F8
F8
F8
F8
F8
F8
F8
F8
F8
F8
F8
F8
F8
F8
F8
F8
F8
F8
F8
F8
F8
F8
F8
F8
F8
F8
F8
F8
ENDCHAR
STARTCHAR uni006A0301
ENCODING -1
SWIDTH 265 0
DWIDTH 13 0
BBX 13 42 1 0
BITMAP
01F8
03F0
03E0
07C0
0F80
0F00
0000
0000
07C0
07C0
07C0
07C0
07C0
07C0
07C0
07C0
07C0
07C0
07C0
07C0
07C0
07C0
07C0
07C0
07C0
07C0
07C0
07C0
07C0
07C0
07C0
07C0
07C0
07C0
07C0
0FC0
0FC0
FF80
FF80
FF00
FE00
FC00
ENDCHAR
STARTCHAR zero.lf
ENCODING -1
SWIDTH 400 0
DWIDTH 19 0
BBX 16 34 2 0
BITMAP
0FE0
3FF8
7FFC
7FFE
FFFE
FC3E
F83E
F83F
F83F
F83F
F83F
F83F
F83F
F83F
F83F
F83F
F83F
F83F
F83F
F83F
F83F
F83F
F83F
F83F
F83F
F83F
F83F
F83E
FC3E
FFFE
7FFE
7FFC
3FF8
0FE0
ENDCHAR
STARTCHAR one.lf
ENCODING -1
SWIDTH 291 0
DWIDTH 14 0
BBX 11 34 1 0
BITMAP
01E0
01E0
03E0
07E0
0FE0
FFE0
FFE0
FFE0
FFE0
07E0
07E0
07E0
07E0
07E0
07E0
07E0
07E0
07E0
07E0
07E0
07E0
07E0
07E0
07E0
07E0
07E0
07E0
07E0
07E0
07E0
07E0
07E0
07E0
07E0
ENDCHAR
STARTCHAR two.lf
ENCODING -1
SWIDTH 372 0
DWIDTH 18 0
BBX 16 34 1 0
BITMAP
07E0
1FF8
3FFC
7FFE
7FFE
FC3F
F83F
F81F
F81F
F81F
F83F
F83F
003E
007E
007C
00FC
01F8
03F0
07F0
07E0
0FC0
1F80
3F00
3E00
7E00
7C00
7C00
F800
F800
FFFE
FFFE
FFFE
FFFE
FFFE
ENDCHAR
STARTCHAR three.lf
ENCODING -1
SWIDTH 374 0
DWIDTH 18 0
BBX 16 34 1 0
BITMAP
07E0
1FF8
3FFC
7FFE
7FFE
FC7E
F83E
F83F
F83F
F83F
003F
003E
003E
007E
07FC
07F8
07F8
07FC
07FE
007E
003E
003F
003F
F83F
F83F
F83F
F83F
F83F
FC3E
FFFE
7FFE
3FFC
1FF8
0FE0
ENDCHAR
STARTCHAR four.lf
ENCODING -1
SWIDTH 398 0
DWIDTH 19 0
BBX 18 34 1 0
BITMAP
007E00
007E00
00FE00
00FE00
01FE00
01FE00
01FE00
03FE00
03FE00
07FE00
07BE00
07BE00
0FBE00
0F3E00
1F3E00
1F3E00
3E3E00
3E3E00
3C3E00
7C3E00
7C3E00
F83E00
F83E00
FFFFC0
FFFFC0
FFFFC0
FFFFC0
FFFFC0
003E00
003E00
003E00
003E00
003E00
003E00
ENDCHAR
STARTCHAR five.lf
ENCODING -1
SWIDTH 382 0
DWIDTH 18 0
BBX 16 34 1 0
BITMAP
7FFE
7FFE
7FFE
7FFE
7FFE
7C00
7C00
7C00
7C00
7C00
7CF0
7DFC
7FFE
7FFE
7FFF
FC3F
FC3F
F81F
F81F
001F
001F
001F
001F
F81F
F81F
F81F
F81F
FC1F
7C3F
7FFE
7FFE
3FFC
1FF8
07E0
ENDCHAR
STARTCHAR six.lf
ENCODING -1
SWIDTH 393 0
DWIDTH 19 0
BBX 16 34 2 0
BITMAP
0FE0
3FF8
7FFC
7FFC
FFFE
FC3E
F83E
F81E
F81F
F800
F800
F800
F9F0
FBFC
FFFC
FFFE
FFFE
FC3E
F83F
F83F
F83F
F83F
F83F
F83F
F83F
F83F
F83F
F83F
FC3E
FFFE
7FFC
7FFC
3FF8
0FE0
ENDCHAR
STARTCHAR seven.lf
ENCODING -1
SWIDTH 356 0
DWIDTH 17 0
BBX 15 34 1 0
BITMAP
FFFE
FFFE
FFFE
FFFE
FFFE
003E
003E
007E
007C
007C
007C
00F8
00F8
00F8
01F8
01F0
01F0
01F0
03F0
03E0
03E0
07E0
07C0
07C0
07C0
0FC0
0F80
0F80
1F80
1F00
1F00
3F00
3F00
3E00
ENDCHAR
STARTCHAR eight.lf
ENCODING -1
SWIDTH 396 0
DWIDTH 19 0
BBX 17 34 1 0
BITMAP
07F000
1FFC00
3FFE00
7FFE00
7FFF00
7E3F00
7C1F00
FC1F80
FC1F80
FC1F80
FC1F80
7C1F00
7C1F00
7E3F00
3FFE00
1FFC00
1FFC00
3FFE00
7FFF00
7C3F00
FC1F00
FC1F80
FC1F80
FC1F80
FC1F80
FC1F80
FC1F80
FC1F80
7C1F00
7FFF00
7FFF00
3FFE00
1FFC00
07F000
ENDCHAR
STARTCHAR nine.lf
ENCODING -1
SWIDTH 393 0
DWIDTH 19 0
BBX 16 34 1 0
BITMAP
07F0
1FF8
3FFE
7FFE
7FFF
7C3F
FC1F
FC1F
FC1F
FC1F
FC1F
FC1F
FC1F
FC1F
FC1F
FC1F
FE3F
7FFF
7FFF
7FFF
3FDF
071F
001F
001F
001F
F81F
F81F
FC1F
7C3F
7FFF
7FFE
3FFE
1FFC
07F0
ENDCHAR
STARTCHAR zero.dnom
ENCODING -1
SWIDTH 282 0
DWIDTH 14 0
BBX 10 22 2 0
BITMAP
3E00
7F80
FF80
F3C0
E3C0
E3C0
E3C0
E3C0
E3C0
E3C0
E3C0
E3C0
E3C0
E3C0
E3C0
E3C0
E3C0
E3C0
F3C0
FF80
7F80
3E00
ENDCHAR
STARTCHAR one.dnom
ENCODING -1
SWIDTH 282 0
DWIDTH 14 0
BBX 7 21 3 0
BITMAP
0E
0E
3E
FE
FE
1E
1E
1E
1E
1E
1E
1E
1E
1E
1E
1E
1E
1E
1E
1E
1E
ENDCHAR
STARTCHAR two.dnom
ENCODING -1
SWIDTH 282 0
DWIDTH 14 0
BBX 10 22 2 0
BITMAP
3E00
7F80
FF80
E3C0
E3C0
E3C0
E3C0
03C0
0380
0780
0F00
1E00
1E00
3C00
7800
7000
F000
E000
E000
FFC0
FFC0
FFC0
ENDCHAR
STARTCHAR three.dnom
ENCODING -1
SWIDTH 282 0
DWIDTH 14 0
BBX 10 22 2 0
BITMAP
3E00
7F00
FF80
E380
E3C0
E3C0
03C0
0380
0380
1F80
1E00
1F80
0380
0380
03C0
E3C0
E3C0
E3C0
E380
FF80
7F00
3E00
ENDCHAR
STARTCHAR four.dnom
ENCODING -1
SWIDTH 282 0
DWIDTH 14 0
BBX 11 22 1 0
BITMAP
03C0
03C0
07C0
07C0
0FC0
0FC0
0FC0
1DC0
1DC0
39C0
39C0
39C0
71C0
71C0
E1C0
FFE0
FFE0
FFE0
03C0
03C0
03C0
03C0
ENDCHAR
STARTCHAR five.dnom
ENCODING -1
SWIDTH 282 0
DWIDTH 14 0
BBX 10 22 2 0
BITMAP
FF80
FF80
FF80
E000
E000
E000
E000
EF00
FF80
FF80
E3C0
E3C0
E3C0
03C0
03C0
03C0
E3C0
E3C0
E3C0
FF80
7F80
3E00
ENDCHAR
STARTCHAR six.dnom
ENCODING -1
SWIDTH 282 0
DWIDTH 14 0
BBX 10 22 2 0
BITMAP
3E00
7F80
FF80
F3C0
E1C0
E1C0
E000
E000
EF00
FF80
FFC0
F3C0
E1C0
E1C0
E1C0
E1C0
E1C0
E1C0
F3C0
FF80
7F80
3E00
ENDCHAR
STARTCHAR seven.dnom
ENCODING -1
SWIDTH 282 0
DWIDTH 14 0
BBX 10 21 2 0
BITMAP
FFC0
FFC0
FFC0
03C0
0380
0380
0780
0700
0700
0700
0F00
0E00
0E00
1E00
1C00
1C00
3C00
3800
3800
3800
7800
ENDCHAR
STARTCHAR eight.dnom
ENCODING -1
SWIDTH 282 0
DWIDTH 14 0
BBX 10 22 2 0
BITMAP
3E00
7F80
FF80
E3C0
E1C0
E1C0
E1C0
E1C0
E3C0
FF80
3F00
7F80
E3C0
E1C0
E1C0
E1C0
E1C0
E1C0
E3C0
FF80
7F80
3E00
ENDCHAR
STARTCHAR nine.dnom
ENCODING -1
SWIDTH 282 0
DWIDTH 14 0
BBX 10 22 2 0
BITMAP
3E00
7F80
FF80
E3C0
E3C0
E3C0
E3C0
E3C0
E3C0
E3C0
E3C0
FFC0
FFC0
7BC0
03C0
03C0
E3C0
E3C0
E3C0
FF80
7F80
3E00
ENDCHAR
STARTCHAR zero.numr
ENCODING -1
SWIDTH 282 0
DWIDTH 14 0
BBX 10 22 2 12
BITMAP
3E00
7F80
FF80
F3C0
E3C0
E3C0
E3C0
E3C0
E3C0
E3C0
E3C0
E3C0
E3C0
E3C0
E3C0
E3C0
E3C0
E3C0
F3C0
FF80
7F80
3E00
ENDCHAR
STARTCHAR one.numr
ENCODING -1
SWIDTH 282 0
DWIDTH 14 0
BBX 7 21 3 13
BITMAP
0E
0E
3E
FE
FE
1E
1E
1E
1E
1E
1E
1E
1E
1E
1E
1E
1E
1E
1E
1E
1E
ENDCHAR
STARTCHAR two.numr
ENCODING -1
SWIDTH 282 0
DWIDTH 14 0
BBX 10 22 2 12
BITMAP
3E00
7F80
FF80
E3C0
E3C0
E3C0
E3C0
03C0
0380
0780
0F00
1E00
1E00
3C00
7800
7000
F000
E000
E000
FFC0
FFC0
FFC0
ENDCHAR
STARTCHAR three.numr
ENCODING -1
SWIDTH 282 0
DWIDTH 14 0
BBX 10 22 2 12
BITMAP
3E00
7F00
FF80
E380
E3C0
E3C0
03C0
03C0
0380
1F80
1E00
1F80
0380
0380
03C0
E3C0
E3C0
E3C0
E380
FF80
7F00
3E00
ENDCHAR
STARTCHAR four.numr
ENCODING -1
SWIDTH 282 0
DWIDTH 14 0
BBX 11 21 1 13
BITMAP
03C0
03C0
07C0
07C0
0FC0
0FC0
1DC0
1DC0
39C0
39C0
39C0
71C0
71C0
E1C0
FFE0
FFE0
FFE0
03C0
03C0
03C0
03C0
ENDCHAR
STARTCHAR five.numr
ENCODING -1
SWIDTH 282 0
DWIDTH 14 0
BBX 10 22 2 12
BITMAP
FF80
FF80
FF80
E000
E000
E000
E000
EF00
FF80
FF80
E3C0
E3C0
E3C0
03C0
03C0
03C0
E3C0
E3C0
E3C0
FF80
7F80
3E00
ENDCHAR
STARTCHAR six.numr
ENCODING -1
SWIDTH 282 0
DWIDTH 14 0
BBX 10 22 2 12
BITMAP
3E00
7F80
FF80
F3C0
E1C0
E1C0
E000
E000
EF00
FF80
FFC0
F3C0
E1C0
E1C0
E1C0
E1C0
E1C0
E1C0
F3C0
FF80
7F80
3E00
ENDCHAR
STARTCHAR seven.numr
ENCODING -1
SWIDTH 282 0
DWIDTH 14 0
BBX 10 21 2 13
BITMAP
FFC0
FFC0
FFC0
03C0
0380
0380
0780
0700
0700
0700
0F00
0E00
0E00
1E00
1C00
1C00
3C00
3800
3800
3800
7800
ENDCHAR
STARTCHAR eight.numr
ENCODING -1
SWIDTH 282 0
DWIDTH 14 0
BBX 10 22 2 12
BITMAP
3E00
7F80
FF80
E3C0
E1C0
E1C0
E1C0
E1C0
E3C0
FF80
3F00
7F80
E3C0
E1C0
E1C0
E1C0
E1C0
E1C0
E3C0
FF80
7F80
3E00
ENDCHAR
STARTCHAR nine.numr
ENCODING -1
SWIDTH 282 0
DWIDTH 14 0
BBX 10 22 2 12
BITMAP
3E00
7F80
FF80
E3C0
E3C0
E3C0
E3C0
E3C0
E3C0
E3C0
E3C0
FFC0
FFC0
7BC0
03C0
03C0
E3C0
E3C0
E3C0
FF80
7F80
3E00
ENDCHAR
STARTCHAR uni030C.alt
ENCODING -1
SWIDTH 0 0
DWIDTH 0 0
BBX 4 10 -2 24
BITMAP
F0
F0
F0
F0
F0
70
70
60
E0
C0
ENDCHAR
ENDFONT
